<svg xmlns="http://www.w3.org/2000/svg" width="117.301" height="115.857" viewBox="0 0 117.301 115.857">
  <g id="Group_282" data-name="Group 282" transform="translate(-2071.57 -4137.608)">
    <path id="Path_1382" data-name="Path 1382" d="M2083.184,4180.539v-14.1l12.858-7.051v14.1Z" fill="#231e56"/>
    <path id="Path_1383" data-name="Path 1383" d="M2108.486,4166.644l-12.443-7.259v14.1l12.651,7.57Z" fill="#703c95"/>
    <path id="Path_1384" data-name="Path 1384" d="M2121.033,4159.385l-12.547,7.259.208,14.414,12.34-7.259Z" fill="#231e56"/>
    <path id="Path_1385" data-name="Path 1385" d="M2121.344,4144.971l-.311,14.414,12.651-7.362v-14.414Z" fill="#231e56"/>
    <path id="Path_1386" data-name="Path 1386" d="M2133.166,4180.953l-12.133-7.155-12.34,7.259,12.651,7.259Z" fill="#4ac6f0"/>
    <path id="Path_1387" data-name="Path 1387" d="M2146.335,4173.591l-13.169,7.362,13.066,7.259,12.34-7.259Z" fill="#49c6f1"/>
    <path id="Path_1388" data-name="Path 1388" d="M2146.335,4159.488v14.1l12.236,7.362.207-14.725Z" fill="#2e6fb5"/>
    <path id="Path_1389" data-name="Path 1389" d="M2108.693,4195.471v-14.414l12.651,7.259-.208,14.31Z" fill="#231e56"/>
    <path id="Path_1390" data-name="Path 1390" d="M2096.665,4202.833l12.029-7.362,12.443,7.155-12.651,7.051Z" fill="#8e3a8f"/>
    <path id="Path_1391" data-name="Path 1391" d="M2071.57,4202.626l11.925-7.155,13.169,7.362-13.273,7.051Z" fill="#8e3a8f"/>
    <path id="Path_1392" data-name="Path 1392" d="M2188.286,4231.385H2172v-11.9l12.918.061,3.373-6.6h-17.541a5.991,5.991,0,0,0-5.99,5.991v12.458h-6.544V4199.5l-6.475,4.177v27.5H2144.7v-12.13a6.25,6.25,0,0,0-6.249-6.249h-17.421v18.588h-13.228l-3.272,7.1h44.07a2.367,2.367,0,0,0,1.578-.6l2.6-2.321,3.05,2.359a2.367,2.367,0,0,0,1.449.5h31.077Zm-50,.062-8.134-.086a1.693,1.693,0,0,1-1.675-1.693v-10.076h8.28a1.529,1.529,0,0,1,1.529,1.53Z" fill="#808084"/>
    <path id="Path_1393" data-name="Path 1393" d="M2169.422,4248.549h-4.071v2.631h4.551v2.049h-7.053v-11.064h6.816v2.049h-4.314v2.305h4.071Z" fill="#808084"/>
    <path id="Path_1394" data-name="Path 1394" d="M2176.737,4247.761c0-1-.031-1.847-.066-2.567h2.112l.106,1.088h.052a2.783,2.783,0,0,1,2.424-1.268,2.268,2.268,0,0,1,2.2,1.377h.033a3.333,3.333,0,0,1,1.044-.979,2.858,2.858,0,0,1,1.524-.4c1.535,0,2.705,1.085,2.705,3.486v4.729h-2.43v-4.364c0-1.163-.375-1.839-1.182-1.839a1.222,1.222,0,0,0-1.15.871,2.177,2.177,0,0,0-.09.634v4.7h-2.43v-4.5c0-1.012-.361-1.7-1.158-1.7a1.281,1.281,0,0,0-1.171.9,1.851,1.851,0,0,0-.093.633v4.673h-2.43Z" fill="#808084"/>
    <path id="Path_1395" data-name="Path 1395" d="M2171.682,4241.988l2.03.009.021,9.585,1.131.011v1.873h-1.228a1.865,1.865,0,0,1-1.907-1.812Z" fill="#808084"/>
  </g>
</svg>
