<svg xmlns="http://www.w3.org/2000/svg" xmlns:xlink="http://www.w3.org/1999/xlink" width="14" height="14" viewBox="0 0 14 14">
  <defs>
    <clipPath id="clip-path">
      <rect id="Rectangle_170" data-name="Rectangle 170" width="14" height="14" transform="translate(151 1072)" fill="#00b573" stroke="#707070" stroke-width="1"/>
    </clipPath>
  </defs>
  <g id="Mask_Group_22" data-name="Mask Group 22" transform="translate(-151 -1072)" clip-path="url(#clip-path)">
    <g id="calendar_2_" data-name="calendar (2)" transform="translate(151.155 1072)">
      <g id="Group_485" data-name="Group 485">
        <path id="Path_234" data-name="Path 234" d="M5.58,8.782a.318.318,0,0,0-.318-.317H4.154a.318.318,0,0,0-.318.317V9.891a.318.318,0,0,0,.318.318H5.263a.318.318,0,0,0,.318-.318V8.782Z" transform="translate(-0.635 -1.058)" fill="#00b573"/>
        <path id="Path_235" data-name="Path 235" d="M8.747,8.782a.318.318,0,0,0-.317-.317H7.321A.318.318,0,0,0,7,8.782V9.891a.318.318,0,0,0,.318.318H8.43a.318.318,0,0,0,.317-.318Z" transform="translate(-1.031 -1.058)" fill="#00b573"/>
        <path id="Path_236" data-name="Path 236" d="M11.915,8.782a.318.318,0,0,0-.318-.317H10.488a.318.318,0,0,0-.318.317V9.891a.318.318,0,0,0,.318.318H11.6a.318.318,0,0,0,.318-.318Z" transform="translate(-1.426 -1.058)" fill="#00b573"/>
        <path id="Path_237" data-name="Path 237" d="M5.58,11.949a.318.318,0,0,0-.318-.318H4.154a.318.318,0,0,0-.318.318v1.109a.318.318,0,0,0,.318.318H5.263a.318.318,0,0,0,.318-.318V11.949Z" transform="translate(-0.635 -1.454)" fill="#00b573"/>
        <path id="Path_238" data-name="Path 238" d="M8.747,11.949a.317.317,0,0,0-.317-.318H7.321A.318.318,0,0,0,7,11.949v1.109a.318.318,0,0,0,.318.318H8.43a.318.318,0,0,0,.317-.318Z" transform="translate(-1.031 -1.454)" fill="#00b573"/>
        <path id="Path_239" data-name="Path 239" d="M11.915,11.949a.317.317,0,0,0-.317-.318H10.488a.318.318,0,0,0-.318.318v1.109a.318.318,0,0,0,.318.318H11.6a.318.318,0,0,0,.317-.318V11.949Z" transform="translate(-1.426 -1.454)" fill="#00b573"/>
        <path id="Path_240" data-name="Path 240" d="M12.648,1.781V3.474a1.383,1.383,0,0,1-1.386,1.382h-.875A1.39,1.39,0,0,1,8.993,3.474v-1.7H5.051v1.7A1.39,1.39,0,0,1,3.657,4.856H2.782A1.383,1.383,0,0,1,1.4,3.474V1.781A1.261,1.261,0,0,0,.177,3.035v9.925a1.261,1.261,0,0,0,1.255,1.262h11.18a1.263,1.263,0,0,0,1.255-1.262V3.035A1.261,1.261,0,0,0,12.648,1.781Zm-.406,10.561a.543.543,0,0,1-.543.543H2.321a.543.543,0,0,1-.543-.543V7.215a.543.543,0,0,1,.543-.543H11.7a.543.543,0,0,1,.543.543v5.127Z" transform="translate(-0.177 -0.222)" fill="#00b573"/>
        <path id="Path_241" data-name="Path 241" d="M3.083,3.727h.865a.475.475,0,0,0,.475-.475V.475A.475.475,0,0,0,3.948,0H3.083a.475.475,0,0,0-.475.475V3.252A.475.475,0,0,0,3.083,3.727Z" transform="translate(-0.481)" fill="#00b573"/>
        <path id="Path_242" data-name="Path 242" d="M11.766,3.727h.865a.475.475,0,0,0,.475-.475V.475A.475.475,0,0,0,12.631,0h-.865a.475.475,0,0,0-.475.475V3.252A.475.475,0,0,0,11.766,3.727Z" transform="translate(-1.566)" fill="#00b573"/>
      </g>
    </g>
  </g>
</svg>
