<svg xmlns="http://www.w3.org/2000/svg" width="28.622" height="19.565" viewBox="0 0 28.622 19.565">
  <g id="np9lvi.tif" transform="translate(-2405.22 -3700)">
    <g id="Group_212" data-name="Group 212">
      <path id="Path_1514" data-name="Path 1514" d="M2405.518,3701.6a3.1,3.1,0,0,1,2.936-1.6q7.14.012,14.282,0,3.973,0,7.948,0a2.9,2.9,0,0,1,2.829,1.634c-.807.615-1.623,1.241-2.443,1.86q-4.754,3.594-9.51,7.185a3,3,0,0,1-4.031.026q-5.772-4.358-11.538-8.723C2405.844,3701.877,2405.7,3701.756,2405.518,3701.6Z" fill="#8e3a8f"/>
      <path id="Path_1515" data-name="Path 1515" d="M2433.378,3718.249a3.078,3.078,0,0,1-2.691,1.316q-9.438,0-18.875,0c-1.2,0-2.4.01-3.6,0a2.967,2.967,0,0,1-2.515-1.307l8.857-7.9c.707.533,1.4,1.054,2.086,1.572a4.474,4.474,0,0,0,5.776,0c.679-.507,1.353-1.021,2.085-1.573Z" fill="#8e3a8f"/>
      <path id="Path_1516" data-name="Path 1516" d="M2413.321,3709.421l-8.1,7.218V3703.3Z" fill="#8e3a8f"/>
      <path id="Path_1517" data-name="Path 1517" d="M2433.842,3703.29v13.355l-8.1-7.223Z" fill="#8e3a8f"/>
    </g>
  </g>
</svg>
