<svg xmlns="http://www.w3.org/2000/svg" width="45.326" height="45.325" viewBox="0 0 45.326 45.325">
  <g id="Group_293" data-name="Group 293" transform="translate(-2590.774 -5592.675)">
    <path id="Path_1482" data-name="Path 1482" d="M2617.775,5615.337a4.338,4.338,0,1,1-4.338-4.337A4.338,4.338,0,0,1,2617.775,5615.337Z" fill="#007580"/>
    <path id="Path_1483" data-name="Path 1483" d="M2623.582,5607.663a4.311,4.311,0,0,0-2.47-2.47,7.219,7.219,0,0,0-2.416-.448c-1.373-.063-1.784-.076-5.259-.076s-3.886.013-5.259.076a7.225,7.225,0,0,0-2.416.448,4.311,4.311,0,0,0-2.47,2.47,7.205,7.205,0,0,0-.448,2.416c-.062,1.372-.076,1.784-.076,5.259s.014,3.886.076,5.258a7.205,7.205,0,0,0,.448,2.416,4.312,4.312,0,0,0,2.47,2.47,7.158,7.158,0,0,0,2.416.448c1.373.063,1.784.076,5.259.076s3.887-.013,5.258-.076a7.16,7.16,0,0,0,2.417-.448,4.311,4.311,0,0,0,2.47-2.47,7.205,7.205,0,0,0,.448-2.416c.062-1.372.076-1.784.076-5.258s-.014-3.887-.076-5.259A7.205,7.205,0,0,0,2623.582,5607.663Zm-10.145,14.357a6.683,6.683,0,1,1,6.682-6.683A6.683,6.683,0,0,1,2613.437,5622.02Zm6.947-12.068a1.562,1.562,0,1,1,1.561-1.561A1.561,1.561,0,0,1,2620.384,5609.952Z" fill="#007580"/>
    <path id="Path_1484" data-name="Path 1484" d="M2613.437,5592.675a22.663,22.663,0,1,0,22.663,22.662A22.666,22.666,0,0,0,2613.437,5592.675Zm12.935,28.028a9.526,9.526,0,0,1-.6,3.158,6.654,6.654,0,0,1-3.806,3.806,9.534,9.534,0,0,1-3.158.6c-1.388.063-1.831.079-5.366.079s-3.977-.016-5.365-.079a9.546,9.546,0,0,1-3.159-.6,6.653,6.653,0,0,1-3.806-3.806,9.554,9.554,0,0,1-.6-3.158c-.064-1.388-.079-1.832-.079-5.366s.015-3.977.078-5.365a9.541,9.541,0,0,1,.6-3.159,6.653,6.653,0,0,1,3.806-3.806,9.573,9.573,0,0,1,3.159-.6c1.388-.064,1.831-.079,5.365-.079s3.978.015,5.365.079a9.568,9.568,0,0,1,3.159.6,6.653,6.653,0,0,1,3.806,3.806,9.541,9.541,0,0,1,.6,3.159c.064,1.388.078,1.831.078,5.365S2626.436,5619.315,2626.372,5620.7Z" fill="#007580"/>
  </g>
</svg>
