<svg xmlns="http://www.w3.org/2000/svg" width="19.063" height="31.614" viewBox="0 0 19.063 31.614">
  <g id="gJzOFJ" transform="translate(-4733.937 -4812.03)">
    <g id="Group_118" data-name="Group 118">
      <g id="Group_117" data-name="Group 117">
        <path id="Path_814" data-name="Path 814" d="M4745.614,4827.826c-1.708-1.741-3.392-3.455-5.073-5.171q-3.073-3.138-6.145-6.278a1.324,1.324,0,0,1,.018-2.015c.623-.621,1.241-1.247,1.866-1.867a1.307,1.307,0,0,1,2.008.011q4.324,4.345,8.649,8.692,2.78,2.794,5.554,5.6a1.323,1.323,0,0,1,0,2.082q-3.335,3.355-6.672,6.708-3.767,3.789-7.528,7.582a1.316,1.316,0,0,1-2.014.018q-.94-.926-1.868-1.864a1.33,1.33,0,0,1,0-2.041q5.506-5.62,11.01-11.243C4745.483,4827.976,4745.537,4827.911,4745.614,4827.826Z" fill="#007580"/>
      </g>
    </g>
  </g>
</svg>
