<svg xmlns="http://www.w3.org/2000/svg" width="44.401" height="44.417" viewBox="0 0 44.401 44.417">
  <g id="HWVm8e" transform="translate(-2654.168 -5592.985)">
    <g id="Group_294" data-name="Group 294">
      <path id="Path_1485" data-name="Path 1485" d="M2654.168,5615.168a22.077,22.077,0,0,1,19.883-22.082,22.2,22.2,0,0,1,24.518,22.159,22.2,22.2,0,0,1-44.4-.077Zm19.2,3.246c0,1.611-.039,3.223.012,4.832.041,1.283-.578,2.964.267,3.74.825.758,2.487.116,3.772.237.983.093,1.193-.326,1.174-1.227-.054-2.5-.033-5.011-.01-7.516a9.31,9.31,0,0,1,.2-2.125A2.827,2.827,0,0,1,2681.9,5614c1.5.049,2.348.8,2.7,2.468.468,2.213.188,4.459.212,6.689.045,4.4.013,4.4,4.482,4.052a1.022,1.022,0,0,1,.134,0c.512.031.721-.206.708-.72-.1-3.977.264-7.967-.246-11.931a5.066,5.066,0,0,0-4.775-4.809,7.783,7.783,0,0,0-5.668,1.066c-.362.26-1.011.566-1.019-.091-.014-1.248-.763-1.049-1.5-1.045a18.722,18.722,0,0,1-2.146-.014c-1.08-.122-1.48.208-1.437,1.368C2673.431,5613.49,2673.367,5615.953,2673.367,5618.414Zm-9.648-.137c0,2.636.017,5.272-.012,7.908-.008.706.131,1.071.949,1.04,1.473-.055,2.949-.035,4.423-.006.624.012.871-.2.869-.846q-.026-7.908,0-15.817c0-.73-.282-.908-.952-.889-1.384.039-2.772.061-4.154-.006-.866-.042-1.167.209-1.147,1.109C2663.755,5613.271,2663.718,5615.774,2663.719,5618.277Zm6.163-14.315a3.052,3.052,0,1,0-6.1-.01,3.052,3.052,0,1,0,6.1.01Z" fill="#007580"/>
    </g>
  </g>
</svg>
