<svg xmlns="http://www.w3.org/2000/svg" width="22.543" height="22.542" viewBox="0 0 22.543 22.542">
  <path id="Path_1512" data-name="Path 1512" d="M2436.457,3618.382v11.036h5.256v-15.033h-5.256Zm22.419.622c-.346-2.849-1.646-4.619-5.491-4.619-2.254,0-3.775.83-4.411,2.033h-.07v-2.033h-4.191v15.033h4.385v-7.454c0-1.964.387-3.858,2.794-3.858s2.6,2.24,2.6,4v7.316H2459v-8.256a17.64,17.64,0,0,0-.124-2.158Zm-19.791-12.128a2.628,2.628,0,1,0,2.628,2.627,2.626,2.626,0,0,0-2.628-2.627Z" transform="translate(-2436.457 -3606.876)" fill="#8e3a8f" fill-rule="evenodd"/>
</svg>
