<svg xmlns="http://www.w3.org/2000/svg" width="112.825" height="32.169" viewBox="0 0 112.825 32.169">
  <g id="Group_292" data-name="Group 292" transform="translate(-2574.175 -26)">
    <g id="Group_290" data-name="Group 290">
      <path id="Path_1441" data-name="Path 1441" d="M2611.552,35.148a2.2,2.2,0,0,1,.654-.242,3.717,3.717,0,0,1,.766-.08q1.775,0,1.79,1.435v.468a1.319,1.319,0,0,1-.4.968,1.245,1.245,0,0,1-.952.387l-1.1-.016v1.855h-.758Zm1.839,2.275a.574.574,0,0,0,.444-.21.711.711,0,0,0,.185-.484v-.468a.735.735,0,0,0-.258-.637,1.577,1.577,0,0,0-.806-.153,2.687,2.687,0,0,0-.646.08v1.872Z" fill="#fff"/>
      <path id="Path_1442" data-name="Path 1442" d="M2617.107,36.52a1.662,1.662,0,0,1,.9.193l-.452.565a2.641,2.641,0,0,0-.677-.065,1.456,1.456,0,0,0-.484.065v2.645h-.758V36.7a.281.281,0,0,1,.177-.275l.581-.209V36.6A3.389,3.389,0,0,1,2617.107,36.52Z" fill="#fff"/>
      <path id="Path_1443" data-name="Path 1443" d="M2631.973,45.445a1.654,1.654,0,0,1,.9.194l-.451.564a2.706,2.706,0,0,0-.678-.064,1.484,1.484,0,0,0-.483.064v2.645h-.759V45.622a.279.279,0,0,1,.178-.274l.581-.21v.388A3.32,3.32,0,0,1,2631.973,45.445Z" fill="#fff"/>
      <path id="Path_1444" data-name="Path 1444" d="M2618.308,35.858V35.18c0-.021.021-.032.064-.032h.661a.029.029,0,0,1,.033.032v.678c0,.022-.011.032-.033.032h-.661C2618.329,35.89,2618.308,35.88,2618.308,35.858Zm0,.79a.3.3,0,0,1,.056-.177.227.227,0,0,1,.153-.1l.549-.161v3.71h-.758Z" fill="#fff"/>
      <path id="Path_1445" data-name="Path 1445" d="M2619.782,36.7a.247.247,0,0,1,.081-.178,1.042,1.042,0,0,1,.29-.177l.355-.161.013.447a1.306,1.306,0,0,1,.842-.286,1.708,1.708,0,0,1,1.1.371,1.2,1.2,0,0,1,.459.984l.016,2.226h-.758V37.7a.534.534,0,0,0-.234-.468.986.986,0,0,0-.572-.161,1.025,1.025,0,0,0-.589.169.527.527,0,0,0-.25.46v2.226h-.742Z" fill="#fff"/>
      <path id="Path_1446" data-name="Path 1446" d="M2624.377,37.173a1.511,1.511,0,0,0,0,1.758,1,1,0,0,0,.783.314,1.106,1.106,0,0,0,.871-.258l.322.6a1.814,1.814,0,0,1-1.193.339,1.775,1.775,0,0,1-1.323-.508,1.839,1.839,0,0,1-.5-1.347,1.867,1.867,0,0,1,.5-1.355,2.067,2.067,0,0,1,2.5-.178l-.306.629a.632.632,0,0,0-.331-.225,1.649,1.649,0,0,0-.54-.081A1,1,0,0,0,2624.377,37.173Z" fill="#fff"/>
      <path id="Path_1447" data-name="Path 1447" d="M2629.941,39.568a2.286,2.286,0,0,1-.637.258,3.133,3.133,0,0,1-.783.1,1.972,1.972,0,0,1-1.419-.492,1.815,1.815,0,0,1-.516-1.379,1.88,1.88,0,0,1,.476-1.355,1.686,1.686,0,0,1,1.282-.5,1.606,1.606,0,0,1,1.282.492,1.9,1.9,0,0,1,.379,1.4l-2.693.306a1.082,1.082,0,0,0,1.226.888,1.809,1.809,0,0,0,1.064-.242Zm-2.307-2.452a.922.922,0,0,0-.322.581l1.935-.21q-.1-.581-.919-.581A1.066,1.066,0,0,0,2627.634,37.116Z" fill="#fff"/>
      <path id="Path_1448" data-name="Path 1448" d="M2630.9,38.971a1.51,1.51,0,0,0,1,.323,1.2,1.2,0,0,0,.524-.1.317.317,0,0,0,.218-.282.329.329,0,0,0-.177-.3,2.659,2.659,0,0,0-.6-.218,2.706,2.706,0,0,1-.879-.379.818.818,0,0,1-.331-.718.889.889,0,0,1,.4-.766,1.7,1.7,0,0,1,1-.282,2.205,2.205,0,0,1,1.275.387l-.339.581a1.379,1.379,0,0,0-.9-.291,1.065,1.065,0,0,0-.492.1.316.316,0,0,0-.2.283.261.261,0,0,0,.145.242,3.393,3.393,0,0,0,.6.209,3.271,3.271,0,0,1,.92.387.828.828,0,0,1,.338.742.927.927,0,0,1-.427.8,1.8,1.8,0,0,1-1.057.3,2.436,2.436,0,0,1-1.355-.387Z" fill="#fff"/>
      <path id="Path_1449" data-name="Path 1449" d="M2634.131,38.971a1.513,1.513,0,0,0,1,.323,1.2,1.2,0,0,0,.524-.1.317.317,0,0,0,.217-.282.329.329,0,0,0-.177-.3,2.623,2.623,0,0,0-.6-.218,2.715,2.715,0,0,1-.879-.379.82.82,0,0,1-.331-.718.89.89,0,0,1,.4-.766,1.7,1.7,0,0,1,1-.282,2.2,2.2,0,0,1,1.274.387l-.339.581a1.377,1.377,0,0,0-.9-.291,1.068,1.068,0,0,0-.492.1.315.315,0,0,0-.2.283.261.261,0,0,0,.146.242,3.319,3.319,0,0,0,.6.209,3.263,3.263,0,0,1,.919.387.826.826,0,0,1,.339.742.929.929,0,0,1-.428.8,1.8,1.8,0,0,1-1.056.3,2.432,2.432,0,0,1-1.355-.387Z" fill="#fff"/>
      <path id="Path_1450" data-name="Path 1450" d="M2643.064,34.922v5h-.693l-2.742-3.936.032,3.936h-.71v-5h.774l2.662,3.839-.032-3.839Z" fill="#fff"/>
      <path id="Path_1451" data-name="Path 1451" d="M2646.974,36.793a2.15,2.15,0,0,1,0,2.678,1.71,1.71,0,0,1-1.29.484,1.68,1.68,0,0,1-1.282-.484,2.178,2.178,0,0,1,0-2.678,1.683,1.683,0,0,1,1.282-.483A1.713,1.713,0,0,1,2646.974,36.793Zm-.274,1.323q0-1.161-1.016-1.161-1,0-1,1.161t1,1.162Q2646.7,39.278,2646.7,38.116Z" fill="#fff"/>
      <path id="Path_1452" data-name="Path 1452" d="M2650.239,39.729a1.82,1.82,0,0,1-1.919-.177,1.148,1.148,0,0,1-.484-.952V36.793a.253.253,0,0,1,.145-.258l.6-.258V38.6a.51.51,0,0,0,.258.444,1.063,1.063,0,0,0,.6.169.958.958,0,0,0,.556-.161.518.518,0,0,0,.234-.452l.016-1.807a.253.253,0,0,1,.145-.258l.6-.258v3.646h-.742Z" fill="#fff"/>
      <path id="Path_1453" data-name="Path 1453" d="M2656.93,39.7a2.515,2.515,0,0,1-1.049.226,1.539,1.539,0,0,1-1.024-.331,1.122,1.122,0,0,1-.4-.911,1.019,1.019,0,0,1,.427-.9,2.144,2.144,0,0,1,1.234-.3c.14,0,.4.022.791.065v-.113a.45.45,0,0,0-.25-.4,1.38,1.38,0,0,0-.686-.145,4.288,4.288,0,0,0-1.226.226v-.661a4.266,4.266,0,0,1,1.258-.194,2.784,2.784,0,0,1,.791.1,1.185,1.185,0,0,1,.548.315,1.034,1.034,0,0,1,.291.79v2.42h-.678Zm-.016-1.484a5.927,5.927,0,0,0-.839-.081q-.888,0-.887.549a.471.471,0,0,0,.218.419,1.013,1.013,0,0,0,.572.145,1.727,1.727,0,0,0,.936-.274Z" fill="#fff"/>
      <path id="Path_1454" data-name="Path 1454" d="M2660.953,36.648a1.2,1.2,0,0,1,.4.92l.016,2.355h-.758V37.584a.551.551,0,0,0-.194-.42.666.666,0,0,0-.467-.177h-.339a.661.661,0,0,0-.46.186.565.565,0,0,0-.2.427v2.323h-.742l-.016-4.581a.293.293,0,0,1,.177-.291l.564-.225v1.613a1.636,1.636,0,0,1,.678-.162h.339A1.424,1.424,0,0,1,2660.953,36.648Z" fill="#fff"/>
      <path id="Path_1455" data-name="Path 1455" d="M2667.568,35.858V35.18c0-.021.021-.032.064-.032h.662a.029.029,0,0,1,.032.032v.678a.028.028,0,0,1-.032.032h-.662C2667.589,35.89,2667.568,35.88,2667.568,35.858Zm0,.79a.3.3,0,0,1,.056-.177.227.227,0,0,1,.153-.1l.549-.161v3.71h-.758Z" fill="#fff"/>
      <path id="Path_1456" data-name="Path 1456" d="M2673.5,37.31v1.58a.337.337,0,0,0,.138.283.552.552,0,0,0,.346.1h.113l.113.613a1.591,1.591,0,0,1-.306.032,1.176,1.176,0,0,1-.831-.291,1,1,0,0,1-.314-.774V35.713a.338.338,0,0,1,.112-.242l.629-.291V36.7h.872v.613Z" fill="#fff"/>
      <path id="Path_1457" data-name="Path 1457" d="M2616.327,48.872h-.855l-.629-1.6h-1.855l-.613,1.6h-.823l2.1-5.1h.565Zm-1.742-2.274-.662-1.758-.661,1.758Z" fill="#fff"/>
      <path id="Path_1458" data-name="Path 1458" d="M2616.882,48.856V44.291a.248.248,0,0,1,.193-.274l.549-.226v1.436l1.016.016a1.37,1.37,0,0,1,.96.411,1.311,1.311,0,0,1,.4.96v.9a1.3,1.3,0,0,1-.4.959,1.333,1.333,0,0,1-.968.4Zm1.726-.645a.6.6,0,0,0,.451-.21.689.689,0,0,0,.194-.483v-.9a.658.658,0,0,0-.194-.484.536.536,0,0,0-.435-.193h-1l-.016,2.274Z" fill="#fff"/>
      <path id="Path_1459" data-name="Path 1459" d="M2623.986,43.791v5.065l-1.742.016a1.329,1.329,0,0,1-.968-.4,1.292,1.292,0,0,1-.4-.959v-.9a1.306,1.306,0,0,1,.4-.96,1.366,1.366,0,0,1,.959-.411l1.017-.016v-.936a.248.248,0,0,1,.193-.274Zm-.726,4.42-.016-2.274h-1a.566.566,0,0,0-.436.193.658.658,0,0,0-.194.484v.9a.688.688,0,0,0,.194.483.6.6,0,0,0,.452.21Z" fill="#fff"/>
      <path id="Path_1460" data-name="Path 1460" d="M2627.266,48.679a1.824,1.824,0,0,1-1.919-.178,1.146,1.146,0,0,1-.484-.951V45.743a.253.253,0,0,1,.145-.258l.6-.258V47.55a.51.51,0,0,0,.258.443,1.062,1.062,0,0,0,.6.17.952.952,0,0,0,.556-.162.516.516,0,0,0,.234-.451l.016-1.807a.254.254,0,0,1,.146-.258l.6-.258v3.645h-.742Z" fill="#fff"/>
      <path id="Path_1461" data-name="Path 1461" d="M2629.628,43.791v5.081h-.742V44.291a.315.315,0,0,1,.048-.161.265.265,0,0,1,.129-.113Z" fill="#fff"/>
      <path id="Path_1462" data-name="Path 1462" d="M2635.577,48.647a2.53,2.53,0,0,1-1.049.225,1.544,1.544,0,0,1-1.024-.33,1.124,1.124,0,0,1-.4-.912,1.02,1.02,0,0,1,.427-.9,2.145,2.145,0,0,1,1.234-.3c.14,0,.4.021.791.064v-.113a.448.448,0,0,0-.25-.4,1.369,1.369,0,0,0-.686-.145,4.253,4.253,0,0,0-1.226.226V45.4a4.264,4.264,0,0,1,1.258-.193,2.784,2.784,0,0,1,.791.105,1.192,1.192,0,0,1,.548.314,1.036,1.036,0,0,1,.29.791V48.84h-.677Zm-.016-1.484a5.928,5.928,0,0,0-.839-.081q-.888,0-.887.548a.473.473,0,0,0,.218.42,1.01,1.01,0,0,0,.572.145,1.727,1.727,0,0,0,.936-.274Z" fill="#fff"/>
      <path id="Path_1463" data-name="Path 1463" d="M2639.6,45.6a1.2,1.2,0,0,1,.4.919l.016,2.355h-.758V46.534a.553.553,0,0,0-.194-.42.668.668,0,0,0-.467-.177h-.339a.663.663,0,0,0-.46.185.567.567,0,0,0-.2.428v2.322h-.742l-.017-4.581a.292.292,0,0,1,.178-.29l.564-.226v1.613a1.649,1.649,0,0,1,.678-.161h.339A1.425,1.425,0,0,1,2639.6,45.6Z" fill="#fff"/>
      <path id="Path_1464" data-name="Path 1464" d="M2646.107,48.872h-.742V46.566a.521.521,0,0,0-.234-.452.989.989,0,0,0-.573-.161,1.063,1.063,0,0,0-.6.169.525.525,0,0,0-.258.46l.016,2.29h-.758V46.566a.509.509,0,0,0-.25-.452,1.163,1.163,0,0,0-1.153-.016.448.448,0,0,0-.242.4v2.371h-.742V45.63a.293.293,0,0,1,.177-.29l.565-.226v.307a1.556,1.556,0,0,1,.79-.178,2.214,2.214,0,0,1,.718.113,1.241,1.241,0,0,1,.524.323,1.628,1.628,0,0,1,1.178-.452,1.774,1.774,0,0,1,1.105.363,1.15,1.15,0,0,1,.476.96Z" fill="#fff"/>
      <path id="Path_1465" data-name="Path 1465" d="M2648.968,48.647a2.526,2.526,0,0,1-1.048.225,1.546,1.546,0,0,1-1.025-.33,1.127,1.127,0,0,1-.4-.912,1.021,1.021,0,0,1,.428-.9,2.142,2.142,0,0,1,1.234-.3c.139,0,.4.021.79.064v-.113a.448.448,0,0,0-.25-.4,1.366,1.366,0,0,0-.686-.145,4.252,4.252,0,0,0-1.226.226V45.4a4.263,4.263,0,0,1,1.259-.193,2.782,2.782,0,0,1,.79.105,1.192,1.192,0,0,1,.548.314,1.035,1.035,0,0,1,.291.791V48.84H2649Zm-.016-1.484a5.928,5.928,0,0,0-.839-.081q-.887,0-.887.548a.475.475,0,0,0,.218.42,1.013,1.013,0,0,0,.572.145,1.721,1.721,0,0,0,.936-.274Z" fill="#fff"/>
      <path id="Path_1466" data-name="Path 1466" d="M2650.233,45.646a.246.246,0,0,1,.08-.177,1.068,1.068,0,0,1,.291-.178l.354-.161.017.355a1.846,1.846,0,0,1,.838-.194,1.7,1.7,0,0,1,1.1.372,1.2,1.2,0,0,1,.46.984l.016,2.225h-.758V46.647a.532.532,0,0,0-.234-.468.981.981,0,0,0-.572-.162,1.023,1.023,0,0,0-.589.17.527.527,0,0,0-.25.46v2.225h-.742Z" fill="#fff"/>
      <path id="Path_1467" data-name="Path 1467" d="M2658.585,43.791h.726v3.323a1.74,1.74,0,0,1-.468,1.3,1.81,1.81,0,0,1-1.323.459,1.84,1.84,0,0,1-1.331-.459,1.725,1.725,0,0,1-.475-1.3V43.791h.774v3.323a1.092,1.092,0,0,0,.266.791,1.255,1.255,0,0,0,1.565,0,1.092,1.092,0,0,0,.266-.791Z" fill="#fff"/>
      <path id="Path_1468" data-name="Path 1468" d="M2664.292,44.808V44.13c0-.021.021-.032.064-.032h.662a.029.029,0,0,1,.032.032v.678a.029.029,0,0,1-.032.032h-.662C2664.313,44.84,2664.292,44.829,2664.292,44.808Zm0,.79a.3.3,0,0,1,.056-.177.228.228,0,0,1,.153-.1l.549-.162v3.71h-.758Z" fill="#fff"/>
      <path id="Path_1469" data-name="Path 1469" d="M2669.073,45.227l-1.42,3.629h-.58l-1.468-3.629h.839l.935,2.532.9-2.532Z" fill="#fff"/>
      <path id="Path_1470" data-name="Path 1470" d="M2672.66,48.518a2.274,2.274,0,0,1-.637.258,3.177,3.177,0,0,1-.782.1,1.968,1.968,0,0,1-1.42-.492A1.812,1.812,0,0,1,2669.3,47a1.887,1.887,0,0,1,.476-1.355,1.686,1.686,0,0,1,1.282-.5,1.609,1.609,0,0,1,1.283.492,1.907,1.907,0,0,1,.379,1.4l-2.694.306a1.082,1.082,0,0,0,1.226.887,1.8,1.8,0,0,0,1.064-.242Zm-2.306-2.452a.921.921,0,0,0-.323.581l1.936-.21q-.1-.581-.92-.581A1.063,1.063,0,0,0,2670.354,46.066Z" fill="#fff"/>
      <path id="Path_1471" data-name="Path 1471" d="M2676.706,47.921a1.509,1.509,0,0,0,1,.322,1.2,1.2,0,0,0,.524-.1.318.318,0,0,0,.218-.283.328.328,0,0,0-.178-.3,2.578,2.578,0,0,0-.6-.218,2.729,2.729,0,0,1-.879-.379.819.819,0,0,1-.331-.718.887.887,0,0,1,.4-.766,1.7,1.7,0,0,1,1-.282,2.2,2.2,0,0,1,1.274.387l-.338.581a1.38,1.38,0,0,0-.9-.291,1.058,1.058,0,0,0-.492.1.316.316,0,0,0-.2.282.259.259,0,0,0,.145.242,3.356,3.356,0,0,0,.6.21,3.26,3.26,0,0,1,.919.387.826.826,0,0,1,.339.742.929.929,0,0,1-.428.8,1.8,1.8,0,0,1-1.056.3,2.435,2.435,0,0,1-1.355-.387Z" fill="#fff"/>
      <path id="Path_1472" data-name="Path 1472" d="M2679.825,44.808V44.13c0-.021.022-.032.065-.032h.661a.029.029,0,0,1,.033.032v.678a.029.029,0,0,1-.033.032h-.661C2679.847,44.84,2679.825,44.829,2679.825,44.808Zm0,.79a.3.3,0,0,1,.057-.177.224.224,0,0,1,.153-.1l.549-.162v3.71h-.759Z" fill="#fff"/>
      <path id="Path_1473" data-name="Path 1473" d="M2682.2,46.259V47.84a.335.335,0,0,0,.137.282.553.553,0,0,0,.347.1h.113l.113.613a1.536,1.536,0,0,1-.307.032,1.176,1.176,0,0,1-.831-.29,1,1,0,0,1-.314-.774V44.662a.34.34,0,0,1,.113-.242l.629-.29v1.516h.871v.613Z" fill="#fff"/>
      <path id="Path_1474" data-name="Path 1474" d="M2687,45.227l-2.081,5h-.726l.662-1.564-1.4-3.275h.759l1.032,2.436,1.016-2.6Z" fill="#fff"/>
      <path id="Path_1475" data-name="Path 1475" d="M2653.326,36.52a1.662,1.662,0,0,1,.9.193l-.452.565a2.641,2.641,0,0,0-.677-.065,1.456,1.456,0,0,0-.484.065v2.645h-.758V36.7a.281.281,0,0,1,.177-.275l.581-.209V36.6A3.389,3.389,0,0,1,2653.326,36.52Z" fill="#fff"/>
      <path id="Path_1476" data-name="Path 1476" d="M2674.909,45.445a1.658,1.658,0,0,1,.9.194l-.451.564a2.707,2.707,0,0,0-.678-.064,1.489,1.489,0,0,0-.484.064v2.645h-.758V45.622a.28.28,0,0,1,.177-.274l.581-.21v.388A3.328,3.328,0,0,1,2674.909,45.445Z" fill="#fff"/>
      <path id="Path_1477" data-name="Path 1477" d="M2669.042,36.7a.247.247,0,0,1,.081-.178,1.042,1.042,0,0,1,.29-.177l.355-.161.013.447a1.306,1.306,0,0,1,.842-.286,1.708,1.708,0,0,1,1.1.371,1.2,1.2,0,0,1,.459.984l.017,2.226h-.759V37.7a.536.536,0,0,0-.233-.468.989.989,0,0,0-.573-.161,1.025,1.025,0,0,0-.589.169.527.527,0,0,0-.25.46v2.226h-.742Z" fill="#fff"/>
      <path id="Path_1478" data-name="Path 1478" d="M2660.188,45.638a.247.247,0,0,1,.081-.177,1.055,1.055,0,0,1,.29-.178l.355-.161.013.447a1.306,1.306,0,0,1,.842-.286,1.708,1.708,0,0,1,1.1.371,1.2,1.2,0,0,1,.46.984l.016,2.226h-.758V46.638a.534.534,0,0,0-.234-.467.982.982,0,0,0-.573-.162,1.025,1.025,0,0,0-.589.17.527.527,0,0,0-.25.459v2.226h-.742Z" fill="#fff"/>
      <path id="Path_1479" data-name="Path 1479" d="M2663.692,39.947V35.382a.248.248,0,0,1,.193-.274l.548-.226v1.436l1.017.016a1.37,1.37,0,0,1,.96.411,1.308,1.308,0,0,1,.4.96v.9a1.294,1.294,0,0,1-.4.96,1.332,1.332,0,0,1-.967.4Zm1.726-.645a.6.6,0,0,0,.451-.21.692.692,0,0,0,.194-.484v-.9a.656.656,0,0,0-.194-.484.537.537,0,0,0-.435-.194h-1l-.016,2.275Z" fill="#fff"/>
    </g>
    <g id="Group_291" data-name="Group 291">
      <path id="Path_1480" data-name="Path 1480" d="M2590.259,26a16.084,16.084,0,1,0,16.085,16.085A16.084,16.084,0,0,0,2590.259,26Zm9.2,4.987a24.03,24.03,0,0,0-2.456,1.665c-.125.1-.254.2-.385.3a21.918,21.918,0,0,0-2.757-2.826,21.107,21.107,0,0,0-1.83-1.407q-.477-.328-.972-.63c-.186-.114-.6-.354-.724-.422A14.354,14.354,0,0,1,2599.462,30.987Zm-9.17-2.472a20.792,20.792,0,0,1,3.7,2.752,21.992,21.992,0,0,1,2.043,2.171,18.79,18.79,0,0,0-3.915,4.525c-.1-.005-.2-.007-.3-.007h-3.3a18.838,18.838,0,0,0-3.953-4.554,21.323,21.323,0,0,1,4.951-4.414C2589.6,28.932,2590.221,28.474,2590.292,28.515Zm-8.168,19.8h-2.494c.025-1.558.06-3.115.1-3.49q.132-1.117.374-2.217a21.975,21.975,0,0,1,2.382-6.195,21.689,21.689,0,0,1,1.194-1.864q.195-.271.4-.537a18.194,18.194,0,0,1,3.571,4.015,6.682,6.682,0,0,0-3.952,2.133,6.268,6.268,0,0,0-1.617,4.195Zm8.122-20.651c-.116.066-.537.306-.725.421a21.772,21.772,0,0,0-3.616,2.761,21.948,21.948,0,0,0-1.585,1.659q-.172.2-.341.407c-.115-.092-.228-.18-.338-.264a23.865,23.865,0,0,0-2.532-1.709A14.357,14.357,0,0,1,2590.246,27.668Zm-11.234,16.774q-.148,1.132-.187,2.275c0,.12-.007.239-.01.359-.006.318.015,3.37,0,3.425v.354a14.413,14.413,0,0,1,1.669-19.369,23.241,23.241,0,0,1,3.007,2.045q-.312.408-.6.828c-.406.584-.783,1.188-1.132,1.807s-.674,1.268-.965,1.923-.556,1.34-.786,2.028-.433,1.4-.6,2.121S2579.109,43.7,2579.012,44.442Zm8.349,9.889a.541.541,0,0,1-.143.188.641.641,0,0,1-.206.107.8.8,0,0,1-.24.036,1.121,1.121,0,0,1-.282-.038,1.4,1.4,0,0,1-.264-.1,2.141,2.141,0,0,1-.338.1,1.757,1.757,0,0,1-.339.038h-.278l-.055-.036v-.341l.055-.034h.429c.045,0,.089,0,.13-.008a.559.559,0,0,1-.083-.162.751.751,0,0,1-.023-.2.727.727,0,0,1,.037-.224.642.642,0,0,1,.107-.187.5.5,0,0,1,.163-.131.456.456,0,0,1,.415,0,.481.481,0,0,1,.163.131.637.637,0,0,1,.107.187.649.649,0,0,1,.037.224.62.62,0,0,1-.028.2.482.482,0,0,1-.088.167.518.518,0,0,0,.057,0h.059a.887.887,0,0,0,.181-.016.473.473,0,0,0,.111-.041.139.139,0,0,0,.056-.05.111.111,0,0,0,.016-.05.82.82,0,0,0-.044-.238.973.973,0,0,0-.145-.272,1.372,1.372,0,0,0-.262-.268,1.414,1.414,0,0,0-.4-.21l.153-.342a1.866,1.866,0,0,1,.435.24,1.556,1.556,0,0,1,.314.314,1.377,1.377,0,0,1,.188.36,1.164,1.164,0,0,1,.063.373A.626.626,0,0,1,2587.361,54.331Zm1.405.331h-.309c0-.169-.014-.337-.03-.51s-.036-.346-.064-.516-.061-.338-.1-.5-.081-.322-.127-.472l.389-.12c.04.117.075.246.109.387s.06.288.081.439.04.3.052.458.02.3.02.443A3.448,3.448,0,0,1,2588.766,54.662Zm.1-6.5c-.388.432-1.189,1.222-1.434,1.5s-1.231.264-1.231.264.808-.671,1.255-1a16.974,16.974,0,0,0,1.6-1.688c.329-.355.892-1.06,1.053-1.263s.673-.738.673-.738.291.538-.454,1.432C2590.019,47.032,2589.252,47.726,2588.865,48.158Zm-.721-1.47c.131-.1.124-.284.129-.455.009-.3-.167-.574.112-.81a.774.774,0,0,1,.788-.164c.533.342-.259,1.138-.5,1.411a4.28,4.28,0,0,1-1.008.833c-.225.13-.822.562-1.074.335a.275.275,0,0,1-.067-.135,2.5,2.5,0,0,1,.619-2.147,7.43,7.43,0,0,1,.945-1.051c.052-.047.221-.232.292-.238.007,0-.006.022-.022.047a.428.428,0,0,0-.036.052,15.187,15.187,0,0,0-1.183,2.356C2587.125,47.071,2587.933,46.848,2588.144,46.688Zm1.6,2.014a.117.117,0,0,1,.063-.022l1.427-.147c.619-.062.815-.889.549-1.116s-.522-.3-.558-.749c-.018-.21.308-1.044,1.058-.66a1.76,1.76,0,0,0,.848.183l0-.165-.065-.72c-.482.1-.356-.241-.3-.4s.234-.114.666-.305a2.823,2.823,0,0,1,.617-.253c0-.018.018,0,0,0l.1.738a.127.127,0,0,1-.095.133,1.32,1.32,0,0,0-.211.05c-.108.043-.077.085-.074.2a3.26,3.26,0,0,1-.057.7.833.833,0,0,1-.13.351c-.158.213-.439.256-.624.434a7.063,7.063,0,0,0-.542.592,2.328,2.328,0,0,0-.246.736c-.119.617-1.6,1.145-2.327,1.148C2588.784,49.438,2589.585,48.824,2589.749,48.7Zm2.307-4.24c.61-.412.684-.5.661-.225l-.011.14a.265.265,0,0,1-.11.195,1.091,1.091,0,0,0-.347.46C2592.082,45.435,2591.446,44.876,2592.056,44.462Zm-1.037,10.186c-.08.014-.157.024-.236.03s-.157.012-.23.012a1.024,1.024,0,0,1-.572-.133.452.452,0,0,1-.191-.393.552.552,0,0,1,.088-.3.667.667,0,0,1,.24-.234.517.517,0,0,1-.266-.143.333.333,0,0,1-.1-.246.435.435,0,0,1,.083-.25.856.856,0,0,1,.23-.221,1.515,1.515,0,0,1,.343-.164,1.893,1.893,0,0,1,.427-.094l-.081.388a2,2,0,0,0-.256.057,1.1,1.1,0,0,0-.21.083.579.579,0,0,0-.143.1.153.153,0,0,0-.052.1c0,.053.042.1.123.127a1,1,0,0,0,.337.045h.122a.271.271,0,0,0,.077-.009l-.036.338a1.154,1.154,0,0,0-.433.125.264.264,0,0,0-.152.224c0,.064.041.113.124.149a.929.929,0,0,0,.358.052c.077,0,.161,0,.248-.012a2.208,2.208,0,0,0,.234-.032Zm1.943-1.7c-.076-.008-.149-.016-.222-.02s-.149-.008-.224-.008a3.428,3.428,0,0,0-.4.022c.024.1.048.209.07.322s.038.226.052.341.025.228.033.341.012.219.012.318a3.448,3.448,0,0,1-.022.4h-.309a7.567,7.567,0,0,0-.09-1.01,6.6,6.6,0,0,0-.22-.961l.25-.133a2.8,2.8,0,0,1,.29-.034q.146-.012.3-.012c.087,0,.178,0,.269.012s.179.016.263.028Zm1.929.05c-.047.141-.1.3-.153.472l-.172.564c-.062.2-.125.409-.187.625h-.327q-.1-.3-.185-.562c-.062-.176-.121-.345-.182-.51s-.125-.323-.191-.478-.133-.312-.2-.471l.39-.125c.039.094.083.2.131.33s.095.258.144.4.1.28.143.422.087.276.125.4c.062-.269.129-.533.2-.79s.141-.51.216-.762l.375.125Q2594.96,52.786,2594.891,53Zm6.032-1.391h0v.175h0a14.6,14.6,0,0,1-1.714,1.6v-2.11h-3.48v-6.02a4.281,4.281,0,0,0-4.283-4.282h-2.508a4.283,4.283,0,0,0-4.283,4.282v6.02h-3.445v2.029a14.52,14.52,0,0,1-1.628-1.539c.006-.353.018-1.362.034-2.51h3.445l-.008-.939-.032-3.969a5.6,5.6,0,0,1,5.7-5.475h3.045a5.6,5.6,0,0,1,5.694,5.484v4.9h3.478C2600.93,50.318,2600.925,51.368,2600.923,51.61Zm.013-3.291h-2.545v-3.96a6.425,6.425,0,0,0-4.306-6l-.007,0-.09-.031-.086-.03a6.909,6.909,0,0,0-.924-.233,18.445,18.445,0,0,1,3.548-4q.279.37.539.754a23.347,23.347,0,0,1,1.674,2.89,21.8,21.8,0,0,1,1.151,2.894,22.283,22.283,0,0,1,.737,3.048,22.666,22.666,0,0,1,.308,3.163C2600.938,46.941,2600.938,47.562,2600.936,48.319Zm.612-3.62a23.032,23.032,0,0,0-1.52-5.956,22.709,22.709,0,0,0-1.306-2.7q-.367-.648-.778-1.27c-.262-.4-.539-.794-.828-1.181l-.008-.01a23.491,23.491,0,0,1,2.972-2.047,14.415,14.415,0,0,1,1.614,19.333c0-1.213.007-2.886.009-2.976A23.589,23.589,0,0,0,2601.548,44.7Z" fill="#fff"/>
      <ellipse id="Ellipse_46" data-name="Ellipse 46" cx="0.187" cy="0.231" rx="0.187" ry="0.231" transform="translate(2586.049 53.64)" fill="#fff"/>
    </g>
  </g>
</svg>
