<svg xmlns="http://www.w3.org/2000/svg" width="74.731" height="35.712" viewBox="0 0 74.731 35.712">
  <g id="Group_296" data-name="Group 296" transform="translate(-2706.848 -24.456)">
    <path id="Path_1491" data-name="Path 1491" d="M2763.7,57.581c-.582.7-1.274,1.3-1.9,1.956-.105.11-.185.082-.282-.017q-.571-.583-1.155-1.154a.473.473,0,0,1-.123-.38c0-.532-.008-1.064.006-1.6.006-.251-.084-.331-.331-.324-.532.014-1.065,0-1.6.007a.539.539,0,0,1-.434-.182c-.34-.357-.707-.69-1.034-1.059-.229-.258-.381-.229-.6.015-.329.367-.7.7-1.041,1.054a.506.506,0,0,1-.4.17c-.507-.006-1.014-.011-1.521,0-.237.007-.3-.078-.294-.308.014-.773-.006-1.546.01-2.318.005-.283-.082-.369-.367-.362-.76.02-1.522-.008-2.281.014-.3.009-.377-.086-.35-.365.055-.574-.182-1.211.107-1.711a5.911,5.911,0,0,1,1.177-1.224c.2-.187.226-.3.008-.5-.384-.346-.732-.732-1.106-1.089a.572.572,0,0,1-.187-.468c.01-.532,0-1.064.008-1.6.006-.217-.075-.29-.284-.287-.52.009-1.04-.009-1.559.009a.685.685,0,0,1-.565-.237c-.321-.34-.645-.679-.99-.993-.182-.167-.156-.258.008-.416.574-.553,1.127-1.127,1.7-1.682.164-.159.171-.255,0-.421-.584-.561-1.145-1.146-1.726-1.71-.168-.162-.191-.28,0-.42.03-.022.05-.057.078-.082.4-.363.7-.922,1.187-1.089a5.236,5.236,0,0,1,1.622-.048c.512,0,.51,0,.513-.511a4.737,4.737,0,0,1,.061-1.653c.189-.464.722-.79,1.1-1.176.348-.352.346-.35-.01-.71-.381-.386-.9-.717-1.1-1.182a5.573,5.573,0,0,1-.067-1.614c-.025-.35.095-.422.422-.411.747.025,1.495,0,2.243.013.246,0,.327-.064.322-.317-.016-.772.007-1.545-.014-2.317-.007-.293.088-.369.367-.357a5.355,5.355,0,0,1,1.691.071,4.122,4.122,0,0,1,1.227,1.159c.229.254.363.245.591,0,.4-.422.738-.993,1.26-1.179a4.638,4.638,0,0,1,1.7-.039c.326.014.481-.067.419-.411a.539.539,0,0,1,0-.114,4.357,4.357,0,0,1,.057-1.614c.222-.5.777-.846,1.173-1.271.156-.166.257-.175.422,0,.563.584,1.148,1.145,1.71,1.729.164.171.256.165.417,0,.553-.575,1.13-1.127,1.682-1.7.174-.181.3-.191.448.006a.3.3,0,0,0,.024.029c.391.412.966.729,1.143,1.239a4.824,4.824,0,0,1,.04,1.7c-.013.319.053.47.408.425.25-.032.513.03.759-.013a1.717,1.717,0,0,1,1.76.75c.215.274.463.675.768.684.279.008.527-.4.729-.663a1.949,1.949,0,0,1,1.869-.781c.95.072.954.019.954.981q0,1.006,0,2.014c-.941,0-1.883-.012-2.824-.005a3.4,3.4,0,0,0-.97.042c-.008,1.184-.015,2.369-.027,3.553,0,.164.064.22.224.218,1.186-.009,2.372-.013,3.557-.018.137-.042.1-.156.1-.252q0-1.758-.006-3.518c.886-.005,1.772-.005,2.659-.019.208,0,.256.082.253.269-.008.531-.01,1.063,0,1.595a.5.5,0,0,1-.189.391c-.361.354-.709.723-1.081,1.066-.19.175-.217.289-.01.476.347.314.652.674,1,.984a.8.8,0,0,1,.281.7c-.019.493,0,.987-.009,1.481,0,.215.071.292.284.289.519-.009,1.039.011,1.557-.006a.728.728,0,0,1,.6.25c.312.332.632.657.966.966.17.159.173.257,0,.423-.643.627-1.271,1.27-1.9,1.907a.082.082,0,0,0-.049,0c-.828-.831-1.659-1.658-2.48-2.5-.15-.153-.236-.159-.389,0-.82.838-1.65,1.666-2.477,2.5a.1.1,0,0,0-.056,0q-1.106-1.119-2.209-2.239c-.129-.131-.216-.123-.341,0-.735.749-1.477,1.491-2.217,2.235h-.077q-.61-.618-1.223-1.235c-.108-.108-.223-.208-.219-.379a18.2,18.2,0,0,1,.033-1.886c.139-.008.277-.021.416-.021.887,0,1.773,0,2.66,0,.141,0,.311.051.311-.205,0-1,.005-2,.018-3,0-.222-.119-.244-.289-.243-.95,0-1.9.008-2.849,0-.223,0-.279.081-.277.289.012,1.063.012,2.126.017,3.189a12.4,12.4,0,0,0-1.363-.005,1.308,1.308,0,0,1-1.273-.539c-.206-.268-.486-.477-.716-.727-.149-.161-.25-.193-.422-.015-.419.434-.795,1.016-1.313,1.222a5.339,5.339,0,0,1-1.838.058l-.152,0c-.11-.118-.056-.264-.057-.394-.006-.847,0-1.694,0-2.541,0-.59.067-.513-.528-.525-.946-.019-1.894.049-2.839-.038a.87.87,0,0,1-.034-.411c0-1.012-.007-2.024,0-3.035,0-.212-.032-.324-.285-.321-1.075.011-2.151.008-3.227,0-.217,0-.281.075-.279.287.008,1.063.01,2.125,0,3.188,0,.232.07.3.3.3,1.177-.013,2.353-.011,3.53-.014,0,1.008.013,2.017-.018,3.025-.011.377.109.457.465.454.993-.009,1.987-.048,2.98.019,0,.582-.016,1.165-.007,1.747a.629.629,0,0,1-.208.5c-.366.35-.714.718-1.082,1.065-.155.146-.17.235,0,.389.353.325.678.68,1.025,1.01a.726.726,0,0,1,.251.6c-.021.48,0,.963-.007,1.444,0,.211.066.289.286.283.507-.012,1.014,0,1.521,0a.486.486,0,0,1,.386.12c.419.437.842.873,1.263,1.309l.064.085c-.717.707-1.424,1.424-2.154,2.116-.221.21-.211.327,0,.535.706.7,1.437,1.373,2.094,2.121a.055.055,0,0,0,0,.04c-.712.8-1.51,1.523-2.254,2.3-.423.44-.449.3,0,.767.745.77,1.541,1.49,2.251,2.294A.049.049,0,0,0,2763.7,57.581Zm-6.848-8.266c-1.2-.007-2.4-.011-3.6-.025-.257,0-.24.158-.239.328,0,1.05.008,2.1,0,3.149,0,.265.078.35.345.347,1.038-.013,2.076-.016,3.114,0,.3.006.392-.092.388-.39-.014-1.138-.005-2.277-.005-3.415,1.014,0,2.028-.009,3.042,0,.26,0,.359-.074.355-.344-.011-.962-.008-1.925,0-2.888,0-.176-.06-.215-.216-.214q-1.464.006-2.928,0c-.182,0-.278.047-.275.256C2756.841,47.188,2756.845,48.252,2756.852,49.315Zm-2.974-6.991a1.831,1.831,0,0,0-.127-.157c-.793-.794-1.589-1.584-2.378-2.382-.114-.116-.188-.082-.28.01q-1.2,1.206-2.407,2.41c-.1.1-.111.165,0,.275q1.2,1.185,2.385,2.386c.117.118.2.108.312-.007q1.187-1.2,2.379-2.383A1.463,1.463,0,0,0,2753.878,42.324Zm9.937-9.861a.907.907,0,0,1,.093-.145c.8-.8,1.6-1.607,2.416-2.4.143-.141.052-.212-.04-.3-.769-.767-1.541-1.532-2.3-2.307-.156-.159-.252-.134-.394.01q-1.132,1.145-2.279,2.275c-.146.143-.158.237,0,.391.777.76,1.541,1.533,2.31,2.3C2763.67,32.333,2763.726,32.38,2763.815,32.463Zm-5.079,9.875a1.877,1.877,0,0,0-.143-.181c-.687-.69-1.378-1.376-2.062-2.069-.142-.144-.236-.121-.37.015q-1.014,1.031-2.044,2.043c-.136.134-.158.212,0,.36q1.047,1.02,2.068,2.069c.156.16.24.1.361-.018q1.016-1.023,2.034-2.042C2758.628,42.463,2758.675,42.4,2758.736,42.338Zm5.054-5.06c.055-.049.1-.088.145-.13.7-.7,1.389-1.4,2.095-2.092.144-.142.106-.215-.013-.333q-1.04-1.028-2.065-2.069c-.129-.13-.206-.128-.335,0q-1.011,1.029-2.042,2.04c-.15.147-.159.237,0,.389.688.671,1.363,1.355,2.043,2.034C2763.668,37.173,2763.726,37.22,2763.79,37.278Z" fill="#fff"/>
    <path id="Path_1492" data-name="Path 1492" d="M2779,42.322a.082.082,0,0,1,.049,0c.622.63,1.237,1.268,1.871,1.886.194.188.2.3-.007.473a2.573,2.573,0,0,0-.482.483,1.749,1.749,0,0,1-1.77.728c-.353-.038-.823-.172-1.054.07-.212.223-.1.685-.052,1.027a1.822,1.822,0,0,1-.773,1.829c-.261.2-.654.435-.649.742,0,.279.382.513.637.71a1.952,1.952,0,0,1,.791,1.863c-.076.962-.018.966-.977.966-.557,0-1.115.012-1.671-.005-.26-.008-.353.063-.347.336.018.772,0,1.545.012,2.316.005.256-.054.358-.333.345a5.337,5.337,0,0,1-1.653-.06c-.478-.195-.818-.729-1.214-1.119-.354-.349-.352-.353-.7-.006-.323.322-.652.638-.962.971a.64.64,0,0,1-.534.213c-.481-.015-.965.02-1.444-.013-.352-.024-.43.108-.412.43.026.467,0,.937.011,1.4a.677.677,0,0,1-.226.569c-.343.318-.679.647-.993.993-.177.195-.283.162-.449-.009-.555-.572-1.125-1.13-1.69-1.694a.5.5,0,0,0-.276-.187.049.049,0,0,1,0-.042.61.61,0,0,0,.166-.082c.818-.813,1.63-1.631,2.451-2.44.147-.145.088-.223-.026-.337-.8-.793-1.6-1.593-2.4-2.387a.862.862,0,0,0-.193-.11.055.055,0,0,1,0-.04.14.14,0,0,0,.036-.013c.841-.71,1.566-1.539,2.359-2.3.123-.118.01-.178-.054-.243-.293-.3-.585-.6-.886-.886a15.8,15.8,0,0,0-1.394-1.332l-.064-.085c.155-.013.236-.135.333-.231.332-.329.669-.654.991-.993a.659.659,0,0,1,.535-.221c.43.011.862-.026,1.289.01.387.033.477-.121.452-.472-.027-.39.01-.784-.012-1.174a.834.834,0,0,1,.292-.7c.4-.385.781-.791,1.169-1.187h.077c.739.746,1.481,1.49,2.214,2.241.129.131.212.13.339,0,.735-.75,1.476-1.494,2.214-2.24a.1.1,0,0,1,.056,0q1.254,1.261,2.5,2.525c.124.126.208.136.338,0C2777.325,44,2778.163,43.164,2779,42.322Zm-6.366,6.972c-.532,0-1.064.008-1.6,0-.213,0-.284.069-.283.284.009,1.075.007,2.151,0,3.226,0,.2.068.265.265.264q1.633-.009,3.267,0c.21,0,.289-.068.287-.285q-.012-1.594,0-3.189c0-.234-.081-.307-.309-.3C2773.721,49.3,2773.176,49.294,2772.632,49.294Zm-3.57-3.417c-.468,0-.938.01-1.406,0-.24-.008-.335.057-.331.316.013.924.011,1.849,0,2.773,0,.234.078.305.307.3q1.407-.013,2.814,0c.228,0,.314-.068.312-.3q-.014-1.406,0-2.812c0-.219-.08-.285-.291-.279C2770,45.885,2769.531,45.876,2769.062,45.877Z" fill="#fff"/>
    <path id="Path_1493" data-name="Path 1493" d="M2732.642,41.868a1.883,1.883,0,0,1,.513-2.426,2.6,2.6,0,0,1,1.767-.285c.959.131.839-.047.845.972,0,.481.008.963,0,1.444,0,.216.042.321.291.316.786-.015,1.572-.013,2.358-.005.261,0,.347-.093.344-.357-.011-1.331,0-2.661-.011-3.991,0-.321.1-.415.41-.407.627.016.633,0,.627.617-.015,1.494.036,2.989-.038,4.483-.027.537-.071.614-.622.616-3.043.009-6.086.031-9.127-.009-.54-.007-1.072-.014-1.613,0-2.116.053-4.234.026-6.351.019a.829.829,0,0,1-.936-.939c0-1.482,0-2.964-.008-4.447,0-.276.1-.344.355-.337.755.019.636-.071.639.613.006,1.216.009,2.433,0,3.649,0,.332.1.488.457.487q2.871-.012,5.742,0c.322,0,.455-.114.438-.45-.024-.48,0-.963-.01-1.444-.008-.267.065-.389.361-.388.623,0,.623-.011.623.614,0,.443.009.887,0,1.33-.007.23.089.327.308.327Zm2.144-.89c0-.227-.01-.455,0-.681.011-.192-.051-.274-.252-.271-.355,0-.736-.044-.962.3a1.277,1.277,0,0,0-.041,1.234,1.017,1.017,0,0,0,1.113.353c.287-.1.089-.372.133-.56A1.574,1.574,0,0,0,2734.786,40.978Z" fill="#fff"/>
    <path id="Path_1494" data-name="Path 1494" d="M2739.808,47.528c0,.785-.009,1.57,0,2.355.006.379-.12.6-.53.618-1.254.046-2.51.066-3.761-.009a7.8,7.8,0,0,0-1.226-.031,8.312,8.312,0,0,1-3.238-.109.374.374,0,0,0-.283.018,2.037,2.037,0,0,1-1.622.007.414.414,0,0,0-.354,0,1.948,1.948,0,0,1-1.584-.013.28.28,0,0,0-.281-.013,1.983,1.983,0,0,1-1,.176c-.8-.006-1.6,0-2.394,0s-1.085-.284-1.086-1.069c0-1.431.017-2.862-.011-4.293-.008-.454.246-.4.532-.411.317-.015.485.037.477.426-.024,1.279-.011,2.558-.007,3.837,0,.46.064.519.534.521.684,0,1.368,0,2.052,0,.458,0,.485-.034.487-.5,0-.342.017-.685,0-1.026-.027-.46.277-.409.577-.426.32-.017.425.1.408.417-.021.4.01.811-.008,1.216s.263.339.49.344.5.029.493-.349c-.012-.506.008-1.014-.007-1.52-.007-.256.065-.36.34-.361.632,0,.631-.014.631.609,0,.431.015.862,0,1.292-.017.37.239.328.457.329.234,0,.5.043.5-.342-.012-.608.011-1.216-.007-1.824-.013-.416.264-.349.513-.352s.49-.041.477.346c-.02.594.007,1.19-.011,1.785-.007.255.114.356.328.359.8.009,1.6.011,2.394,0,.225,0,.331-.144.327-.378-.008-.507.017-1.015-.009-1.52-.016-.314.1-.414.393-.376a.916.916,0,0,0,.228,0c.262-.029.362.08.355.347-.013.519.009,1.039-.006,1.557-.008.267.112.375.354.376.938,0,1.876,0,2.813.005.292,0,.282-.182.282-.381,0-1.317,0-2.634,0-3.951,0-.151-.085-.377.136-.423a1.2,1.2,0,0,1,.779.032c.117.057.07.206.07.316C2739.81,45.932,2739.808,46.73,2739.808,47.528Z" fill="#fff"/>
    <path id="Path_1495" data-name="Path 1495" d="M2722.483,31.05a10.469,10.469,0,0,1,1.706.075,1.707,1.707,0,0,1,1.464,1.693c.028.492,0,.987,0,1.48,0,.242-.111.342-.347.34-.355,0-.71.01-1.064.01q-7.489,0-14.977-.007c-.328,0-.433.068-.425.413.034,1.328-.823,1.454-1.756,1.389-.363-.026-.188-.348-.221-.545s.019-.33.251-.324c.075,0,.152,0,.228,0,.436-.019.534-.109.537-.553.008-1.038,0-2.077,0-3.115a.568.568,0,0,1,.871-.5c.132.07.1.191.1.3,0,.519.018,1.039-.006,1.558-.014.309.07.413.4.406,1.013-.021,2.027-.007,3.041-.007,3.991,0,7.983-.006,11.974.008.344,0,.426-.1.423-.42-.007-.834-.388-1.227-1.313-1.263-.531-.02-1.065-.024-1.6,0-.317.015-.389-.108-.383-.4a2.461,2.461,0,0,1,.306-1.123c.224-.425.448-.85.677-1.273a.884.884,0,0,1,.993-.281c.171.1.051.224,0,.325-.254.509-.517,1.013-.774,1.52C2722.556,30.836,2722.532,30.921,2722.483,31.05Z" fill="#fff"/>
    <path id="Path_1496" data-name="Path 1496" d="M2734.084,33.659h4.183c.526,0,.567-.045.576-.558a5.146,5.146,0,0,1,.039-.833,1.477,1.477,0,0,1,1.62-1.28c.984-.005,1.519.392,1.681,1.234a3.756,3.756,0,0,1,.031,1.134,1.438,1.438,0,0,1-1.573,1.408,2.073,2.073,0,0,1-1.271-.3.158.158,0,0,0-.206-.011,1.621,1.621,0,0,1-1.025.193c-2.751,0-5.5.006-8.252-.008-.344,0-.448.082-.443.437a1.333,1.333,0,0,1-1.818,1.365c-.334-.092-.152-.379-.188-.579-.032-.178.042-.3.247-.289.076,0,.152,0,.228,0,.448-.016.567-.114.573-.567.014-1.064.029-2.129,0-3.192-.011-.416.185-.443.506-.442s.507.029.478.426c-.035.478.019.964-.017,1.442-.028.372.118.43.446.427C2731.295,33.649,2732.69,33.659,2734.084,33.659Zm7.161-.8h.008c0-.038,0-.076,0-.114-.011-.617-.209-.852-.715-.851s-.709.241-.718.852c0,.139-.007.279,0,.418.027.461.214.648.656.663.5.018.716-.152.768-.627A3.176,3.176,0,0,0,2741.245,32.857Z" fill="#fff"/>
    <path id="Path_1497" data-name="Path 1497" d="M2712.987,49.538c.747,0,1.495-.009,2.242,0,.347.006.515-.1.493-.482-.027-.454.016-.912-.013-1.366-.023-.364.119-.488.46-.437a.4.4,0,0,0,.114,0c.308-.042.432.076.417.4-.022.492.007.987-.011,1.481-.011.284.116.4.375.4.773,0,1.546,0,2.319.005.249,0,.293-.128.291-.336-.006-.531.016-1.064-.009-1.6-.014-.3.1-.388.372-.364a2.6,2.6,0,0,0,.342,0c.166-.006.265.047.264.234,0,.887,0,1.773-.007,2.659a.294.294,0,0,1-.3.323c-.126.01-.251.049-.376.05-.988.006-1.981.062-2.963-.014a13.074,13.074,0,0,0-1.608,0c-1.682.07-3.369.027-5.054.022a.622.622,0,0,1-.366-.074c-.344-.284-.677-.155-1.055-.077-1.317.273-2.167-.611-1.943-1.976a1.75,1.75,0,0,1,1.864-1.581,6.471,6.471,0,0,1,1.059.071c.25.028.335.153.327.4-.017.557-.006,1.114,0,1.671,0,.5.075.577.564.579C2711.517,49.54,2712.252,49.538,2712.987,49.538Zm-3.75-1a4.449,4.449,0,0,1,0-.491c.03-.27-.08-.344-.341-.337-.7.017-1.015.365-.963,1.092.035.48.265.675.778.66.448-.013.523-.107.523-.66Z" fill="#fff"/>
    <path id="Path_1498" data-name="Path 1498" d="M2710.654,42.841a12.961,12.961,0,0,1-2.237-.062,1.659,1.659,0,0,1-1.47-1.747,4.936,4.936,0,0,1,.038-.909c.04-.235.141-.313.377-.312.515,0,.514-.009.5.52,0,.114-.005.228,0,.342.046.748.377,1.136,1.126,1.175.923.049,1.85.019,2.775.032.246,0,.293-.12.289-.331-.009-.532.013-1.065-.009-1.6-.014-.345.176-.374.431-.347.236.024.562-.127.551.34-.019.785,0,1.571-.008,2.357-.006.447-.082.526-.541.535C2711.871,42.85,2711.262,42.841,2710.654,42.841Z" fill="#fff"/>
    <path id="Path_1499" data-name="Path 1499" d="M2758.741,26.042a1.581,1.581,0,0,1-3.161.014,1.581,1.581,0,1,1,3.161-.014Z" fill="#fff"/>
    <path id="Path_1500" data-name="Path 1500" d="M2747.54,37.313a1.536,1.536,0,0,1-1.566-1.547,1.579,1.579,0,0,1,1.554-1.58,1.541,1.541,0,0,1,1.573,1.584A1.507,1.507,0,0,1,2747.54,37.313Z" fill="#fff"/>
    <path id="Path_1501" data-name="Path 1501" d="M2745.9,48.859a1.553,1.553,0,0,1,3.106.056,1.553,1.553,0,1,1-3.106-.056Z" fill="#fff"/>
    <path id="Path_1502" data-name="Path 1502" d="M2768.856,26.027a1.561,1.561,0,1,1,3.122.05,1.561,1.561,0,0,1-3.122-.05Z" fill="#fff"/>
    <path id="Path_1503" data-name="Path 1503" d="M2781.579,35.768a1.508,1.508,0,0,1-1.569,1.538,1.537,1.537,0,0,1-1.542-1.54,1.565,1.565,0,0,1,1.564-1.568A1.527,1.527,0,0,1,2781.579,35.768Z" fill="#fff"/>
    <path id="Path_1504" data-name="Path 1504" d="M2757.2,57.067a1.517,1.517,0,0,1,1.509,1.532,1.551,1.551,0,1,1-3.1-.047A1.526,1.526,0,0,1,2757.2,57.067Z" fill="#fff"/>
    <path id="Path_1505" data-name="Path 1505" d="M2768.862,58.61a1.557,1.557,0,1,1,3.114-.012,1.557,1.557,0,1,1-3.114.012Z" fill="#fff"/>
    <path id="Path_1506" data-name="Path 1506" d="M2781.574,48.9a1.517,1.517,0,0,1-1.533,1.548,1.579,1.579,0,0,1-1.575-1.568,1.562,1.562,0,0,1,1.556-1.539A1.5,1.5,0,0,1,2781.574,48.9Z" fill="#fff"/>
    <path id="Path_1507" data-name="Path 1507" d="M2718.275,42.859c-.4,0-.811-.009-1.216,0-.223.006-.338-.061-.312-.3a1.119,1.119,0,0,0,0-.265c-.039-.307.073-.434.4-.418.48.023.963,0,1.444.008.207,0,.25-.047.262-.277.059-1.162-.343-1.622-1.66-1.551-.169.009-.3-.01-.265-.2.038-.221-.177-.538.2-.641a1.969,1.969,0,0,1,2.671,2.015c0,.443-.007.886,0,1.329.006.235-.09.309-.316.3C2719.086,42.85,2718.681,42.859,2718.275,42.859Z" fill="#fff"/>
    <path id="Path_1508" data-name="Path 1508" d="M2741.2,47.6c0-.81.01-1.62-.006-2.43-.006-.31.091-.425.412-.418.626.014.626,0,.626.619,0,1.57-.015,3.14.01,4.709.006.434-.2.452-.532.457-.351.006-.535-.049-.519-.469C2741.223,49.246,2741.2,48.423,2741.2,47.6Z" fill="#fff"/>
    <path id="Path_1509" data-name="Path 1509" d="M2742.233,40q0,1.194,0,2.388c0,.49,0,.49-.475.473a2.364,2.364,0,0,0-.266,0c-.218.019-.29-.1-.29-.294q0-2.579,0-5.156c0-.184.07-.283.269-.277a2.177,2.177,0,0,0,.378-.02c.3-.042.4.089.391.385C2742.223,38.332,2742.233,39.166,2742.233,40Z" fill="#fff"/>
    <path id="Path_1510" data-name="Path 1510" d="M2715.476,40.011c0,.822-.012,1.644.006,2.465.006.293-.069.431-.38.386a1.766,1.766,0,0,0-.341,0c-.19.011-.277-.066-.276-.263q0-2.6,0-5.195c0-.195.079-.257.27-.269.723-.045.723-.051.723.679Z" fill="#fff"/>
    <path id="Path_1511" data-name="Path 1511" d="M2708.574,54.187q-.105.4-.208.792c-.042.162-.114.273-.31.264s-.223-.141-.245-.281c-.09-.549-.175-1.1-.263-1.648-.015-.1-.067-.213.084-.243s.191.085.209.205a10.742,10.742,0,0,0,.3,1.484c.069-.255.139-.509.208-.763.035-.13.086-.23.249-.235a.262.262,0,0,1,.294.229c.065.256.138.51.23.845a11.887,11.887,0,0,0,.261-1.4c.019-.086.02-.176.042-.261a.142.142,0,0,1,.178-.1c.094.014.121.077.106.165q-.153.917-.306,1.832c-.023.14-.123.174-.251.176a.248.248,0,0,1-.265-.219c-.074-.278-.147-.556-.221-.835Z" fill="#fff"/>
    <path id="Path_1512" data-name="Path 1512" d="M2711.456,54.4v-.114c0-.662.14-.8.791-.672a1.321,1.321,0,0,0,.517-.007.476.476,0,0,1,.634.5c.016.29.006.581,0,.872,0,.11.019.251-.155.242s-.137-.151-.138-.259c0-.253,0-.506,0-.759,0-.2-.048-.35-.293-.344s-.254.151-.249.334c.007.278,0,.556,0,.835,0,.109-.016.209-.162.2-.124-.011-.121-.11-.122-.2,0-.291,0-.582,0-.873,0-.167-.035-.309-.252-.289-.185.017-.3.089-.291.309.013.277,0,.556,0,.834,0,.1.014.218-.139.217s-.138-.119-.14-.218c0-.2,0-.4,0-.607Z" fill="#fff"/>
    <path id="Path_1513" data-name="Path 1513" d="M2720.109,46.476c-.114,0-.228.006-.342,0-.131-.01-.3.059-.373-.106-.063-.143-.009-.253.14-.343.1-.061,0-.186-.01-.282a.612.612,0,0,1,.3-.648.98.98,0,0,1,.81-.055c.126.045.111.157.1.256-.011.116-.1.13-.2.129a1.953,1.953,0,0,0-.265.009.266.266,0,0,0-.251.316c.008.168.061.3.264.3.1,0,.2.009.3,0,.169-.011.223.08.227.229s-.079.2-.216.194c-.164,0-.329,0-.494,0Z" fill="#fff"/>
    <path id="Path_1514" data-name="Path 1514" d="M2733.028,54.446c0,.594-.155.776-.749.788-.276,0-.225.162-.23.32,0,.1.026.223-.121.234-.175.013-.159-.125-.159-.237,0-.556,0-1.112,0-1.667,0-.154.059-.213.212-.25C2732.674,53.466,2733.029,53.735,2733.028,54.446Zm-.3.069v-.2c0-.274-.084-.455-.4-.469-.364-.016-.271.236-.278.432-.006.138,0,.276,0,.414s-.027.311.206.319c.206.007.384-.029.451-.248A.9.9,0,0,0,2732.732,54.515Z" fill="#fff"/>
    <path id="Path_1515" data-name="Path 1515" d="M2725.193,54.114a3.262,3.262,0,0,1-.007.568c-.035.2.179.508-.242.555-.586.066-.869-.061-.973-.472-.173-.692.051-1.043.776-1.171.232-.041.138-.2.158-.316s-.013-.25.165-.234c.147.014.12.14.122.236C2725.2,53.558,2725.193,53.836,2725.193,54.114Zm-.285.365c0-.113,0-.2,0-.288-.006-.31-.166-.435-.447-.311-.309.137-.236.44-.231.692.005.21.079.4.334.432C2725.079,55.071,2724.854,54.675,2724.908,54.479Z" fill="#fff"/>
    <path id="Path_1516" data-name="Path 1516" d="M2729.463,54.135c0-.3,0-.606,0-.909,0-.092.008-.18.134-.183s.151.087.139.177c-.044.35.076.447.435.383a.434.434,0,0,1,.507.444c.029.326.024.654.029.982,0,.11-.032.208-.17.2s-.137-.127-.138-.228c0-.265,0-.53,0-.8,0-.23-.088-.347-.339-.343s-.331.116-.32.352c.013.264,0,.53,0,.8,0,.1.007.215-.142.216s-.137-.118-.137-.216c0-.29,0-.581,0-.871Z" fill="#fff"/>
    <path id="Path_1517" data-name="Path 1517" d="M2736.382,54.533a.463.463,0,0,0-.089,0c-.146.046-.41-.12-.421.146s.221.318.461.322c.158,0,.446-.147.451.068.008.284-.312.157-.487.165-.461.021-.685-.168-.736-.572q-.112-.882.443-1.04a.648.648,0,0,1,.864.7C2736.832,54.723,2736.5,54.422,2736.382,54.533Zm-.185-.208c.125-.052.36.1.351-.192-.006-.2-.143-.272-.33-.273-.205,0-.351.093-.358.3C2735.852,54.423,2736.076,54.274,2736.2,54.325Z" fill="#fff"/>
    <path id="Path_1518" data-name="Path 1518" d="M2740.666,54.985c.075-.005.151-.012.227-.013s.125.028.13.1-.038.108-.1.137a1.026,1.026,0,0,1-1.015-.221,1.19,1.19,0,0,1,.085-1.245.671.671,0,0,1,.781-.071.654.654,0,0,1,.32.64.182.182,0,0,1-.2.214c-.152,0-.3-.01-.455.006-.12.013-.309-.084-.331.136s.152.3.338.325a1.149,1.149,0,0,0,.226-.008Zm-.208-.657c.124-.05.351.087.328-.181-.017-.207-.163-.293-.368-.286s-.324.094-.322.287C2740.1,54.431,2740.339,54.265,2740.458,54.328Z" fill="#fff"/>
    <path id="Path_1519" data-name="Path 1519" d="M2721.692,54.533a.537.537,0,0,0-.144,0c-.122.043-.35-.111-.354.136,0,.219.173.327.387.333a3.44,3.44,0,0,0,.377-.031c.076-.006.16-.012.179.088s-.044.128-.123.157A1.015,1.015,0,0,1,2721,55a1.272,1.272,0,0,1,.037-1.192.712.712,0,0,1,.836-.135.623.623,0,0,1,.3.716C2722.111,54.682,2721.829,54.461,2721.692,54.533Zm-.14-.2c.081-.116.35.127.345-.172a.307.307,0,0,0-.355-.306c-.207.006-.354.1-.358.3C2721.179,54.423,2721.407,54.271,2721.552,54.337Z" fill="#fff"/>
    <path id="Path_1520" data-name="Path 1520" d="M2726.335,55.241c-.6,0-.81-.189-.829-.706-.024-.636.154-.913.615-.94a.579.579,0,0,1,.646.413c.134.393.041.524-.374.525a1.075,1.075,0,0,0-.227,0c-.125.029-.346-.1-.347.153,0,.214.178.3.365.315a1.951,1.951,0,0,0,.339-.026c.095-.006.227-.057.236.1.008.134-.118.145-.22.155S2726.363,55.24,2726.335,55.241Zm-.164-.915c.126-.047.347.087.331-.189-.012-.206-.149-.279-.338-.277-.206,0-.361.1-.347.313C2725.833,54.42,2726.054,54.27,2726.171,54.326Z" fill="#fff"/>
    <path id="Path_1521" data-name="Path 1521" d="M2714.522,54.534a.478.478,0,0,0-.1,0c-.142.043-.407-.124-.394.182.012.267.241.273.453.286.158.01.445-.144.45.067.006.283-.312.145-.489.167-.3.036-.589-.038-.668-.362a1.13,1.13,0,0,1,.134-1.114.642.642,0,0,1,.742-.108.664.664,0,0,1,.354.759C2714.892,54.647,2714.66,54.481,2714.522,54.534Zm-.151-.674c-.208,0-.36.075-.358.295,0,.255.215.157.338.155s.336.108.35-.141C2714.712,53.957,2714.574,53.858,2714.371,53.86Z" fill="#fff"/>
    <path id="Path_1522" data-name="Path 1522" d="M2715.323,54.4c0-.025,0-.05,0-.076,0-.71,0-.714.7-.725a.463.463,0,0,1,.517.4,5.955,5.955,0,0,1,.038,1.059c0,.1-.038.174-.152.174s-.152-.077-.153-.174q-.006-.417,0-.835c0-.224-.079-.367-.331-.354-.224.012-.35.1-.334.351s0,.531,0,.8c0,.1.005.216-.145.214s-.137-.12-.138-.22C2715.322,54.8,2715.323,54.6,2715.323,54.4Z" fill="#fff"/>
    <path id="Path_1523" data-name="Path 1523" d="M2723.656,54.594c0,.126,0,.252,0,.378,0,.179-.034.324-.257.223-.163-.073-.285.06-.437.052-.253-.012-.455-.065-.495-.353s.01-.536.35-.607a2.513,2.513,0,0,1,.3-.035c.1-.009.215.007.218-.142s-.061-.246-.217-.252c-.139-.006-.278,0-.416,0-.064,0-.132-.008-.148-.085-.02-.1.056-.12.13-.148a.66.66,0,0,1,.973.625c.006.113,0,.227,0,.341Zm-.289.1c.018-.132-.029-.232-.221-.221s-.393,0-.4.271c0,.154.047.276.231.268S2723.367,54.995,2723.367,54.691Z" fill="#fff"/>
    <path id="Path_1524" data-name="Path 1524" d="M2709.835,54.4c0-.558.217-.814.675-.811.425,0,.652.3.649.851s-.227.809-.687.8S2709.832,54.982,2709.835,54.4Zm.291,0c-.006.277-.015.584.36.592.348.007.371-.278.363-.547s.043-.564-.357-.588a.306.306,0,0,0-.34.242A1.646,1.646,0,0,0,2710.126,54.4Z" fill="#fff"/>
    <path id="Path_1525" data-name="Path 1525" d="M2734.03,54.121c0-.127-.01-.254,0-.38a.856.856,0,0,1,1.207-.662c.063.03.106.067.1.139,0,.105-.081.1-.16.113-.868.108-.868.109-.86.963,0,.561.139.686.705.674.111,0,.291-.078.3.117s-.17.148-.286.154C2734.257,55.286,2734.026,55.029,2734.03,54.121Z" fill="#fff"/>
    <path id="Path_1526" data-name="Path 1526" d="M2737.169,54.435v-.114c0-.732,0-.731.73-.728a.468.468,0,0,1,.516.484c.021.314.01.631.012.946,0,.109-.015.208-.16.2-.127-.009-.122-.107-.123-.195,0-.278-.005-.555-.008-.833a.293.293,0,0,0-.357-.329c-.221.014-.35.094-.333.348s0,.53,0,.795c0,.1.017.218-.137.215s-.139-.121-.142-.22C2737.166,54.813,2737.169,54.624,2737.169,54.435Z" fill="#fff"/>
    <path id="Path_1527" data-name="Path 1527" d="M2719.542,54c0-.24,0-.48,0-.72,0-.106.012-.213.156-.206s.155.1.155.214c0,.417.023.836-.006,1.25-.026.366.131.463.462.455.153,0,.435-.108.443.107.009.246-.276.136-.428.139-.686.014-.782-.09-.783-.784C2719.541,54.3,2719.541,54.149,2719.542,54Z" fill="#fff"/>
    <path id="Path_1528" data-name="Path 1528" d="M2718.126,53.857c-.138.019-.339-.081-.39.117-.041.165.152.206.26.285a.222.222,0,0,0,.032.021c.259.16.566.3.436.692-.084.253-.492.362-.875.258-.079-.022-.148-.045-.145-.141s.087-.1.163-.1c.2-.006.5.147.57-.12.077-.284-.283-.3-.449-.43s-.343-.264-.306-.519a.33.33,0,0,1,.265-.287,1.118,1.118,0,0,1,.742.045.086.086,0,0,1,.018.133C2718.357,53.91,2718.234,53.837,2718.126,53.857Z" fill="#fff"/>
    <path id="Path_1529" data-name="Path 1529" d="M2728.506,55.238a1.873,1.873,0,0,1-.2,0c-.1-.008-.228,0-.216-.148s.148-.1.239-.1.176.019.263.017c.1,0,.21-.023.246-.137s-.045-.187-.134-.243c-.15-.093-.3-.182-.45-.28a.429.429,0,0,1-.168-.469c.035-.209.2-.236.365-.272a.543.543,0,0,1,.188-.012c.165.021.445-.043.446.151,0,.236-.258.077-.4.1-.108.02-.254-.031-.3.1-.058.158.1.209.2.277.074.049.153.089.227.138.209.137.406.3.315.581S2728.795,55.259,2728.506,55.238Z" fill="#fff"/>
    <path id="Path_1530" data-name="Path 1530" d="M2738.927,54.451c-.062-.23.141-.555-.263-.652-.07-.017-.053-.151-.009-.141.316.077.207-.566.533-.332.1.075.13.281.336.325.09.019.071.188-.031.192-.329.014-.258.241-.262.434,0,.126,0,.253,0,.38,0,.178-.035.373.247.36.073,0,.112.053.11.124s-.069.087-.133.1c-.315.064-.489-.052-.527-.375A3.413,3.413,0,0,1,2738.927,54.451Z" fill="#fff"/>
    <path id="Path_1531" data-name="Path 1531" d="M2708.443,45.711c.087.393-.18.4-.511.418-.418.025-.43-.193-.439-.507-.012-.368.129-.493.487-.475C2708.431,45.17,2708.446,45.169,2708.443,45.711Z" fill="#fff"/>
    <path id="Path_1532" data-name="Path 1532" d="M2711.148,38.735c.05.281,0,.484-.375.461-.284-.017-.579.041-.539-.409.026-.285-.068-.6.415-.575S2711.135,38.211,2711.148,38.735Z" fill="#fff"/>
    <path id="Path_1533" data-name="Path 1533" d="M2708.86,30.154c.059.276-.014.469-.381.432-.253-.025-.618.111-.55-.368.031-.226-.191-.6.32-.593C2708.843,29.627,2708.843,29.611,2708.86,30.154Z" fill="#fff"/>
    <path id="Path_1534" data-name="Path 1534" d="M2734.945,45.509c.316-.072.456.069.435.447-.027.476-.008.452-.53.485-.382.024-.472-.124-.451-.474C2734.427,45.51,2734.406,45.509,2734.945,45.509Z" fill="#fff"/>
    <path id="Path_1535" data-name="Path 1535" d="M2735.321,38.006c.069.3-.047.435-.432.438s-.482-.139-.485-.506.119-.489.478-.469C2735.32,37.493,2735.321,37.474,2735.321,38.006Z" fill="#fff"/>
    <path id="Path_1536" data-name="Path 1536" d="M2716.377,51.615c-.078-.366.076-.476.446-.482.4-.008.444.167.455.5.013.383-.108.489-.493.5C2716.358,52.139,2716.328,51.934,2716.377,51.615Z" fill="#fff"/>
    <path id="Path_1537" data-name="Path 1537" d="M2733.047,37.933c-.092-.386.1-.461.451-.47.385-.009.476.144.459.492-.023.474-.009.448-.5.483C2733.036,38.469,2732.991,38.259,2733.047,37.933Z" fill="#fff"/>
    <path id="Path_1538" data-name="Path 1538" d="M2715.844,51.634c.1.388-.084.485-.462.494-.4.009-.441-.176-.45-.5-.011-.363.1-.489.472-.49S2715.925,51.259,2715.844,51.634Z" fill="#fff"/>
    <path id="Path_1539" data-name="Path 1539" d="M2709.75,38.7c.071.35-.039.509-.43.5-.351,0-.5-.086-.482-.468.03-.5.014-.494.468-.518C2709.676,38.2,2709.831,38.329,2709.75,38.7Z" fill="#fff"/>
    <path id="Path_1540" data-name="Path 1540" d="M2708.936,45.643c-.1-.383.074-.5.454-.5.357,0,.451.128.447.467s-.037.54-.463.525C2709.012,46.12,2708.847,46.025,2708.936,45.643Z" fill="#fff"/>
    <path id="Path_1541" data-name="Path 1541" d="M2774.636,31.551q0,1.759.006,3.518c0,.1.032.21-.1.252,0-1.123-.013-2.247.009-3.369.006-.322-.112-.378-.392-.376-1.124.007-2.247,0-3.371-.008a3.4,3.4,0,0,1,.97-.042c.941-.007,1.883,0,2.824.005A.062.062,0,0,1,2774.636,31.551Z" fill="#fff"/>
    <path id="Path_1542" data-name="Path 1542" d="M2728.841,44.008c.109.406-.116.442-.453.458-.405.02-.435-.168-.449-.5-.017-.388.136-.452.482-.458C2728.813,43.5,2728.923,43.652,2728.841,44.008Z" fill="#fff"/>
    <path id="Path_1543" data-name="Path 1543" d="M2730.223,44c.07.335-.029.491-.4.466-.477-.031-.461-.015-.491-.489-.025-.381.131-.455.479-.465C2730.2,43.5,2730.293,43.661,2730.223,44Z" fill="#fff"/>
    <path id="Path_1544" data-name="Path 1544" d="M2741.405,54.416v-.265c0-.549.064-.608.6-.554.068.007.126.028.141.1s-.015.142-.083.146c-.477.024-.371.375-.377.662,0,.176,0,.353,0,.529,0,.09-.005.184-.128.191-.151.009-.15-.1-.151-.2C2741.4,54.818,2741.405,54.617,2741.405,54.416Z" fill="#fff"/>
    <path id="Path_1545" data-name="Path 1545" d="M2727.128,54.393c0-.088,0-.177,0-.265,0-.5.109-.6.6-.532.069.009.122.034.13.109s-.022.138-.093.141c-.433.016-.357.328-.357.6,0,.189,0,.378,0,.566,0,.1,0,.217-.146.211s-.133-.125-.134-.224C2727.126,54.8,2727.128,54.594,2727.128,54.393Z" fill="#fff"/>
    <path id="Path_1546" data-name="Path 1546" d="M2731.365,54.4c0,.2,0,.406,0,.609,0,.1.01.216-.144.21-.122,0-.134-.1-.134-.19,0-.405,0-.811,0-1.216,0-.091.017-.184.136-.191.16-.01.142.109.142.208C2731.366,54.023,2731.365,54.213,2731.365,54.4Z" fill="#fff"/>
    <path id="Path_1547" data-name="Path 1547" d="M2716.836,53.5c.1-.135-.044-.414.249-.46.1-.015.138.062.1.146-.078.176-.042.427-.247.512C2716.806,53.753,2716.851,53.6,2716.836,53.5Z" fill="#fff"/>
    <path id="Path_1548" data-name="Path 1548" d="M2731.234,53.4c-.133-.009-.153-.1-.151-.208s.05-.187.178-.18.132.091.132.183C2731.391,53.3,2731.368,53.4,2731.234,53.4Z" fill="#fff"/>
  </g>
</svg>
