<svg xmlns="http://www.w3.org/2000/svg" width="32.169" height="32.169" viewBox="0 0 32.169 32.169">
  <g id="Group_251" data-name="Group 251" transform="translate(-2574.175 -26)">
    <path id="Path_1470" data-name="Path 1470" d="M2590.259,26a16.084,16.084,0,1,0,16.085,16.085A16.084,16.084,0,0,0,2590.259,26Zm9.2,4.987a24.03,24.03,0,0,0-2.456,1.665c-.125.1-.254.2-.385.3a21.918,21.918,0,0,0-2.757-2.826,21.107,21.107,0,0,0-1.83-1.407q-.477-.328-.972-.63c-.186-.114-.6-.354-.724-.422A14.354,14.354,0,0,1,2599.462,30.987Zm-9.17-2.472a20.792,20.792,0,0,1,3.7,2.752,21.992,21.992,0,0,1,2.043,2.171,18.79,18.79,0,0,0-3.915,4.525c-.1-.005-.2-.007-.3-.007h-3.3a18.838,18.838,0,0,0-3.953-4.554,21.323,21.323,0,0,1,4.951-4.414C2589.6,28.932,2590.221,28.474,2590.292,28.515Zm-8.168,19.8h-2.494c.025-1.558.06-3.115.1-3.49q.132-1.117.374-2.217a21.975,21.975,0,0,1,2.382-6.195,21.689,21.689,0,0,1,1.194-1.864q.195-.271.4-.537a18.194,18.194,0,0,1,3.571,4.015,6.682,6.682,0,0,0-3.952,2.133,6.268,6.268,0,0,0-1.617,4.195Zm8.122-20.651c-.116.066-.537.306-.725.421a21.772,21.772,0,0,0-3.616,2.761,21.948,21.948,0,0,0-1.585,1.659q-.172.2-.341.407c-.115-.092-.228-.18-.338-.264a23.865,23.865,0,0,0-2.532-1.709A14.357,14.357,0,0,1,2590.246,27.668Zm-11.234,16.774q-.148,1.132-.187,2.275c0,.12-.007.239-.01.359-.006.318.015,3.37,0,3.425v.354a14.413,14.413,0,0,1,1.669-19.369,23.241,23.241,0,0,1,3.007,2.045q-.312.408-.6.828c-.406.584-.783,1.188-1.132,1.807s-.674,1.268-.965,1.923-.556,1.34-.786,2.028-.433,1.4-.6,2.121S2579.109,43.7,2579.012,44.442Zm8.349,9.889a.541.541,0,0,1-.143.188.641.641,0,0,1-.206.107.8.8,0,0,1-.24.036,1.121,1.121,0,0,1-.282-.038,1.4,1.4,0,0,1-.264-.1,2.141,2.141,0,0,1-.338.1,1.757,1.757,0,0,1-.339.038h-.278l-.055-.036v-.341l.055-.034h.429c.045,0,.089,0,.13-.008a.559.559,0,0,1-.083-.162.751.751,0,0,1-.023-.2.727.727,0,0,1,.037-.224.642.642,0,0,1,.107-.187.5.5,0,0,1,.163-.131.456.456,0,0,1,.415,0,.481.481,0,0,1,.163.131.637.637,0,0,1,.107.187.649.649,0,0,1,.037.224.62.62,0,0,1-.028.2.482.482,0,0,1-.088.167.518.518,0,0,0,.057,0h.059a.887.887,0,0,0,.181-.016.473.473,0,0,0,.111-.041.139.139,0,0,0,.056-.05.111.111,0,0,0,.016-.05.82.82,0,0,0-.044-.238.973.973,0,0,0-.145-.272,1.372,1.372,0,0,0-.262-.268,1.414,1.414,0,0,0-.4-.21l.153-.342a1.866,1.866,0,0,1,.435.24,1.556,1.556,0,0,1,.314.314,1.377,1.377,0,0,1,.188.36,1.164,1.164,0,0,1,.063.373A.626.626,0,0,1,2587.361,54.331Zm1.405.331h-.309c0-.169-.014-.337-.03-.51s-.036-.346-.064-.516-.061-.338-.1-.5-.081-.322-.127-.472l.389-.12c.04.117.075.246.109.387s.06.288.081.439.04.3.052.458.02.3.02.443A3.448,3.448,0,0,1,2588.766,54.662Zm.1-6.5c-.388.432-1.189,1.222-1.434,1.5s-1.231.264-1.231.264.808-.671,1.255-1a16.974,16.974,0,0,0,1.6-1.688c.329-.355.892-1.06,1.053-1.263s.673-.738.673-.738.291.538-.454,1.432C2590.019,47.032,2589.252,47.726,2588.865,48.158Zm-.721-1.47c.131-.1.124-.284.129-.455.009-.3-.167-.574.112-.81a.774.774,0,0,1,.788-.164c.533.342-.259,1.138-.5,1.411a4.28,4.28,0,0,1-1.008.833c-.225.13-.822.562-1.074.335a.275.275,0,0,1-.067-.135,2.5,2.5,0,0,1,.619-2.147,7.43,7.43,0,0,1,.945-1.051c.052-.047.221-.232.292-.238.007,0-.006.022-.022.047a.428.428,0,0,0-.036.052,15.187,15.187,0,0,0-1.183,2.356C2587.125,47.071,2587.933,46.848,2588.144,46.688Zm1.6,2.014a.117.117,0,0,1,.063-.022l1.427-.147c.619-.062.815-.889.549-1.116s-.522-.3-.558-.749c-.018-.21.308-1.044,1.058-.66a1.76,1.76,0,0,0,.848.183l0-.165-.065-.72c-.482.1-.356-.241-.3-.4s.234-.114.666-.305a2.823,2.823,0,0,1,.617-.253c0-.018.018,0,0,0l.1.738a.127.127,0,0,1-.095.133,1.32,1.32,0,0,0-.211.05c-.108.043-.077.085-.074.2a3.26,3.26,0,0,1-.057.7.833.833,0,0,1-.13.351c-.158.213-.439.256-.624.434a7.063,7.063,0,0,0-.542.592,2.328,2.328,0,0,0-.246.736c-.119.617-1.6,1.145-2.327,1.148C2588.784,49.438,2589.585,48.824,2589.749,48.7Zm2.307-4.24c.61-.412.684-.5.661-.225l-.011.14a.265.265,0,0,1-.11.195,1.091,1.091,0,0,0-.347.46C2592.082,45.435,2591.446,44.876,2592.056,44.462Zm-1.037,10.186c-.08.014-.157.024-.236.03s-.157.012-.23.012a1.024,1.024,0,0,1-.572-.133.452.452,0,0,1-.191-.393.552.552,0,0,1,.088-.3.667.667,0,0,1,.24-.234.517.517,0,0,1-.266-.143.333.333,0,0,1-.1-.246.435.435,0,0,1,.083-.25.856.856,0,0,1,.23-.221,1.515,1.515,0,0,1,.343-.164,1.893,1.893,0,0,1,.427-.094l-.081.388a2,2,0,0,0-.256.057,1.1,1.1,0,0,0-.21.083.579.579,0,0,0-.143.1.153.153,0,0,0-.052.1c0,.053.042.1.123.127a1,1,0,0,0,.337.045h.122a.271.271,0,0,0,.077-.009l-.036.338a1.154,1.154,0,0,0-.433.125.264.264,0,0,0-.152.224c0,.064.041.113.124.149a.929.929,0,0,0,.358.052c.077,0,.161,0,.248-.012a2.208,2.208,0,0,0,.234-.032Zm1.943-1.7c-.076-.008-.149-.016-.222-.02s-.149-.008-.224-.008a3.428,3.428,0,0,0-.4.022c.024.1.048.209.07.322s.038.226.052.341.025.228.033.341.012.219.012.318a3.448,3.448,0,0,1-.022.4h-.309a7.567,7.567,0,0,0-.09-1.01,6.6,6.6,0,0,0-.22-.961l.25-.133a2.8,2.8,0,0,1,.29-.034q.146-.012.3-.012c.087,0,.178,0,.269.012s.179.016.263.028Zm1.929.05c-.047.141-.1.3-.153.472l-.172.564c-.062.2-.125.409-.187.625h-.327q-.1-.3-.185-.562c-.062-.176-.121-.345-.182-.51s-.125-.323-.191-.478-.133-.312-.2-.471l.39-.125c.039.094.083.2.131.33s.095.258.144.4.1.28.143.422.087.276.125.4c.062-.269.129-.533.2-.79s.141-.51.216-.762l.375.125Q2594.96,52.786,2594.891,53Zm6.032-1.391h0v.175h0a14.6,14.6,0,0,1-1.714,1.6v-2.11h-3.48v-6.02a4.281,4.281,0,0,0-4.283-4.282h-2.508a4.283,4.283,0,0,0-4.283,4.282v6.02h-3.445v2.029a14.52,14.52,0,0,1-1.628-1.539c.006-.353.018-1.362.034-2.51h3.445l-.008-.939-.032-3.969a5.6,5.6,0,0,1,5.7-5.475h3.045a5.6,5.6,0,0,1,5.694,5.484v4.9h3.478C2600.93,50.318,2600.925,51.368,2600.923,51.61Zm.013-3.291h-2.545v-3.96a6.425,6.425,0,0,0-4.306-6l-.007,0-.09-.031-.086-.03a6.909,6.909,0,0,0-.924-.233,18.445,18.445,0,0,1,3.548-4q.279.37.539.754a23.347,23.347,0,0,1,1.674,2.89,21.8,21.8,0,0,1,1.151,2.894,22.283,22.283,0,0,1,.737,3.048,22.666,22.666,0,0,1,.308,3.163C2600.938,46.941,2600.938,47.562,2600.936,48.319Zm.612-3.62a23.032,23.032,0,0,0-1.52-5.956,22.709,22.709,0,0,0-1.306-2.7q-.367-.648-.778-1.27c-.262-.4-.539-.794-.828-1.181l-.008-.01a23.491,23.491,0,0,1,2.972-2.047,14.415,14.415,0,0,1,1.614,19.333c0-1.213.007-2.886.009-2.976A23.589,23.589,0,0,0,2601.548,44.7Z" fill="#fff"/>
    <ellipse id="Ellipse_46" data-name="Ellipse 46" cx="0.187" cy="0.231" rx="0.187" ry="0.231" transform="translate(2586.049 53.64)" fill="#fff"/>
  </g>
</svg>
