<svg xmlns="http://www.w3.org/2000/svg" width="93.608" height="32.169" viewBox="0 0 93.608 32.169">
  <g id="logo_2_ar" transform="translate(-2512.736 -26)">
    <g id="Group_338" data-name="Group 338" transform="translate(-600 -631.147)">
      <g id="Group_340" data-name="Group 340" transform="translate(0 1)">
        <path id="Path_1600" data-name="Path 1600" d="M3125.49,670.485l1.785-.021v-3.807l-1.785.021a1.677,1.677,0,0,0-1.176.508,1.522,1.522,0,0,0-.462,1.163v.487a1.622,1.622,0,0,0,.483,1.173A1.483,1.483,0,0,0,3125.49,670.485Zm-.861-2.136a.967.967,0,0,1,.252-.677.851.851,0,0,1,.63-.253l.966-.021.021,2.389h-.987a.816.816,0,0,1-.62-.285.953.953,0,0,1-.262-.666Z" fill="#fff"/>
        <path id="Path_1601" data-name="Path 1601" d="M3125.07,665.9h.756v-.8a.06.06,0,0,0-.042-.021h-.714a.06.06,0,0,0-.042.021v.719C3125.028,665.868,3125.042,665.9,3125.07,665.9Z" fill="#fff"/>
        <path id="Path_1602" data-name="Path 1602" d="M3126.2,665.9h.756v-.8l-.021-.021h-.735a.06.06,0,0,0-.042.021v.719C3126.162,665.868,3126.176,665.9,3126.2,665.9Z" fill="#fff"/>
        <path id="Path_1603" data-name="Path 1603" d="M3134.4,672.05h.021v-.8l-.021-.022h-.735a.055.055,0,0,0-.042.022v.719c0,.056.013.084.042.084Z" fill="#fff"/>
        <path id="Path_1604" data-name="Path 1604" d="M3133.243,672.05h.042v-.8a.061.061,0,0,0-.042-.022h-.714a.055.055,0,0,0-.042.022v.719c0,.056.013.084.042.084Z" fill="#fff"/>
        <path id="Path_1605" data-name="Path 1605" d="M3139.06,666.985a.791.791,0,0,0-.567-.222h-.861a1.6,1.6,0,0,0-1.6,1.65l.021.972v.085a.877.877,0,0,1-.252.243.785.785,0,0,1-.336.053h-1.512v-3.088l-.651.275a.271.271,0,0,0-.189.254l.021,2.559h-3.86V666.8l-.63.212a.308.308,0,0,0-.147.254v3.172a1.015,1.015,0,0,1-1.134,1.163h-.147l-.273.656a2.6,2.6,0,0,0,.651.063,1.626,1.626,0,0,0,1.239-.465,1.961,1.961,0,0,0,.441-1.4h6.191a1.489,1.489,0,0,0,.861-.275.929.929,0,0,0,.693.275h1.344a.886.886,0,0,0,.714-.3,1.166,1.166,0,0,0,.252-.783c0-.817-.008-1.43-.021-1.839A.819.819,0,0,0,3139.06,666.985Zm-.693,2.781H3137q-.252,0-.252-.381v-.972a.9.9,0,0,1,.273-.656.886.886,0,0,1,.651-.275h.693a.2.2,0,0,1,.21.148l.042,1.755Q3138.619,669.766,3138.367,669.766Z" fill="#fff"/>
        <path id="Path_1606" data-name="Path 1606" d="M3144.192,670.062a1.48,1.48,0,0,0,.441-1.121V664.7l-.672.275a.248.248,0,0,0-.147.253v3.61q0,.951-.819.951h-.189l-1.05-4.5h-.84l1.05,4.5h-1.827v.677h2.94A1.588,1.588,0,0,0,3144.192,670.062Z" fill="#fff"/>
        <path id="Path_1607" data-name="Path 1607" d="M3140.79,664.86l1.344-.423-.126-.466-.546.191q-.336-.148-.336-.36c0-.127.126-.19.378-.19a1,1,0,0,1,.231.021l.021-.465a1.438,1.438,0,0,0-.273-.021.969.969,0,0,0-.609.179.554.554,0,0,0-.231.455.685.685,0,0,0,.294.55l-.315.106Z" fill="#fff"/>
        <path id="Path_1608" data-name="Path 1608" d="M3146.2,664.69l-.63.275a.273.273,0,0,0-.189.254v5.245h.819Z" fill="#fff"/>
        <path id="Path_1609" data-name="Path 1609" d="M3149.5,665.9h.756v-.8a.061.061,0,0,0-.042-.021h-.714a.061.061,0,0,0-.042.021v.719C3149.463,665.868,3149.477,665.9,3149.5,665.9Z" fill="#fff"/>
        <path id="Path_1610" data-name="Path 1610" d="M3150.639,665.9h.756v-.8l-.021-.021h-.735a.061.061,0,0,0-.042.021v.719C3150.6,665.868,3150.611,665.9,3150.639,665.9Z" fill="#fff"/>
        <path id="Path_1611" data-name="Path 1611" d="M3162.489,670.464a.884.884,0,0,0,.714-.3,1.165,1.165,0,0,0,.252-.783q0-1.226-.021-1.839a.82.82,0,0,0-.252-.561.786.786,0,0,0-.567-.222h-.861a1.6,1.6,0,0,0-1.6,1.65l.021.972v.085a.853.853,0,0,1-.252.243.779.779,0,0,1-.336.053h-1.665a5.807,5.807,0,0,0,.315-1.713,1.817,1.817,0,0,0-.273-1.1,1.282,1.282,0,0,0-1.092-.444,4.211,4.211,0,0,0-1.05.148l-.9.212-.252.825.651,2.072h-3.465v-3.109l-1.785.021a1.677,1.677,0,0,0-1.176.508,1.522,1.522,0,0,0-.462,1.163v.487a1.626,1.626,0,0,0,.483,1.173,1.483,1.483,0,0,0,1.155.476l1.785-.021h7.734a1.483,1.483,0,0,0,.861-.275.933.933,0,0,0,.693.275Zm-11.64-.7v.021h-.756a.814.814,0,0,1-.619-.285.954.954,0,0,1-.263-.666v-.487a.968.968,0,0,1,.252-.677.852.852,0,0,1,.63-.253l.966-.021.021,2.368Zm6.489-.761a1.439,1.439,0,0,1-.263.581.737.737,0,0,1-.43.18h-.546l-.672-2.03.1-.275a2.5,2.5,0,0,1,.346-.116,1.4,1.4,0,0,1,.347-.053,2.411,2.411,0,0,1,.483-.064.821.821,0,0,1,.609.212.866.866,0,0,1,.168.613A3.431,3.431,0,0,1,3157.338,669.005Zm3.534.38v-.972a.9.9,0,0,1,.273-.656.886.886,0,0,1,.651-.275h.693a.2.2,0,0,1,.21.148l.042,1.755q0,.381-.252.381h-1.365Q3160.872,669.766,3160.872,669.385Z" fill="#fff"/>
        <path id="Path_1612" data-name="Path 1612" d="M3169.908,670.993h-.714q-.063,0-.063.021v.74q0,.042.063.042h.714a.037.037,0,0,0,.042-.042v-.74c0-.014,0-.021-.011-.021Z" fill="#fff"/>
        <path id="Path_1613" data-name="Path 1613" d="M3166.345,670.464H3171l-.084-.7h-.273v-1.48a1.729,1.729,0,0,0-.462-1.184,1.49,1.49,0,0,0-1.134-.466,3.117,3.117,0,0,0-.557.074q-.367.075-.64.159l.126.655a5.2,5.2,0,0,1,1.092-.169.785.785,0,0,1,.609.254.967.967,0,0,1,.231.677l.021,1.48h-4.55V664.69l-.63.275a.273.273,0,0,0-.189.254v5.245h1.785Z" fill="#fff"/>
      </g>
      <g id="Group_339" data-name="Group 339" transform="translate(50 10)">
        <path id="Path_1614" data-name="Path 1614" d="M3064.528,666.508c-.043,0-.064.008-.064.022v.752c0,.029.021.043.064.043h.725a.037.037,0,0,0,.042-.043v-.752c0-.014,0-.022-.01-.022h-.757Z" fill="#fff"/>
        <path id="Path_1615" data-name="Path 1615" d="M3076.794,669.687h-.277v-1.5a1.765,1.765,0,0,0-.469-1.2,1.519,1.519,0,0,0-1.152-.473,3.149,3.149,0,0,0-.565.076q-.374.075-.651.161l.128.666a5.2,5.2,0,0,1,1.109-.172.8.8,0,0,1,.619.257.985.985,0,0,1,.234.688l.022,1.5h-2.774a.8.8,0,0,1-.342-.053.743.743,0,0,1-.234-.226V669.3c0-.831-.008-1.453-.022-1.869a.827.827,0,0,0-.256-.569.8.8,0,0,0-.575-.226h-.875a1.628,1.628,0,0,0-1.621,1.676l.021.988v.086a.883.883,0,0,1-.256.247.8.8,0,0,1-.341.053h-1.174v-1.782l-.64.279a.257.257,0,0,0-.213.257l.021.838v.9a6.11,6.11,0,0,1-.053.935.911.911,0,0,1-.245.5,1.187,1.187,0,0,1-.534.29,2.624,2.624,0,0,1-.725.1,2.313,2.313,0,0,1-.714-.107.835.835,0,0,1-.459-.3,1.74,1.74,0,0,1-.277-1.095,5.48,5.48,0,0,1,.362-1.891l-.768-.021a5.378,5.378,0,0,0-.362,1.89,2.441,2.441,0,0,0,.469,1.611,1.624,1.624,0,0,0,.736.462,3.315,3.315,0,0,0,1.056.161,3.556,3.556,0,0,0,1.045-.15,1.645,1.645,0,0,0,.746-.43,1.425,1.425,0,0,0,.4-.655,5.177,5.177,0,0,0,.16-1.085h1.174a1.516,1.516,0,0,0,.875-.279.948.948,0,0,0,.7.279h1.365a.95.95,0,0,0,.7-.279,1.36,1.36,0,0,0,.854.279h3.861Zm-5.334,0h-1.386c-.17,0-.256-.129-.256-.386v-.988a.915.915,0,0,1,.277-.666.9.9,0,0,1,.662-.279h.7a.2.2,0,0,1,.214.15l.042,1.783C3071.716,669.558,3071.631,669.687,3071.46,669.687Z" fill="#fff"/>
        <path id="Path_1616" data-name="Path 1616" d="M3080.048,665.069v4.618h-1.325V666.68l-.64.215a.311.311,0,0,0-.149.258v3.222a1.031,1.031,0,0,1-1.152,1.181h-.15l-.277.666a2.629,2.629,0,0,0,.661.064,1.651,1.651,0,0,0,1.259-.472,2,2,0,0,0,.448-1.418h2.157v-5.864l-.64.28A.276.276,0,0,0,3080.048,665.069Z" fill="#fff"/>
        <path id="Path_1617" data-name="Path 1617" d="M3081.656,665.069V670.4h.832v-5.864l-.64.28A.276.276,0,0,0,3081.656,665.069Z" fill="#fff"/>
        <path id="Path_1618" data-name="Path 1618" d="M3089.109,671.169h-.725c-.043,0-.064.007-.064.022v.752c0,.028.021.043.064.043h.725a.038.038,0,0,0,.042-.043v-.752c0-.015,0-.022-.01-.022Z" fill="#fff"/>
        <path id="Path_1619" data-name="Path 1619" d="M3091.979,669.505a1.224,1.224,0,0,1-.288-.548,3.753,3.753,0,0,1-.235-1.074q0-.622.7-.623a4.514,4.514,0,0,1,1.109.193l.128-.751a5.542,5.542,0,0,0-1.322-.194,1.378,1.378,0,0,0-1.035.344,1.471,1.471,0,0,0-.331,1.053,7.115,7.115,0,0,0,.3,1.782h-1.771v-3.136l-.661.28a.276.276,0,0,0-.192.257l.021,2.6h-1.536V668.42a2.09,2.09,0,0,0-.5-1.407,1.586,1.586,0,0,0-1.227-.526,2.746,2.746,0,0,0-1.472.473l.192.665a2.317,2.317,0,0,1,1.174-.386.921.921,0,0,1,.714.29,1.22,1.22,0,0,1,.288.8l.043,1.332h-2.773v.73h10.431v-.709q-.981,0-1.29-.021A.777.777,0,0,1,3091.979,669.505Z" fill="#fff"/>
        <path id="Path_1620" data-name="Path 1620" d="M3099.507,665.8v-.731a.038.038,0,0,0-.043-.043h-.746c-.015,0-.021,0-.021.011v.763c0,.043.006.064.021.064h.746C3099.493,665.864,3099.507,665.843,3099.507,665.8Z" fill="#fff"/>
        <path id="Path_1621" data-name="Path 1621" d="M3098.313,665.864c.014,0,.021-.021.021-.064v-.763c0-.007-.007-.011-.021-.011h-.747a.038.038,0,0,0-.043.043v.731c0,.043.014.064.043.064Z" fill="#fff"/>
        <path id="Path_1622" data-name="Path 1622" d="M3104.051,665.907a.037.037,0,0,0,.042-.043v-.752c0-.014,0-.021-.01-.021h-.758c-.042,0-.064.007-.064.021v.752c0,.029.022.043.064.043Z" fill="#fff"/>
        <path id="Path_1623" data-name="Path 1623" d="M3106.4,671.126h-.725c-.043,0-.064.008-.064.022v.752c0,.028.021.043.064.043h.725a.038.038,0,0,0,.043-.043v-.752c0-.014,0-.022-.011-.022Z" fill="#fff"/>
        <path id="Path_1624" data-name="Path 1624" d="M3106.035,667.088l.021,2.6H3104.2v-3.136l-.661.28a.276.276,0,0,0-.192.257l.021,2.6h-1.856v-3.136l-.661.28a.276.276,0,0,0-.192.257l.021,2.6H3097.4a1.115,1.115,0,0,1-.853-.279,1.353,1.353,0,0,1-.256-.923,6.589,6.589,0,0,1,.064-.86h-.682a4.647,4.647,0,0,0-.15,1.117q0,1.654,1.792,1.654h9.578v-3.845l-.661.28A.276.276,0,0,0,3106.035,667.088Z" fill="#fff"/>
        <path id="Path_1625" data-name="Path 1625" d="M3112.3,666.53l-1.813.021a1.7,1.7,0,0,0-1.194.516,1.542,1.542,0,0,0-.47,1.181v.494a1.652,1.652,0,0,0,.491,1.192,1.507,1.507,0,0,0,1.173.484l1.813-.022Zm-1.792,3.179a.83.83,0,0,1-.629-.29.967.967,0,0,1-.266-.677v-.494a.977.977,0,0,1,.256-.687.861.861,0,0,1,.639-.258l.982-.021.021,2.427Z" fill="#fff"/>
        <path id="Path_1626" data-name="Path 1626" d="M3111.174,664.94v.731c0,.057.014.086.042.086h.768v-.817l-.021-.021h-.747A.06.06,0,0,0,3111.174,664.94Z" fill="#fff"/>
        <path id="Path_1627" data-name="Path 1627" d="M3110.022,664.94v.731c0,.057.014.086.043.086h.767v-.817a.061.061,0,0,0-.042-.021h-.725A.061.061,0,0,0,3110.022,664.94Z" fill="#fff"/>
        <path id="Path_1628" data-name="Path 1628" d="M3113.55,667.153v3.222a1.031,1.031,0,0,1-1.152,1.181h-.149l-.278.666a2.629,2.629,0,0,0,.661.064,1.652,1.652,0,0,0,1.259-.472,2,2,0,0,0,.448-1.418V666.68l-.64.215A.312.312,0,0,0,3113.55,667.153Z" fill="#fff"/>
        <path id="Path_1629" data-name="Path 1629" d="M3121.011,667.088l.021,2.6h-2.547v-3.093l-1.578-.021a1.576,1.576,0,0,0-1.28.6,2.071,2.071,0,0,0-.427,1.332,2.038,2.038,0,0,0,.427,1.31,1.521,1.521,0,0,0,1.28.58h.789a1.236,1.236,0,0,1-.277.849,1.118,1.118,0,0,1-.875.311h-.149l-.277.666a2.619,2.619,0,0,0,.661.064,1.649,1.649,0,0,0,1.258-.472,1.958,1.958,0,0,0,.448-1.4V670.4h3.379v-3.845l-.661.28A.276.276,0,0,0,3121.011,667.088Zm-3.315,2.6h-.789a.809.809,0,0,1-.683-.343,1.365,1.365,0,0,1-.256-.838,1.529,1.529,0,0,1,.256-.816.761.761,0,0,1,.683-.365h.789Z" fill="#fff"/>
        <path id="Path_1630" data-name="Path 1630" d="M3120.862,665.091c-.043,0-.064.007-.064.021v.752c0,.029.021.043.064.043h.725a.037.037,0,0,0,.042-.043v-.752c0-.014,0-.021-.01-.021h-.757Z" fill="#fff"/>
      </g>
    </g>
    <g id="Group_300" data-name="Group 300">
      <path id="Path_1511" data-name="Path 1511" d="M2590.259,26a16.084,16.084,0,1,0,16.085,16.085A16.084,16.084,0,0,0,2590.259,26Zm9.2,4.987a24.03,24.03,0,0,0-2.456,1.665c-.125.1-.254.2-.385.3a21.918,21.918,0,0,0-2.757-2.826,21.107,21.107,0,0,0-1.83-1.407q-.477-.328-.972-.63c-.186-.114-.6-.354-.724-.422A14.354,14.354,0,0,1,2599.462,30.987Zm-9.17-2.472a20.792,20.792,0,0,1,3.7,2.752,21.992,21.992,0,0,1,2.043,2.171,18.79,18.79,0,0,0-3.915,4.525c-.1-.005-.2-.007-.3-.007h-3.3a18.838,18.838,0,0,0-3.953-4.554,21.323,21.323,0,0,1,4.951-4.414C2589.6,28.932,2590.221,28.474,2590.292,28.515Zm-8.168,19.8h-2.494c.025-1.558.06-3.115.1-3.49q.132-1.117.374-2.217a21.975,21.975,0,0,1,2.382-6.195,21.689,21.689,0,0,1,1.194-1.864q.195-.271.4-.537a18.194,18.194,0,0,1,3.571,4.015,6.682,6.682,0,0,0-3.952,2.133,6.268,6.268,0,0,0-1.617,4.195Zm8.122-20.651c-.116.066-.537.306-.725.421a21.772,21.772,0,0,0-3.616,2.761,21.948,21.948,0,0,0-1.585,1.659q-.172.2-.341.407c-.115-.092-.228-.18-.338-.264a23.865,23.865,0,0,0-2.532-1.709A14.357,14.357,0,0,1,2590.246,27.668Zm-11.234,16.774q-.148,1.132-.187,2.275c0,.12-.007.239-.01.359-.006.318.015,3.37,0,3.425v.354a14.413,14.413,0,0,1,1.669-19.369,23.241,23.241,0,0,1,3.007,2.045q-.312.408-.6.828c-.406.584-.783,1.188-1.132,1.807s-.674,1.268-.965,1.923-.556,1.34-.786,2.028-.433,1.4-.6,2.121S2579.109,43.7,2579.012,44.442Zm8.349,9.889a.541.541,0,0,1-.143.188.641.641,0,0,1-.206.107.8.8,0,0,1-.24.036,1.121,1.121,0,0,1-.282-.038,1.4,1.4,0,0,1-.264-.1,2.141,2.141,0,0,1-.338.1,1.757,1.757,0,0,1-.339.038h-.278l-.055-.036v-.341l.055-.034h.429c.045,0,.089,0,.13-.008a.559.559,0,0,1-.083-.162.751.751,0,0,1-.023-.2.727.727,0,0,1,.037-.224.642.642,0,0,1,.107-.187.5.5,0,0,1,.163-.131.456.456,0,0,1,.415,0,.481.481,0,0,1,.163.131.637.637,0,0,1,.107.187.649.649,0,0,1,.037.224.62.62,0,0,1-.028.2.482.482,0,0,1-.088.167.518.518,0,0,0,.057,0h.059a.887.887,0,0,0,.181-.016.473.473,0,0,0,.111-.041.139.139,0,0,0,.056-.05.111.111,0,0,0,.016-.05.82.82,0,0,0-.044-.238.973.973,0,0,0-.145-.272,1.372,1.372,0,0,0-.262-.268,1.414,1.414,0,0,0-.4-.21l.153-.342a1.866,1.866,0,0,1,.435.24,1.556,1.556,0,0,1,.314.314,1.377,1.377,0,0,1,.188.36,1.164,1.164,0,0,1,.063.373A.626.626,0,0,1,2587.361,54.331Zm1.405.331h-.309c0-.169-.014-.337-.03-.51s-.036-.346-.064-.516-.061-.338-.1-.5-.081-.322-.127-.472l.389-.12c.04.117.075.246.109.387s.06.288.081.439.04.3.052.458.02.3.02.443A3.448,3.448,0,0,1,2588.766,54.662Zm.1-6.5c-.388.432-1.189,1.222-1.434,1.5s-1.231.264-1.231.264.808-.671,1.255-1a16.974,16.974,0,0,0,1.6-1.688c.329-.355.892-1.06,1.053-1.263s.673-.738.673-.738.291.538-.454,1.432C2590.019,47.032,2589.252,47.726,2588.865,48.158Zm-.721-1.47c.131-.1.124-.284.129-.455.009-.3-.167-.574.112-.81a.774.774,0,0,1,.788-.164c.533.342-.259,1.138-.5,1.411a4.28,4.28,0,0,1-1.008.833c-.225.13-.822.562-1.074.335a.275.275,0,0,1-.067-.135,2.5,2.5,0,0,1,.619-2.147,7.43,7.43,0,0,1,.945-1.051c.052-.047.221-.232.292-.238.007,0-.006.022-.022.047a.428.428,0,0,0-.036.052,15.187,15.187,0,0,0-1.183,2.356C2587.125,47.071,2587.933,46.848,2588.144,46.688Zm1.6,2.014a.117.117,0,0,1,.063-.022l1.427-.147c.619-.062.815-.889.549-1.116s-.522-.3-.558-.749c-.018-.21.308-1.044,1.058-.66a1.76,1.76,0,0,0,.848.183l0-.165-.065-.72c-.482.1-.356-.241-.3-.4s.234-.114.666-.305a2.823,2.823,0,0,1,.617-.253c0-.018.018,0,0,0l.1.738a.127.127,0,0,1-.095.133,1.32,1.32,0,0,0-.211.05c-.108.043-.077.085-.074.2a3.26,3.26,0,0,1-.057.7.833.833,0,0,1-.13.351c-.158.213-.439.256-.624.434a7.063,7.063,0,0,0-.542.592,2.328,2.328,0,0,0-.246.736c-.119.617-1.6,1.145-2.327,1.148C2588.784,49.438,2589.585,48.824,2589.749,48.7Zm2.307-4.24c.61-.412.684-.5.661-.225l-.011.14a.265.265,0,0,1-.11.195,1.091,1.091,0,0,0-.347.46C2592.082,45.435,2591.446,44.876,2592.056,44.462Zm-1.037,10.186c-.08.014-.157.024-.236.03s-.157.012-.23.012a1.024,1.024,0,0,1-.572-.133.452.452,0,0,1-.191-.393.552.552,0,0,1,.088-.3.667.667,0,0,1,.24-.234.517.517,0,0,1-.266-.143.333.333,0,0,1-.1-.246.435.435,0,0,1,.083-.25.856.856,0,0,1,.23-.221,1.515,1.515,0,0,1,.343-.164,1.893,1.893,0,0,1,.427-.094l-.081.388a2,2,0,0,0-.256.057,1.1,1.1,0,0,0-.21.083.579.579,0,0,0-.143.1.153.153,0,0,0-.052.1c0,.053.042.1.123.127a1,1,0,0,0,.337.045h.122a.271.271,0,0,0,.077-.009l-.036.338a1.154,1.154,0,0,0-.433.125.264.264,0,0,0-.152.224c0,.064.041.113.124.149a.929.929,0,0,0,.358.052c.077,0,.161,0,.248-.012a2.208,2.208,0,0,0,.234-.032Zm1.943-1.7c-.076-.008-.149-.016-.222-.02s-.149-.008-.224-.008a3.428,3.428,0,0,0-.4.022c.024.1.048.209.07.322s.038.226.052.341.025.228.033.341.012.219.012.318a3.448,3.448,0,0,1-.022.4h-.309a7.567,7.567,0,0,0-.09-1.01,6.6,6.6,0,0,0-.22-.961l.25-.133a2.8,2.8,0,0,1,.29-.034q.146-.012.3-.012c.087,0,.178,0,.269.012s.179.016.263.028Zm1.929.05c-.047.141-.1.3-.153.472l-.172.564c-.062.2-.125.409-.187.625h-.327q-.1-.3-.185-.562c-.062-.176-.121-.345-.182-.51s-.125-.323-.191-.478-.133-.312-.2-.471l.39-.125c.039.094.083.2.131.33s.095.258.144.4.1.28.143.422.087.276.125.4c.062-.269.129-.533.2-.79s.141-.51.216-.762l.375.125Q2594.96,52.786,2594.891,53Zm6.032-1.391h0v.175h0a14.6,14.6,0,0,1-1.714,1.6v-2.11h-3.48v-6.02a4.281,4.281,0,0,0-4.283-4.282h-2.508a4.283,4.283,0,0,0-4.283,4.282v6.02h-3.445v2.029a14.52,14.52,0,0,1-1.628-1.539c.006-.353.018-1.362.034-2.51h3.445l-.008-.939-.032-3.969a5.6,5.6,0,0,1,5.7-5.475h3.045a5.6,5.6,0,0,1,5.694,5.484v4.9h3.478C2600.93,50.318,2600.925,51.368,2600.923,51.61Zm.013-3.291h-2.545v-3.96a6.425,6.425,0,0,0-4.306-6l-.007,0-.09-.031-.086-.03a6.909,6.909,0,0,0-.924-.233,18.445,18.445,0,0,1,3.548-4q.279.37.539.754a23.347,23.347,0,0,1,1.674,2.89,21.8,21.8,0,0,1,1.151,2.894,22.283,22.283,0,0,1,.737,3.048,22.666,22.666,0,0,1,.308,3.163C2600.938,46.941,2600.938,47.562,2600.936,48.319Zm.612-3.62a23.032,23.032,0,0,0-1.52-5.956,22.709,22.709,0,0,0-1.306-2.7q-.367-.648-.778-1.27c-.262-.4-.539-.794-.828-1.181l-.008-.01a23.491,23.491,0,0,1,2.972-2.047,14.415,14.415,0,0,1,1.614,19.333c0-1.213.007-2.886.009-2.976A23.589,23.589,0,0,0,2601.548,44.7Z" fill="#fff"/>
      <ellipse id="Ellipse_46" data-name="Ellipse 46" cx="0.187" cy="0.231" rx="0.187" ry="0.231" transform="translate(2586.049 53.64)" fill="#fff"/>
    </g>
  </g>
</svg>
