<svg xmlns="http://www.w3.org/2000/svg" width="176.602" height="79.62" viewBox="0 0 176.602 79.62">
  <g id="Group_343" data-name="Group 343" transform="translate(-4208.7 303.719)">
    <g id="Group_342" data-name="Group 342" transform="translate(4208.7 -302.719)">
      <path id="Path_2145" data-name="Path 2145" d="M433.2,436.385c0-3.768,2.351-6.39,6.239-6.842l8.982-1.115v-1.115a1.793,1.793,0,0,0-1.959-2.05H435.189V420.5h11.484c4.551,0,7.053,2.2,7.053,6.149v16.1h-5.335V440a8.711,8.711,0,0,1-7.415,3.376c-4.612-.03-7.777-2.833-7.777-6.993m9.1,2.713a6.578,6.578,0,0,0,6.119-3.738v-2.833l-6.842.965c-1.9.271-2.954,1.266-2.954,2.863-.03,1.748,1.326,2.743,3.677,2.743" transform="translate(-433.2 -394.584)" fill="#502c84"/>
      <path id="Path_2146" data-name="Path 2146" d="M266.255,441.88c-7.023,0-11.755-4.943-11.755-11.785,0-6.812,4.732-11.695,11.755-11.695,5.516,0,9.585,3.044,10.791,8.59h-5.365a5.453,5.453,0,0,0-5.426-3.738c-3.888,0-6.239,2.743-6.239,6.842,0,4.16,2.351,6.9,6.239,6.9a5.268,5.268,0,0,0,5.365-3.557h5.426c-1.176,5.4-5.3,8.44-10.791,8.44" transform="translate(-231.502 -393.117)" fill="#502c84"/>
      <path id="Path_2147" data-name="Path 2147" d="M433.2,436.385c0-3.768,2.351-6.39,6.239-6.842l8.982-1.115v-1.115a1.793,1.793,0,0,0-1.959-2.05H435.189V420.5h11.484c4.551,0,7.053,2.2,7.053,6.149v16.1h-5.335V440a8.711,8.711,0,0,1-7.415,3.376c-4.612-.03-7.777-2.833-7.777-6.993m9.1,2.713a6.578,6.578,0,0,0,6.119-3.738v-2.833l-6.842.965c-1.9.271-2.954,1.266-2.954,2.863-.03,1.748,1.326,2.743,3.677,2.743" transform="translate(-385.904 -395.187)" fill="#502c84"/>
      <path id="Path_2148" data-name="Path 2148" d="M699.3,429.974A11.229,11.229,0,0,1,710.874,418.4c6.812,0,11.394,4.431,11.394,11.635a8.776,8.776,0,0,1-.091,1.477H704.786c.422,3.677,2.562,5.667,6.3,5.667a6.616,6.616,0,0,0,5.3-2.261h5.667c-1.266,3.858-5.908,6.993-11.062,6.993-6.933-.03-11.7-4.883-11.7-11.936m5.727-2.713h11.454c-.663-2.833-2.5-4.16-5.636-4.16-3.1,0-5.094,1.477-5.817,4.16" transform="translate(-600.599 -393.117)" fill="#502c84"/>
      <text id="m" transform="translate(156.275 47.332)" fill="#502c84" stroke="#502c84" stroke-width="1" font-size="42" font-family="TrebuchetMS, Trebuchet MS"><tspan x="-34.863" y="0">m</tspan></text>
      <text id="y" transform="translate(175.602 46.332)" fill="#502c84" stroke="#502c84" stroke-width="1" font-size="41" font-family="TrebuchetMS, Trebuchet MS"><tspan x="-20.22" y="0">y</tspan></text>
      <text id="d" transform="translate(98.434 47)" fill="#502c84" stroke="#502c84" stroke-width="1" font-size="55" font-family="TwCenMT-Regular, Tw Cen MT"><tspan x="-30.347" y="0">d</tspan></text>
    </g>
    <g id="Group_341" data-name="Group 341" transform="translate(4289.241 -248.099)">
      <path id="stc" d="M230.393,381.842a6.845,6.845,0,0,0,4.86-1.725,4.483,4.483,0,0,0,1.324-3.228,4.178,4.178,0,0,0-1.231-3.014,6.409,6.409,0,0,0-3.386-1.661l-2.369-.458c-.981-.186-1.539-.673-1.539-1.353,0-.888.859-1.5,2.248-1.5a2.935,2.935,0,0,1,2.09.766,2.319,2.319,0,0,1,.587,1.26l3.414-.766a4.15,4.15,0,0,0-1.26-2.556,6.81,6.81,0,0,0-4.86-1.811,6.648,6.648,0,0,0-4.524,1.6,4.487,4.487,0,0,0-1.446,3.321,3.847,3.847,0,0,0,1.11,2.828,6.733,6.733,0,0,0,3.228,1.632l2.341.551c1.167.279,1.689.709,1.689,1.475,0,.952-.859,1.51-2.276,1.51a3.182,3.182,0,0,1-2.369-.895,2.117,2.117,0,0,1-.616-1.417l-3.508.766a4.371,4.371,0,0,0,1.324,2.706,7.087,7.087,0,0,0,5.168,1.976m25.956,0a7.3,7.3,0,0,0,5.225-2,6.824,6.824,0,0,0,1.847-3.107l-3.6-1.2a3.419,3.419,0,0,1-.952,1.6,3.512,3.512,0,0,1-2.52.952,3.87,3.87,0,0,1-2.742-1.11,4.466,4.466,0,0,1-1.138-3.171,4.4,4.4,0,0,1,1.138-3.164,3.755,3.755,0,0,1,2.706-1.074,3.257,3.257,0,0,1,2.427.923,4.006,4.006,0,0,1,.923,1.632l3.658-1.231a6.877,6.877,0,0,0-1.725-3.042,7.48,7.48,0,0,0-5.383-2.062,7.806,7.806,0,0,0-5.569,2.248,8.2,8.2,0,0,0-2.255,5.784,8.073,8.073,0,0,0,2.334,5.784,7.917,7.917,0,0,0,5.626,2.241m-12.419,0a5.163,5.163,0,0,0,3.228-.923V377.6a3.548,3.548,0,0,1-2.062.616,2.164,2.164,0,0,1-1.539-.494,2.139,2.139,0,0,1-.458-1.539V362.1H239.04v4.152h8.117v3.937h-8.125v6.979a4.658,4.658,0,0,0,1.2,3.35,5.03,5.03,0,0,0,3.694,1.324" transform="translate(-172.823 -359.728)" fill="#502c84"/>
      <text id="from" transform="translate(45 19)" fill="#502c84" stroke="#502c84" stroke-width="1" font-size="20" font-family="ArialRoundedMTBold, Arial Rounded MT"><tspan x="-45.195" y="0">from</tspan></text>
    </g>
  </g>
</svg>
