<svg xmlns="http://www.w3.org/2000/svg" width="117.301" height="115.857" viewBox="0 0 117.301 115.857">
  <g id="p1" transform="translate(-2078.57 -3991.609)">
    <path id="Path_1372" data-name="Path 1372" d="M2090.184,4034.539v-14.1l12.858-7.052v14.1Z" fill="#231e56"/>
    <path id="Path_1373" data-name="Path 1373" d="M2115.486,4020.643l-12.443-7.259v14.1l12.651,7.57Z" fill="#703c95"/>
    <path id="Path_1374" data-name="Path 1374" d="M2128.033,4013.385l-12.547,7.259.208,14.414,12.34-7.259Z" fill="#231e56"/>
    <path id="Path_1375" data-name="Path 1375" d="M2128.344,3998.971l-.311,14.414,12.651-7.362v-14.414Z" fill="#231e56"/>
    <path id="Path_1376" data-name="Path 1376" d="M2140.166,4034.953l-12.133-7.155-12.34,7.259,12.651,7.259Z" fill="#4ac6f0"/>
    <path id="Path_1377" data-name="Path 1377" d="M2153.335,4027.591l-13.169,7.362,13.066,7.259,12.34-7.259Z" fill="#49c6f1"/>
    <path id="Path_1378" data-name="Path 1378" d="M2153.335,4013.488v14.1l12.236,7.362.207-14.725Z" fill="#2e6fb5"/>
    <path id="Path_1379" data-name="Path 1379" d="M2115.693,4049.471v-14.414l12.651,7.259-.208,14.31Z" fill="#231e56"/>
    <path id="Path_1380" data-name="Path 1380" d="M2103.665,4056.833l12.029-7.363,12.443,7.155-12.651,7.051Z" fill="#8e3a8f"/>
    <path id="Path_1381" data-name="Path 1381" d="M2078.57,4056.626l11.925-7.155,13.169,7.363-13.273,7.051Z" fill="#8e3a8f"/>
    <path id="Path_1382" data-name="Path 1382" d="M2195.286,4085.385H2179V4073.48l12.918.061,3.373-6.6h-17.541a5.991,5.991,0,0,0-5.99,5.991v12.458h-6.544V4053.5l-6.475,4.177v27.5H2151.7v-12.13a6.249,6.249,0,0,0-6.249-6.249h-17.421v18.588h-13.228l-3.272,7.1h44.07a2.368,2.368,0,0,0,1.578-.6l2.6-2.321,3.05,2.359a2.37,2.37,0,0,0,1.449.495h31.077Zm-50,.062-8.134-.086a1.693,1.693,0,0,1-1.675-1.693v-10.076h8.28a1.529,1.529,0,0,1,1.529,1.53Z" fill="#808084"/>
    <path id="Path_1383" data-name="Path 1383" d="M2176.422,4102.549h-4.071v2.631h4.551v2.049h-7.053v-11.064h6.816v2.049h-4.314v2.305h4.071Z" fill="#808084"/>
    <path id="Path_1384" data-name="Path 1384" d="M2183.737,4101.761c0-1-.031-1.847-.066-2.567h2.112l.106,1.088h.052a2.783,2.783,0,0,1,2.424-1.268,2.268,2.268,0,0,1,2.2,1.377h.033a3.333,3.333,0,0,1,1.044-.979,2.858,2.858,0,0,1,1.524-.4c1.535,0,2.705,1.085,2.705,3.486v4.729h-2.43v-4.364c0-1.163-.375-1.839-1.182-1.839a1.222,1.222,0,0,0-1.15.871,2.177,2.177,0,0,0-.09.634v4.7h-2.43v-4.5c0-1.012-.361-1.7-1.158-1.7a1.281,1.281,0,0,0-1.171.9,1.851,1.851,0,0,0-.093.633v4.673h-2.43Z" fill="#808084"/>
    <path id="Path_1385" data-name="Path 1385" d="M2178.682,4095.988l2.03.009.021,9.585,1.131.011v1.873h-1.228a1.865,1.865,0,0,1-1.907-1.812Z" fill="#808084"/>
  </g>
</svg>
