<svg xmlns="http://www.w3.org/2000/svg" width="45" height="55.317" viewBox="0 0 45 55.317">
  <g id="obj_data_1" transform="translate(-1556.225 -1538.216)">
    <path id="Path_1408" data-name="Path 1408" d="M1591.173,1566.3c3.573-7.424,2.965-14.469-1.8-21.207a18.974,18.974,0,0,1,6.2,8.185,15.388,15.388,0,0,1,1.445,8.988,7.145,7.145,0,0,1-.582,1.94c-.175.345-.671.525-1.012.792-.363.283-.714.58-1.071.872.317.29.628.586.952.868.3.26.746.443.9.768,1.035,2.164,2.019,4.351,3,6.542.592,1.323.221,1.954-1.2,2.135-1.765.223-2.126.705-1.855,2.447.084.543.136,1.092.2,1.577a1.746,1.746,0,0,1-.311.193c-2.361.62-2.431.812-1.211,2.9a1.5,1.5,0,0,1,.033.95c-.293,1.428-.752,2.835-.9,4.276-.158,1.511-.465,2.194-1.985,2.346a14.222,14.222,0,0,1-4.039-.14c-2.792-.537-5.472-.617-8.036.855a2.711,2.711,0,0,1-1.269.224c-2.122.022-4.245-.032-6.364.049-.425.016-1.128.453-1.187.787-.144.818.567.883,1.21.881,2.242-.006,4.484.025,6.725-.02a3.724,3.724,0,0,0,1.719-.409c2.081-1.2,4.245-1.106,6.521-.768a19.724,19.724,0,0,0,5.219.183c2.225-.272,3.109-1.7,3.22-3.932a9.782,9.782,0,0,1,.811-3.548c.477-1.037.686-1.85.039-2.471.587-.669,1.4-1.207,1.592-1.915a7.546,7.546,0,0,0-.277-2.646c.252-.058.435-.1.619-.141,2.5-.5,3.386-2.194,2.34-4.519-.983-2.188-2.009-4.356-2.982-6.549a1.5,1.5,0,0,1-.108-1.1c1.769-3.588,1.465-7.231.288-10.867-2.952-9.1-9.444-14.148-18.609-16.091-7.173-1.52-13.358.266-18.294,5.717a18.979,18.979,0,0,0-.122,25.237,26.129,26.129,0,0,1,5.407,8.7,42.928,42.928,0,0,1,1.295,5.476c.371,1.848,1.315,2.718,3.193,2.728q4.023.021,8.046,0a2.844,2.844,0,0,0,3.1-2.563c.219-1.1.393-2.2.609-3.423l-1.623-.577c-.218,1.171-.449,2.257-.616,3.353a1.514,1.514,0,0,1-1.748,1.511c-2.521-.056-5.044-.04-7.565-.005a1.446,1.446,0,0,1-1.7-1.415,27.445,27.445,0,0,0-7.067-14.926,17.254,17.254,0,0,1,9.109-28.253c9.186-2.092,18.65,4.511,20.081,13.977a16.938,16.938,0,0,1-1,9.186C1590.029,1564.574,1589.762,1565.48,1591.173,1566.3Z" transform="translate(0)" fill="#fff"/>
    <path id="Path_1409" data-name="Path 1409" d="M1574.509,1543.294c1.924-.01,2.547.458,3.4,2.553,2.02-.889,2.825-.772,4.2.609,1.31,1.313,1.412,2.1.5,4.195a2.88,2.88,0,0,1,2.587,2.735c.177,2.007-.492,3.442-2.618,3.883.884,1.739.885,2.747-.136,3.776a4.9,4.9,0,0,1-2.069,1.442,7.42,7.42,0,0,1-2.567-.321c-.537,1.7-1.239,2.318-2.781,2.386-2.342.1-2.9-.273-3.851-2.581-1.7.883-2.691.9-3.756-.156a4.8,4.8,0,0,1-1.422-2.079,7.3,7.3,0,0,1,.352-2.543c-1.662-.5-2.392-1.222-2.391-2.662a5.049,5.049,0,0,1,.415-2.49c.413-.686,1.318-1.077,2.038-1.62-.892-1.808-.752-2.7.747-4.141,1.251-1.207,2.26-1.312,4.017-.37C1572.013,1543.806,1572.665,1543.3,1574.509,1543.294Zm-2.053,17.289a1.2,1.2,0,0,1,.567.832c-.033,1.274.671,1.491,1.737,1.465s1.351-.6,1.284-1.527a4.638,4.638,0,0,1,.03-.531l2.123-.92c1.862,1.187,1.915,1.162,2.866.168,1.056-1.1-.043-1.643-.581-2.373a11.4,11.4,0,0,0,.578-1.394c.168-.614.437-.929,1.14-.868,1.071.092,1.314-.612,1.312-1.515s-.274-1.5-1.348-1.511a1.238,1.238,0,0,1-.964-.648c-.176-.689-1.236-1.33-.21-2.162.843-.684.532-1.322-.118-1.978s-1.217-.917-2-.151a1.245,1.245,0,0,1-1.145.234c-.613-.363-1.827-.064-1.692-1.364.1-.987-.426-1.323-1.341-1.33s-1.625.1-1.667,1.29a1.393,1.393,0,0,1-.753,1.042c-.64.2-1.28,1.152-2.06.168-.664-.837-1.307-.581-1.975.086-.7.7-.939,1.342-.072,2.07a4.831,4.831,0,0,1,.463.511l-.938,2.219c-.271.015-.543.049-.815.041-1-.029-1.271.541-1.273,1.429s.149,1.638,1.244,1.566c.748-.049,1.044.269,1.212.939a7.479,7.479,0,0,0,.568,1.266c-1.264,1.607-1.244,1.745-.32,2.719,1.077,1.135,1.71.218,2.461-.494A12.361,12.361,0,0,1,1572.456,1560.583Z" transform="translate(0.243)" fill="#fff"/>
    <path id="Path_1410" data-name="Path 1410" d="M1580.988,1577.381a2.846,2.846,0,0,0-1.009-.383,3.091,3.091,0,0,1-2.957-3.066,1.483,1.483,0,0,0-.368-.867,2.967,2.967,0,0,1,.029-4.229,1.318,1.318,0,0,0,.365-.752,2.968,2.968,0,0,1,3.067-3.141,1.429,1.429,0,0,0,.794-.334,2.979,2.979,0,0,1,4.311,0,3.193,3.193,0,0,0,.8.345c.786.361,1.918.521,2.283,1.135a21.929,21.929,0,0,1,1.946,4.662c.517,1.647-1.63,2.58-1.354,4.273.049.3-.379.843-.717,1.014-1.639.827-3.323,1.566-5.14,2.406C1582.322,1578.071,1581.661,1577.713,1580.988,1577.381Zm5.978-10.283c-.536-.877-1.117-.251-1.829.444a16.184,16.184,0,0,0-1.231-1.675,1.427,1.427,0,0,0-.985-.4,1.022,1.022,0,0,0-.734.553c-.414,1.07-.994,1.309-1.986.841a1.039,1.039,0,0,0-.969.182,1.279,1.279,0,0,0-.241,1.084c.415,1.016.2,1.544-.838,1.963a1.092,1.092,0,0,0-.6.815,1.249,1.249,0,0,0,.619.917c.991.393,1.223.957.815,1.97a1.215,1.215,0,0,0,.244,1.08,1.161,1.161,0,0,0,1.058.1,1.3,1.3,0,0,1,1.893.823,1.187,1.187,0,0,0,.869.656,1.226,1.226,0,0,0,.912-.637c.41-.983.961-1.2,1.96-.763a1.237,1.237,0,0,0,1.066-.265,1.056,1.056,0,0,0,.16-.976c-.474-1.012-.244-1.539.888-1.994a1,1,0,0,0,.507-.76,1.468,1.468,0,0,0-.434-.951,16.568,16.568,0,0,0-1.542-1.182l.516-.291C1587.058,1568.115,1587.2,1567.489,1586.966,1567.1Z" transform="translate(0.475 0.569)" fill="#fff"/>
    <path id="Path_1411" data-name="Path 1411" d="M1574.551,1587.579a24.641,24.641,0,0,0-2.825.037c-.343.04-.637.5-.954.77.305.29.6.819.917.832,1.922.078,3.851.077,5.773,0,.311-.013.6-.553.9-.85-.328-.262-.634-.711-.987-.751A24.867,24.867,0,0,0,1574.551,1587.579Z" transform="translate(0.286 0.887)" fill="#fff"/>
    <path id="Path_1412" data-name="Path 1412" d="M1569.881,1554.01a4.681,4.681,0,1,1,4.712,4.592A4.636,4.636,0,0,1,1569.881,1554.01Zm7.617.014a2.916,2.916,0,0,0-2.921-3.041,2.964,2.964,0,1,0-.049,5.927A2.938,2.938,0,0,0,1577.5,1554.024Z" transform="translate(0.282 0.218)" fill="#fff"/>
    <path id="Path_1413" data-name="Path 1413" d="M1580.075,1570.945a2.966,2.966,0,0,1,2.913-2.941,2.9,2.9,0,0,1,3.028,2.912,2.931,2.931,0,0,1-2.942,3.012A2.992,2.992,0,0,1,1580.075,1570.945Zm2.978,1.2a1.742,1.742,0,0,0,1.205-1.106,1.016,1.016,0,0,0-1.12-1.3c-.528.051-1.009.58-1.512.9l-.014.532C1582.092,1571.526,1582.572,1572.149,1583.053,1572.149Z" transform="translate(0.449 0.545)" fill="#fff"/>
  </g>
</svg>
