<svg xmlns="http://www.w3.org/2000/svg" width="30" height="46.717" viewBox="0 0 30 46.717">
  <g id="obj_data_7" transform="translate(-1560.441 -2096.646)">
    <g id="Group_247" data-name="Group 247" transform="translate(1560.441 2096.646)">
      <path id="Path_1406" data-name="Path 1406" d="M1563.857,2131.078a4.539,4.539,0,0,1,.395-3.109.25.25,0,0,0,.006-.2,4.993,4.993,0,0,1,.017-3.773.527.527,0,0,0-.027-.342c-.17-.429-.381-.843-.535-1.277a22.668,22.668,0,0,1-1.117-5.419c-.142-1.478-.227-2.961-.3-4.444a19.432,19.432,0,0,1,.93-7.418,11.689,11.689,0,0,1,6.677-7.313,13.952,13.952,0,0,1,10.212-.332,11.5,11.5,0,0,1,6.823,5.932,16.55,16.55,0,0,1,1.667,7.351,45.685,45.685,0,0,1-.677,8.711,14.969,14.969,0,0,1-1.281,4.164.505.505,0,0,0-.027.447,4.9,4.9,0,0,1,.015,3.694.309.309,0,0,0,.016.243,4.049,4.049,0,0,1,.445,2.505c-.058.554-.171,1.1-.262,1.67a1.534,1.534,0,0,0,.183.059,6.632,6.632,0,0,1,3,1.543,1,1,0,0,1,.387,1.061,1.029,1.029,0,0,1-.875.751,9.086,9.086,0,0,0-1.448.444,4.685,4.685,0,0,0-2.854,3.077c-.051.178-.1.362-.162.535a4.366,4.366,0,0,1-2.182,2.28,11.413,11.413,0,0,1-3.647,1.142,24.412,24.412,0,0,1-7.31.044,11.857,11.857,0,0,1-3.842-1.139,4.389,4.389,0,0,1-2.468-2.942,3.962,3.962,0,0,0-1.295-2.045,6.057,6.057,0,0,0-2.952-1.4,1,1,0,0,1-.891-.731.97.97,0,0,1,.412-1.1,11.021,11.021,0,0,1,1.388-.937,19,19,0,0,1,1.778-.7C1564,2131.792,1563.913,2131.438,1563.857,2131.078Zm1.547-1.336a6.533,6.533,0,0,0,.553,2.832,3.416,3.416,0,0,0,.784,1,6.008,6.008,0,0,0,2.868,1.563.8.8,0,0,1,.647.857.792.792,0,0,1-.711.747,1.15,1.15,0,0,1-.419-.044,7.581,7.581,0,0,1-4.253-2.77.338.338,0,0,0-.358-.155,4.528,4.528,0,0,0-1.57.536c.125.055.2.092.281.124a6.316,6.316,0,0,1,4.057,4.446,2.185,2.185,0,0,0,.876,1.208,6.945,6.945,0,0,0,2.735,1.142,20.114,20.114,0,0,0,9.743-.183,8.944,8.944,0,0,0,1.892-.834,2.375,2.375,0,0,0,1.138-1.544,6.218,6.218,0,0,1,3.849-4.178c.107-.045.214-.087.32-.133.014-.007.024-.025.059-.066a4.368,4.368,0,0,0-1.463-.512.562.562,0,0,0-.561.187,9.707,9.707,0,0,1-5.485,2.748,15.229,15.229,0,0,1-6.649-.49.816.816,0,1,1,.433-1.572,14.838,14.838,0,0,0,4.584.588,8.784,8.784,0,0,0,5.79-2.248,1.97,1.97,0,0,0,.586-.959,7.794,7.794,0,0,0,.358-2.176c0-.1-.016-.205-.028-.346-.077.054-.122.078-.157.11a7.339,7.339,0,0,1-4,1.853.815.815,0,0,1-1.016-.693.828.828,0,0,1,.782-.928,5.37,5.37,0,0,0,3.059-1.386,3.293,3.293,0,0,0,1.209-2.833c-.009-.071-.019-.14-.035-.21,0-.023-.027-.04-.054-.078-.232.216-.452.434-.687.636a6.71,6.71,0,0,1-.712.56.808.808,0,0,1-1.108-.234.857.857,0,0,1,.176-1.107,22.651,22.651,0,0,0,1.916-1.849,4.917,4.917,0,0,0,.769-1.474,19.958,19.958,0,0,0,1-4.547,46.577,46.577,0,0,0,.371-6.628,14.9,14.9,0,0,0-1.549-6.671,10.129,10.129,0,0,0-7.6-5.531,12.617,12.617,0,0,0-6.829.551,10.28,10.28,0,0,0-6.276,6.75,17.8,17.8,0,0,0-.784,6.717c.1,1.73.223,3.461.412,5.183a17.428,17.428,0,0,0,1.113,4.655,3.224,3.224,0,0,0,.74,1.19c.589.553,1.173,1.113,1.773,1.655a.842.842,0,0,1,.158,1.126.792.792,0,0,1-1.113.2c-.406-.3-.776-.651-1.16-.98-.072-.062-.139-.13-.241-.225a2.807,2.807,0,0,0,.033,1.48,3.213,3.213,0,0,0,.826,1.292,9.29,9.29,0,0,0,6.082,2.989c.309.031.621.039.932.048a.827.827,0,0,1,.878.836.818.818,0,0,1-.885.8,11.075,11.075,0,0,1-7.758-3.093c-.076-.072-.153-.142-.272-.25C1565.428,2129.559,1565.407,2129.65,1565.4,2129.742Z" transform="translate(-1560.441 -2096.646)" fill="#fff"/>
      <path id="Path_1407" data-name="Path 1407" d="M1567.356,2111.383a9.219,9.219,0,0,1,2.959-5.251,9.8,9.8,0,0,1,9.009-2.127,8.964,8.964,0,0,1,6.358,5.109,12.691,12.691,0,0,1,1.089,5.208,24.673,24.673,0,0,1-.488,5.356,16.014,16.014,0,0,1-2.853,6.688,10.359,10.359,0,0,1-5.15,3.764,3.976,3.976,0,0,1-1.838.213,8.373,8.373,0,0,1-3.483-1.47,12.494,12.494,0,0,1-4.428-5.751,22.684,22.684,0,0,1-1.517-8.293A15.368,15.368,0,0,1,1567.356,2111.383Zm2.035-.442a.522.522,0,0,0-.341.393,14.735,14.735,0,0,0-.37,4.529,21.073,21.073,0,0,0,.954,5.475,12.134,12.134,0,0,0,3.612,5.69,7.191,7.191,0,0,0,3.235,1.671,2.911,2.911,0,0,0,1.617-.218,9.007,9.007,0,0,0,4.156-3.306,14.78,14.78,0,0,0,2.448-5.944,22.68,22.68,0,0,0,.432-5.093,11.511,11.511,0,0,0-.423-2.868.513.513,0,0,0-.255-.294,19.1,19.1,0,0,0-6.381-1.489c-.4-.023-.8-.038-1.2-.056A20.07,20.07,0,0,0,1569.391,2110.941Zm14.247-2.073a7.722,7.722,0,0,0-6.21-3.52c-2.86-.256-6.148,1.354-7.308,3.566A21.606,21.606,0,0,1,1583.638,2108.868Z" transform="translate(-1561.897 -2098.206)" fill="#fff"/>
    </g>
  </g>
</svg>
