<svg xmlns="http://www.w3.org/2000/svg" width="45" height="39.488" viewBox="0 0 45 39.488">
  <g id="obj_data_5" transform="translate(-1924.992 -1821.869)">
    <path id="Path_1398" data-name="Path 1398" d="M1943.787,1845.734c.128-1.637.013-3.291.059-4.937a5.078,5.078,0,0,1,5.163-5.257c1.95-.052,3.9-.042,5.853.034a5.077,5.077,0,0,1,5.077,5.159c.05,1.766,0,3.536-.013,5.3-.016,2.836-.338,3.325-2.956,4.42-.01,1.788-.019,3.614-.031,5.44-.011,1.89.018,3.781-.046,5.67-.088,2.634-1.964,3.837-4.351,2.9a2.191,2.191,0,0,0-1.447-.05c-2.678,1.018-4.437-.159-4.437-3.067,0-3.656.036-7.312.057-11.046C1944.307,1849.681,1943.606,1848.031,1943.787,1845.734Zm14.63,1.164a40.627,40.627,0,0,0,0-6.215,4.954,4.954,0,0,0-1.392-2.815c-1.393-1.364-2.3-1.047-3,.752-.372.966-.684,1.961-1.131,2.89a6.885,6.885,0,0,1-1.07,1.3,6.521,6.521,0,0,1-.92-1.245,28.493,28.493,0,0,1-1.245-3.433c-.347-1.245-1.045-1.3-2.052-.854a3.517,3.517,0,0,0-2.281,3.248c-.077,2.073-.11,4.151-.021,6.221a6.116,6.116,0,0,0,.79,1.909l.625-.162c.013-2.276-.017-4.553.068-6.827a5.759,5.759,0,0,1,.633-1.693c.267.574.764,1.149.767,1.725.022,6.223-.034,12.446-.068,18.67,0,.365.019.734-.01,1.1-.085,1.1.4,1.966,1.484,1.779a2.318,2.318,0,0,0,1.382-1.7c.18-2.245.045-4.512.14-6.766a4.812,4.812,0,0,1,.725-1.595,5.179,5.179,0,0,1,.672,1.639c.069,2.133.031,4.27-.011,6.406-.022,1.12.321,2.147,1.524,1.947a2.484,2.484,0,0,0,1.349-1.923c.142-5.427.125-10.859.156-16.289.007-1.1-.063-2.2.05-3.292a6.239,6.239,0,0,1,.675-1.65c.253.528.708,1.05.724,1.585.069,2.313.01,4.63,0,6.946l.618.231A6.049,6.049,0,0,0,1958.417,1846.9Zm-6.531-6.956,1.142-2.868-2.207-.012Z" transform="translate(-4.715 -3.426)" fill="#fff"/>
    <path id="Path_1399" data-name="Path 1399" d="M1953.219,1821.869a4.383,4.383,0,1,1-4.362,4.449A4.432,4.432,0,0,1,1953.219,1821.869Zm-2.9,4.391a2.924,2.924,0,1,0,2.87-2.932A2.971,2.971,0,0,0,1950.316,1826.26Z" transform="translate(-5.995)" fill="#fff"/>
    <g id="Group_244" data-name="Group 244" transform="translate(1924.992 1823.778)">
      <path id="Path_1400" data-name="Path 1400" d="M1928.508,1828.06a3.662,3.662,0,1,1,3.641,3.682A3.665,3.665,0,0,1,1928.508,1828.06Zm1.831.01a1.831,1.831,0,1,0,1.841-1.82A1.833,1.833,0,0,0,1930.339,1828.07Z" transform="translate(-1925.875 -1824.419)" fill="#fff"/>
      <path id="Path_1401" data-name="Path 1401" d="M1924.992,1844.667a3.662,3.662,0,1,1,3.641,3.682A3.666,3.666,0,0,1,1924.992,1844.667Zm1.831.01a1.831,1.831,0,1,0,1.841-1.82A1.834,1.834,0,0,0,1926.823,1844.677Z" transform="translate(-1924.992 -1828.591)" fill="#fff"/>
      <path id="Path_1402" data-name="Path 1402" d="M1928.32,1861.8a3.662,3.662,0,1,1,3.641,3.682A3.666,3.666,0,0,1,1928.32,1861.8Zm1.831.01a1.831,1.831,0,1,0,1.841-1.82A1.834,1.834,0,0,0,1930.151,1861.811Z" transform="translate(-1925.828 -1832.895)" fill="#fff"/>
      <rect id="Rectangle_198" data-name="Rectangle 198" width="1.465" height="6.974" rx="0.732" transform="matrix(-0.542, 0.84, -0.84, -0.542, 14.233, 7.691)" fill="#fff"/>
      <rect id="Rectangle_199" data-name="Rectangle 199" width="1.465" height="6.974" rx="0.732" transform="matrix(-0.006, 1, -1, -0.006, 12.497, 15.487)" fill="#fff"/>
      <rect id="Rectangle_200" data-name="Rectangle 200" width="1.465" height="6.974" rx="0.732" transform="matrix(-0.57, -0.822, 0.822, -0.57, 8.22, 28.43)" fill="#fff"/>
    </g>
    <g id="Group_245" data-name="Group 245" transform="translate(1955.853 1823.777)">
      <path id="Path_1403" data-name="Path 1403" d="M1975.619,1831.741a3.662,3.662,0,1,1,3.682-3.641A3.666,3.666,0,0,1,1975.619,1831.741Zm.031-5.492a1.831,1.831,0,1,0,1.82,1.841A1.833,1.833,0,0,0,1975.65,1826.249Z" transform="translate(-1967.657 -1824.418)" fill="#fff"/>
      <path id="Path_1404" data-name="Path 1404" d="M1978.95,1848.385a3.661,3.661,0,1,1,3.682-3.641A3.665,3.665,0,0,1,1978.95,1848.385Zm.031-5.492a1.83,1.83,0,1,0,1.82,1.84A1.833,1.833,0,0,0,1978.981,1842.894Z" transform="translate(-1968.494 -1828.599)" fill="#fff"/>
      <path id="Path_1405" data-name="Path 1405" d="M1975.432,1865.481a3.662,3.662,0,1,1,3.682-3.641A3.666,3.666,0,0,1,1975.432,1865.481Zm.031-5.492a1.831,1.831,0,1,0,1.82,1.841A1.834,1.834,0,0,0,1975.463,1859.989Z" transform="translate(-1967.61 -1832.894)" fill="#fff"/>
      <rect id="Rectangle_201" data-name="Rectangle 201" width="1.465" height="6.974" rx="0.732" transform="matrix(0.533, 0.846, -0.846, 0.533, 5.901, 3.886)" fill="#fff"/>
      <rect id="Rectangle_202" data-name="Rectangle 202" width="1.465" height="6.974" rx="0.732" transform="translate(8.623 15.456) rotate(90.318)" fill="#fff"/>
      <rect id="Rectangle_203" data-name="Rectangle 203" width="1.465" height="6.974" rx="0.732" transform="matrix(0.579, -0.816, 0.816, 0.579, 0.095, 24.371)" fill="#fff"/>
    </g>
  </g>
</svg>
