<svg xmlns="http://www.w3.org/2000/svg" width="45" height="45.198" viewBox="0 0 45 45.198">
  <g id="obj_data_4" transform="translate(-1551.317 -1824.467)">
    <path id="Path_1414" data-name="Path 1414" d="M1573.723,1869.657c-3.272.086-5.894-.465-6.931-4.121a11.092,11.092,0,0,0-.011-2.416,2.441,2.441,0,0,1-.037-1.026,6.306,6.306,0,0,0-.66-6.341,21.239,21.239,0,0,0-2.788-3.056,17.107,17.107,0,0,1-2.178-21.12,14.806,14.806,0,0,1,19.3-5.5c6.876,3.534,10.3,11.884,8.053,19.615a17.8,17.8,0,0,1-5.356,8.179c-2.451,2.259-3.563,4.967-2.121,8.38a1.565,1.565,0,0,1-.029.722c-.108.852-.226,1.7-.341,2.554C1579.773,1869.582,1576.874,1869.574,1573.723,1869.657Zm5.226-11.03c.254-3.293,2.51-5.208,4.576-7.324a15.235,15.235,0,0,0,.079-20.917,13.206,13.206,0,0,0-19.569-.066,15.237,15.237,0,0,0,.027,20.92c2.051,2.124,4.342,4.04,4.641,7.387Zm-.165,3.08c.334-1,.174-1.5-.978-1.483-2.683.042-5.368-.03-8.049.058-.418.013-.82.616-1.23.946l.325.479Zm-.067,3.152c.411-.966.363-1.535-.86-1.519-2.683.034-5.368-.031-8.05.052-.437.014-.858.578-1.287.888l.443.58Zm-9.573,1.685c1.1,2.068,7.92,2.152,9.469,0Z" fill="#fff"/>
    <path id="Path_1415" data-name="Path 1415" d="M1592.854,1827.945c.244.374.38.79.552.806a1.634,1.634,0,0,0,1.172-.232,17.31,17.31,0,0,0,2.133-2.557c.194-.291-.053-.878-.1-1.33-.4.077-.938.017-1.164.255C1594.542,1825.843,1593.733,1826.891,1592.854,1827.945Z" transform="translate(-6.951)" fill="#fff"/>
    <path id="Path_1416" data-name="Path 1416" d="M1557.348,1825.543c1.092,1.144,2.139,2.267,3.235,3.34.095.094.659-.07.753-.247a1.191,1.191,0,0,0,.086-1.007,32.64,32.64,0,0,0-2.452-2.891,1.181,1.181,0,0,0-.991-.074C1557.767,1824.733,1557.651,1825.1,1557.348,1825.543Z" fill="#fff"/>
    <path id="Path_1417" data-name="Path 1417" d="M1552.1,1852.956c.765.626,1.16,1.09,1.281,1.028,1.359-.706,2.686-1.476,3.982-2.293.089-.057-.119-.635-.242-.95a.429.429,0,0,0-.374-.182C1555.3,1851.288,1553.865,1852.041,1552.1,1852.956Z" transform="translate(0 -3.736)" fill="#fff"/>
    <path id="Path_1418" data-name="Path 1418" d="M1553.958,1844.2a1.838,1.838,0,0,0,.66-.012c.654-.277,1.287-.6,1.928-.913-.659-.29-1.31-.6-1.98-.86a1.05,1.05,0,0,0-.658,0c-.87.286-1.729.608-2.591.916l2.475,1.225Z" transform="translate(0 -2.499)" fill="#fff"/>
    <path id="Path_1419" data-name="Path 1419" d="M1600.679,1844.2a1.838,1.838,0,0,0,.66-.012c.655-.277,1.288-.6,1.929-.912-.658-.291-1.31-.6-1.979-.861a1.057,1.057,0,0,0-.658,0c-.87.286-1.729.606-2.592.914l2.466,1.224Z" transform="translate(-6.951 -2.499)" fill="#fff"/>
    <path id="Path_1420" data-name="Path 1420" d="M1552.078,1833.251a13.665,13.665,0,0,0,2.466,1.752,14.842,14.842,0,0,0,2.854.528c-.657-.686-1.27-1.421-1.985-2.04a3.642,3.642,0,0,0-1.563-.821C1553.474,1832.592,1553.014,1832.923,1552.078,1833.251Z" transform="translate(0 -1.16)" fill="#fff"/>
    <path id="Path_1421" data-name="Path 1421" d="M1597,1835.491c.5.144,1.11.538,1.49.382a11.659,11.659,0,0,0,2.872-1.689c.251-.2.013-1.01,0-1.54l-4.439,2.047Z" transform="translate(-6.951 -1.167)" fill="#fff"/>
    <path id="Path_1422" data-name="Path 1422" d="M1596.412,1851.7l5.072,2.213c.1-.384.387-1.043.284-1.11a39.965,39.965,0,0,0-3.817-2.217C1597.792,1850.506,1597.335,1851.016,1596.412,1851.7Z" transform="translate(-6.951 -3.732)" fill="#fff"/>
    <path id="Path_1423" data-name="Path 1423" d="M1588.708,1849.966c.476,2.3-.207,3.2-2.608,3.209q-8.75.04-17.5,0c-2.657-.01-3.259-.869-2.654-3.527.933-4.1,3.625-6.7,7.3-8.427-2.926-4.117-2.9-7.394-.019-9.88a6.226,6.226,0,0,1,8.375.217c2.664,2.531,2.608,5.9-.355,9.65C1585.189,1843.009,1587.836,1845.75,1588.708,1849.966Zm-21.2,1.3h19.567a9.652,9.652,0,0,0-4.747-7.464l-5.038,6.235-4.994-6.239A9.689,9.689,0,0,0,1567.5,1851.265Zm14.265-15.006a4.477,4.477,0,1,0-4.512,4.33A4.515,4.515,0,0,0,1581.769,1836.259Z" transform="translate(-3.475)" fill="#fff"/>
  </g>
</svg>
