<svg xmlns="http://www.w3.org/2000/svg" width="45" height="44.778" viewBox="0 0 45 44.778">
  <g id="obj_data_2" transform="translate(-483.354 -1540.942)">
    <path id="Path_1386" data-name="Path 1386" d="M1940.107,1542.408c3.225,0,6.451.03,9.675-.035.475-.01.949-.464,1.4-.741.34-.206.65-.458.974-.69.184.38.517.756.527,1.141.053,2.127.027,4.256.028,6.385v6.335c4.446,0,8.573-.026,12.7.007,3.7.03,5.84,2.214,5.888,5.932.021,1.612-.082,3.231.024,4.836.162,2.439-.353,4.38-3.124,4.838,0,4.068.035,7.936-.012,11.8-.034,2.847-2.062,4.134-4.7,3.113a2.076,2.076,0,0,0-1.365-.027c-2.986,1.132-4.753-.069-4.76-3.321-.014-5.675.047-11.352-.021-17.026-.051-4.321,1.043-4.02-4.184-3.909-.1,0-.207.12-.447.268,0,4.358-.059,8.8.046,13.236a6.384,6.384,0,0,0,1,2.851c.694,1.2.739,2.421-.371,3.064a3.4,3.4,0,0,1-2.913-.008c-1.105-.65-1.052-1.869-.353-3.067a6.66,6.66,0,0,0,.994-2.856c.134-2.638.046-5.286.046-7.93v-5.5c-.384-.06-.51-.093-.638-.1-2.717-.115-4.047-1.11-4.088-3.062-.041-1.891,1.042-2.746,3.771-3.195.4-.066.708-.737,1.308-1.407h-13.383c-.373,3.475-.72,3.778-4.232,3.778-1.806,0-3.613-.027-5.419.007-1.456.028-2.137-.618-2.115-2.089.032-2.128.067-4.259-.011-6.384-.064-1.753.67-2.45,2.411-2.4,2.5.075,5.008.019,7.6.019C1936.563,1542.929,1937.1,1542.41,1940.107,1542.408Zm29.611,24.3a42.51,42.51,0,0,0-.029-6.379,5.411,5.411,0,0,0-1.4-3.019c-1.5-1.531-2.534-1.189-3.289.8-.435,1.144-.841,2.3-1.329,3.422a4.367,4.367,0,0,1-.821.964c-.332-.337-.8-.616-.973-1.021-.7-1.654-1.3-3.347-1.977-5.118-3.4,0-6.751-.079-10.1.071-.62.028-1.2.984-1.8,1.511.63.5,1.223,1.375,1.9,1.441,1.982.2,3.994.056,6,.078,2.188.022,3,.838,3,3.06.015,6.517-.032,13.035.06,19.551a2.563,2.563,0,0,0,1.2,2.009c1.276.4,1.826-.571,1.834-1.782.016-2.323-.05-4.648.045-6.967a5.91,5.91,0,0,1,.779-1.862,6.877,6.877,0,0,1,.7,1.947c.089,2.19.053,4.386.026,6.58-.015,1.149.228,2.21,1.571,2.177,1.321-.032,1.534-1.115,1.533-2.247q-.015-9.97,0-19.939a4.522,4.522,0,0,1,.032-1.346,4.626,4.626,0,0,1,.765-1.114c.249.384.7.761.714,1.152.071,2.192.032,4.386.041,6.581,0,.44.044.878.067,1.318l.638.2A6.989,6.989,0,0,0,1969.718,1566.709Zm-18.683-15.09V1548.6a8.183,8.183,0,0,1-1.685-.027,4.836,4.836,0,0,1-1.215-.663,5.151,5.151,0,0,1,1.25-.823,6.255,6.255,0,0,1,1.654-.032v-3.093c-3.983,0-7.964-.04-11.94.063-.378.009-1.02.882-1.051,1.384-.122,1.99-.05,3.991-.05,6.208Zm-22.991-3.722v3.033a8.172,8.172,0,0,1,1.714.029,4.609,4.609,0,0,1,1.2.68,5.354,5.354,0,0,1-1.269.8,6.289,6.289,0,0,1-1.64.031v3.1c2.393,0,4.766.065,7.128-.057a1.772,1.772,0,0,0,1.212-1.224c.132-2.051.058-4.114.058-6.392Zm33.652,8.514c.148.5.249.916.4,1.315s.343.8.7,1.629l1.178-2.944Z" transform="translate(-1443 0)" fill="#fff"/>
    <path id="Path_1387" data-name="Path 1387" d="M1966.951,1544.3a5.144,5.144,0,1,1-5.3,5.039A5.2,5.2,0,0,1,1966.951,1544.3Zm-.229,8.574a3.431,3.431,0,1,0-3.359-3.45A3.481,3.481,0,0,0,1966.722,1552.878Z" transform="translate(-1447.951)" fill="#fff"/>
  </g>
</svg>
