<svg xmlns="http://www.w3.org/2000/svg" width="45" height="44.479" viewBox="0 0 45 44.479">
  <g id="obj_data_6" transform="translate(-2309.69 -1820.17)">
    <g id="Group_237" data-name="Group 237" transform="translate(2309.69 1820.17)">
      <path id="Path_1354" data-name="Path 1354" d="M2322.442,1832.437a12.267,12.267,0,1,1,12.289,12.255A12.219,12.219,0,0,1,2322.442,1832.437Zm12.293,10.727a10.729,10.729,0,1,0-10.751-10.735A10.714,10.714,0,0,0,2334.735,1843.163Z" transform="translate(-2312.193 -1820.17)" fill="#fff"/>
      <path id="Path_1355" data-name="Path 1355" d="M2309.691,1861.069a7.163,7.163,0,1,1,7.155,7.1A7.189,7.189,0,0,1,2309.691,1861.069Zm7.134,5.593a5.626,5.626,0,1,0-5.6-5.633A5.633,5.633,0,0,0,2316.825,1866.662Z" transform="translate(-2309.691 -1826.781)" fill="#fff"/>
      <path id="Path_1356" data-name="Path 1356" d="M2347.863,1861.09a7.16,7.16,0,1,1,14.319.011,7.16,7.16,0,0,1-14.319-.011Zm7.2,5.595a5.624,5.624,0,1,0-5.646-5.647A5.663,5.663,0,0,0,2355.063,1866.684Z" transform="translate(-2317.183 -1826.786)" fill="#fff"/>
      <path id="Path_1357" data-name="Path 1357" d="M2335.886,1857.7a7.159,7.159,0,1,1-7.1,7.171A7.114,7.114,0,0,1,2335.886,1857.7Zm-5.575,7.165a5.625,5.625,0,1,0,5.633-5.616A5.67,5.67,0,0,0,2330.311,1864.861Z" transform="translate(-2313.438 -1827.535)" fill="#fff"/>
      <path id="Path_1358" data-name="Path 1358" d="M2327.509,1849.17a.732.732,0,0,0,.76.732.762.762,0,0,0,.746-.756.793.793,0,0,0-.792-.767A.757.757,0,0,0,2327.509,1849.17Z" transform="translate(-2313.188 -1825.707)" fill="#fff"/>
      <path id="Path_1359" data-name="Path 1359" d="M2325.445,1851.6a.791.791,0,0,0,.767.752.781.781,0,0,0,.747-.767.757.757,0,1,0-1.513.015Z" transform="translate(-2312.783 -1826.183)" fill="#fff"/>
      <path id="Path_1360" data-name="Path 1360" d="M2349.484,1851.676a.761.761,0,0,0-.732-.768.8.8,0,0,0-.775.743.78.78,0,0,0,.768.78A.73.73,0,0,0,2349.484,1851.676Z" transform="translate(-2317.205 -1826.203)" fill="#fff"/>
      <path id="Path_1361" data-name="Path 1361" d="M2324.174,1853.283a.75.75,0,0,0-.782.712.765.765,0,1,0,1.529.04A.752.752,0,0,0,2324.174,1853.283Z" transform="translate(-2312.38 -1826.669)" fill="#fff"/>
      <path id="Path_1362" data-name="Path 1362" d="M2336.707,1855.628a.746.746,0,0,0,.766.731.731.731,0,0,0,.742-.793.764.764,0,0,0-.779-.724A.793.793,0,0,0,2336.707,1855.628Z" transform="translate(-2314.993 -1826.975)" fill="#fff"/>
      <path id="Path_1363" data-name="Path 1363" d="M2346.687,1848.5a.748.748,0,1,0-.011,1.5.785.785,0,0,0,.788-.771A.769.769,0,0,0,2346.687,1848.5Z" transform="translate(-2316.802 -1825.73)" fill="#fff"/>
      <path id="Path_1364" data-name="Path 1364" d="M2350.039,1854.091a.751.751,0,1,0,.753-.753A.779.779,0,0,0,2350.039,1854.091Z" transform="translate(-2317.61 -1826.68)" fill="#fff"/>
      <path id="Path_1365" data-name="Path 1365" d="M2337.468,1853.174a.729.729,0,0,0,.749-.74.757.757,0,0,0-.729-.769.789.789,0,0,0-.779.778A.735.735,0,0,0,2337.468,1853.174Z" transform="translate(-2314.993 -1826.352)" fill="#fff"/>
      <path id="Path_1366" data-name="Path 1366" d="M2339.43,1833.072a6.34,6.34,0,0,1,3.446,5.518c.037.776-.218,1.009-1.007,1.009q-2.966,0-5.93,0c-1.932,0-3.865,0-5.8,0-.736,0-.988-.247-.971-.96a6.113,6.113,0,0,1,2.038-4.535,19.05,19.05,0,0,1,1.994-1.416,4.181,4.181,0,0,1-.043-6.091,4.136,4.136,0,0,1,5.773.029,4.2,4.2,0,0,1-.15,6.13C2339.016,1832.863,2339.229,1832.958,2339.43,1833.072Zm-3.663.7a5.325,5.325,0,0,0-4.993,4.274l10.5.006A5.292,5.292,0,0,0,2335.768,1833.774Zm2.9-4.185a2.636,2.636,0,1,0-2.591,2.606A2.635,2.635,0,0,0,2338.666,1829.589Z" transform="translate(-2313.514 -1821.202)" fill="#fff"/>
      <path id="Path_1367" data-name="Path 1367" d="M2316.018,1858.355a2.339,2.339,0,0,1,3.013-.274,3.042,3.042,0,0,1,.958,1.2,2.334,2.334,0,0,1-.264,2.251,3.649,3.649,0,0,1,1.542,1.674.813.813,0,0,1-.309,1.132c-.416.206-.789.029-1.073-.46a2.813,2.813,0,0,0-.574-.755,2.543,2.543,0,0,0-3.841.805.726.726,0,0,1-1.188.295.829.829,0,0,1-.143-1.009,3.726,3.726,0,0,1,1.547-1.7A2.484,2.484,0,0,1,2316.018,1858.355Zm2.61,1.8a.948.948,0,0,0-.9-.94.9.9,0,1,0,.9.94Z" transform="translate(-2310.543 -1827.527)" fill="#fff"/>
      <path id="Path_1368" data-name="Path 1368" d="M2359.454,1863.311a.769.769,0,0,1-.371,1.071.743.743,0,0,1-1.01-.425,2.464,2.464,0,0,0-3.069-1.214,2.171,2.171,0,0,0-1.364,1.209.713.713,0,0,1-.961.444.761.761,0,0,1-.441-1.006,1.787,1.787,0,0,1,.315-.619c.386-.442.808-.853,1.23-1.291a2.468,2.468,0,0,1,.609-3.282,2.4,2.4,0,0,1,3,.041,2.466,2.466,0,0,1,.5,3.331A3.508,3.508,0,0,1,2359.454,1863.311Zm-2.664-3.163a.92.92,0,0,0-1.84.023.9.9,0,0,0,.9.876A.938.938,0,0,0,2356.789,1860.148Z" transform="translate(-2318.031 -1827.535)" fill="#fff"/>
      <path id="Path_1369" data-name="Path 1369" d="M2335.037,1862.229a2.357,2.357,0,0,1,3.008-.352,3.051,3.051,0,0,1,.98,1.135,2.3,2.3,0,0,1-.24,2.353,3.531,3.531,0,0,1,1.589,1.766.763.763,0,0,1-.35,1.038.776.776,0,0,1-1.05-.42,3.038,3.038,0,0,0-.365-.589,2.56,2.56,0,0,0-4.028.531.743.743,0,0,1-1.054.479c-.432-.213-.534-.629-.306-1.161a3.47,3.47,0,0,1,1.547-1.647A2.44,2.44,0,0,1,2335.037,1862.229Zm2.636,1.73a.909.909,0,0,0-.9-.924.956.956,0,0,0-.914.882.91.91,0,0,0,.9.932A.876.876,0,0,0,2337.672,1863.96Z" transform="translate(-2314.286 -1828.279)" fill="#fff"/>
    </g>
  </g>
</svg>
