<svg xmlns="http://www.w3.org/2000/svg" width="47.112" height="47.461" viewBox="0 0 47.112 47.461">
  <g id="Group_283" data-name="Group 283" transform="translate(-2333.742 -1791.434)">
    <path id="Path_1398" data-name="Path 1398" d="M2361.564,1805.66h-.01v2.577l.01-.007Z" fill="#fff" stroke="#fff" stroke-miterlimit="10" stroke-width="0.5"/>
    <path id="Path_1399" data-name="Path 1399" d="M2359.833,1795.867h5.354v-.043h-5.367v6.737h.013Z" fill="#fff" stroke="#fff" stroke-miterlimit="10" stroke-width="0.5"/>
    <path id="Path_1400" data-name="Path 1400" d="M2368.807,1803.133h3.573v-.043h-3.636Z" fill="#fff" stroke="#fff" stroke-miterlimit="10" stroke-width="0.5"/>
    <rect id="Rectangle_219" data-name="Rectangle 219" width="0.013" height="1.988" transform="translate(2359.82 1803.627)" fill="#fff" stroke="#fff" stroke-miterlimit="10" stroke-width="0.5"/>
    <path id="Path_1401" data-name="Path 1401" d="M2333.992,1805.877V1822.6a3.3,3.3,0,0,0,1.207,2.55,3.355,3.355,0,0,0,2.1.726h11.232v5.686h-4.011a.535.535,0,0,0,0,1.069h13.257a11.266,11.266,0,0,0-1.433,5.482.5.5,0,0,0,.136.353.2.2,0,0,0,.025.025h0a.506.506,0,0,0,.358.141h.037c.86.03,1.729,0,2.588,0H2378.2a.542.542,0,0,0,.532-.534,11.291,11.291,0,0,0-2.595-7.168,11.158,11.158,0,0,0-5.921-3.681,6.39,6.39,0,0,0,2.814-2.5,6.468,6.468,0,0,0-.564-7.4,6.256,6.256,0,0,0-2.213-1.7c.023-1.861,0-3.721,0-5.583v-3.5h3.089v-3.487h.577l4.331,4.523v-4.523h2.359v-11.406h-15.417v3.177h-6.329v7.7h-4.326a2.428,2.428,0,0,0-.469-.94,2.37,2.37,0,0,0-2.613-.73,2.4,2.4,0,0,0-1.512,1.675h-7.193c-1.834,0-3.673-.023-5.507,0A3.3,3.3,0,0,0,2333.992,1805.877ZM2352,1801.84a1.321,1.321,0,0,1,1.244,2.112,1.308,1.308,0,1,1-1.244-2.112Zm14.144.288v-9.481h13.5v9.481h-2.358v3.089l-2.958-3.089Zm-1.27,3.542-3.3,2.623v-.053h0v-2.572h-1.721v-.046h-.012v-1.988h.012v-1.065h-.012v-6.738h5.366v.043h0v7.219h3.558c-.015-.013.008.012-.015,0h3.636v.042h0v2.52Zm6.813,19.143a36.47,36.47,0,1,1,0-.01Zm-11.983,6.844a10.13,10.13,0,0,1,17.937,5.908h-20.222A10.135,10.135,0,0,1,2359.709,1831.657Zm-4-5.788h6.908a.5.5,0,0,0,.252-.063,6.476,6.476,0,0,0,1.948,1.436,10.3,10.3,0,0,0-1.114.343,11.362,11.362,0,0,0-5.23,3.968H2355.7v-.307Zm-6.108.008h5.039v5.676H2349.6v-5.676Zm-14.565-3.263c-.005-.464,0-.932,0-1.4v-14.555a3.789,3.789,0,0,1,.267-1.885,2.232,2.232,0,0,1,1.933-1.146h12.683a2.359,2.359,0,0,0,1.839,1.824,2.412,2.412,0,0,0,2.507-1.109,2.246,2.246,0,0,0,.28-.715c1.433.025,2.875,0,4.311,0v2.95h1.733v3.679l4.593-3.679h3.991v8.687a6.321,6.321,0,0,0-3.835.167,6.474,6.474,0,0,0-4.207,6.016,7.129,7.129,0,0,0,.083,1.023,6.2,6.2,0,0,0,.872,2.331h-24.667a2.452,2.452,0,0,1-1.174-.229,2.229,2.229,0,0,1-1.206-1.958Z" fill="#fff" stroke="#fff" stroke-miterlimit="10" stroke-width="0.5"/>
    <path id="Path_1402" data-name="Path 1402" d="M2346.729,1820.55a.54.54,0,0,0,.534.54h9.909a.545.545,0,0,0,.547-.535,5.62,5.62,0,0,0-1.3-3.547,5.4,5.4,0,0,0-2.242-1.577,3.224,3.224,0,0,0,.862-.94,3.276,3.276,0,1,0-6.065-1.681h0a3.369,3.369,0,0,0,1.31,2.611A5.542,5.542,0,0,0,2346.729,1820.55Zm7.405-8.853a2.208,2.208,0,0,1-.2,2.507,2.23,2.23,0,0,1-2.487.655,2.2,2.2,0,1,1,2.689-3.162Zm-6.289,8.322a4.316,4.316,0,0,1,.95-2.268,4.489,4.489,0,0,1,4.971-1.355,4.441,4.441,0,0,1,2.844,3.615h-5.981Z" fill="#fff" stroke="#fff" stroke-miterlimit="10" stroke-width="0.5"/>
    <path id="Path_1403" data-name="Path 1403" d="M2377.133,1795.731h0a.228.228,0,0,0,0-.439h-5.457a.228.228,0,0,0,0,.439Z" fill="#fff" stroke="#fff" stroke-miterlimit="10" stroke-width="0.5"/>
    <path id="Path_1404" data-name="Path 1404" d="M2369.652,1798.5a.224.224,0,1,0,.047.446h7.307a.188.188,0,0,0,.047,0,.224.224,0,1,0-.047-.446H2369.7A.188.188,0,0,0,2369.652,1798.5Z" fill="#fff" stroke="#fff" stroke-miterlimit="10" stroke-width="0.5"/>
    <path id="Path_1405" data-name="Path 1405" d="M2371.415,1796.887a.2.2,0,0,0,0,.393h5.6a.2.2,0,0,0,0-.393Z" fill="#fff" stroke="#fff" stroke-miterlimit="10" stroke-width="0.5"/>
    <path id="Path_1406" data-name="Path 1406" d="M2365.487,1799.424h-3.845a.2.2,0,0,0-.048,0,.224.224,0,1,0,.048.446h3.845Z" fill="#fff" stroke="#fff" stroke-miterlimit="10" stroke-width="0.5"/>
    <path id="Path_1407" data-name="Path 1407" d="M2365.487,1801.216h-2.2a.188.188,0,0,0-.047,0,.224.224,0,0,0,.047.446h2.2Z" fill="#fff" stroke="#fff" stroke-miterlimit="10" stroke-width="0.5"/>
  </g>
</svg>
