<svg xmlns="http://www.w3.org/2000/svg" width="35.596" height="33.051" viewBox="0 0 35.596 33.051">
  <path id="Path_1140" data-name="Path 1140" d="M4133.209,979h-2.745l4.262-8.542,4.274,8.556c-.847,0-1.511.052-2.164-.014-.737-.073-1.006.245-1.247.915a16.117,16.117,0,0,1-12.779,11.075,16.511,16.511,0,1,1,11.1-25.1,1.618,1.618,0,0,1,.073,1.984c-.318.5-.551,1.061-.9,1.756a14.25,14.25,0,0,0-8.117-8.022,13.611,13.611,0,0,0-11.327.565,14.055,14.055,0,0,0,6.7,26.62C4126.245,988.637,4132.174,984.192,4133.209,979Z" transform="translate(-4103.404 -958.23)" fill="#fff"/>
</svg>
