<svg xmlns="http://www.w3.org/2000/svg" width="19.063" height="31.614" viewBox="0 0 19.063 31.614">
  <g id="Left_Arrow" transform="translate(-3593.094 -4807.722)">
    <g id="Group_120" data-name="Group 120">
      <g id="Group_119" data-name="Group 119">
        <path id="Path_815" data-name="Path 815" d="M3600.48,4823.54c1.708,1.742,3.392,3.456,5.073,5.172q3.074,3.137,6.145,6.278a1.324,1.324,0,0,1-.018,2.015c-.623.621-1.241,1.247-1.866,1.866a1.305,1.305,0,0,1-2.008-.011q-4.324-4.345-8.649-8.691-2.78-2.8-5.554-5.6a1.323,1.323,0,0,1-.005-2.082q3.335-3.356,6.672-6.709,3.766-3.79,7.528-7.581a1.315,1.315,0,0,1,2.014-.019q.939.927,1.867,1.865a1.329,1.329,0,0,1,0,2.041q-5.506,5.619-11.01,11.242C3600.611,4823.39,3600.557,4823.455,3600.48,4823.54Z" fill="#007580"/>
      </g>
    </g>
  </g>
</svg>
