<svg xmlns="http://www.w3.org/2000/svg" width="35.68" height="35.712" viewBox="0 0 35.68 35.712">
  <g id="sm_logo" transform="translate(-2745.899 -24.456)">
    <path id="Path_1481" data-name="Path 1481" d="M2763.7,57.581c-.582.7-1.274,1.3-1.9,1.956-.105.11-.185.082-.282-.017q-.571-.583-1.155-1.154a.473.473,0,0,1-.123-.38c0-.532-.008-1.064.006-1.6.006-.251-.084-.331-.331-.324-.532.014-1.065,0-1.6.007a.539.539,0,0,1-.434-.182c-.34-.357-.707-.69-1.034-1.059-.229-.258-.381-.229-.6.015-.329.367-.7.7-1.041,1.054a.506.506,0,0,1-.4.17c-.507-.006-1.014-.011-1.521,0-.237.007-.3-.078-.294-.308.014-.773-.006-1.546.01-2.318.005-.283-.082-.369-.367-.362-.76.02-1.522-.008-2.281.014-.3.009-.377-.086-.35-.365.055-.574-.182-1.211.107-1.711a5.911,5.911,0,0,1,1.177-1.224c.2-.187.226-.3.008-.5-.384-.346-.732-.732-1.106-1.089a.572.572,0,0,1-.187-.468c.01-.532,0-1.064.008-1.6.006-.217-.075-.29-.284-.287-.52.009-1.04-.009-1.559.009a.685.685,0,0,1-.565-.237c-.321-.34-.645-.679-.99-.993-.182-.167-.156-.258.008-.416.574-.553,1.127-1.127,1.7-1.682.164-.159.171-.255,0-.421-.584-.561-1.145-1.146-1.726-1.71-.168-.162-.191-.28,0-.42.03-.022.05-.057.078-.082.4-.363.7-.922,1.187-1.089a5.236,5.236,0,0,1,1.622-.048c.512,0,.51,0,.513-.511a4.737,4.737,0,0,1,.061-1.653c.189-.464.722-.79,1.1-1.176.348-.352.346-.35-.01-.71-.381-.386-.9-.717-1.1-1.182a5.573,5.573,0,0,1-.067-1.614c-.025-.35.095-.422.422-.411.747.025,1.495,0,2.243.013.246,0,.327-.064.322-.317-.016-.772.007-1.545-.014-2.317-.007-.293.088-.369.367-.357a5.355,5.355,0,0,1,1.691.071,4.122,4.122,0,0,1,1.227,1.159c.229.254.363.245.591,0,.4-.422.738-.993,1.26-1.179a4.638,4.638,0,0,1,1.7-.039c.326.014.481-.067.419-.411a.539.539,0,0,1,0-.114,4.357,4.357,0,0,1,.057-1.614c.222-.5.777-.846,1.173-1.271.156-.166.257-.175.422,0,.563.584,1.148,1.145,1.71,1.729.164.171.256.165.417,0,.553-.575,1.13-1.127,1.682-1.7.174-.181.3-.191.448.006a.3.3,0,0,0,.024.029c.391.412.966.729,1.143,1.239a4.824,4.824,0,0,1,.04,1.7c-.013.319.053.47.408.425.25-.032.513.03.759-.013a1.717,1.717,0,0,1,1.76.75c.215.274.463.675.768.684.279.008.527-.4.729-.663a1.949,1.949,0,0,1,1.869-.781c.95.072.954.019.954.981q0,1.006,0,2.014c-.941,0-1.883-.012-2.824-.005a3.4,3.4,0,0,0-.97.042c-.008,1.184-.015,2.369-.027,3.553,0,.164.064.22.224.218,1.186-.009,2.372-.013,3.557-.018.137-.042.1-.156.1-.252q0-1.758-.006-3.518c.886-.005,1.772-.005,2.659-.019.208,0,.256.082.253.269-.008.531-.01,1.063,0,1.595a.5.5,0,0,1-.189.391c-.361.354-.709.723-1.081,1.066-.19.175-.217.289-.01.476.347.314.652.674,1,.984a.8.8,0,0,1,.281.7c-.019.493,0,.987-.009,1.481,0,.215.071.292.284.289.519-.009,1.039.011,1.557-.006a.728.728,0,0,1,.6.25c.312.332.632.657.966.966.17.159.173.257,0,.423-.643.627-1.271,1.27-1.9,1.907a.082.082,0,0,0-.049,0c-.828-.831-1.659-1.658-2.48-2.5-.15-.153-.236-.159-.389,0-.82.838-1.65,1.666-2.477,2.5a.1.1,0,0,0-.056,0q-1.106-1.119-2.209-2.239c-.129-.131-.216-.123-.341,0-.735.749-1.477,1.491-2.217,2.235h-.077q-.61-.618-1.223-1.235c-.108-.108-.223-.208-.219-.379a18.2,18.2,0,0,1,.033-1.886c.139-.008.277-.021.416-.021.887,0,1.773,0,2.66,0,.141,0,.311.051.311-.205,0-1,.005-2,.018-3,0-.222-.119-.244-.289-.243-.95,0-1.9.008-2.849,0-.223,0-.279.081-.277.289.012,1.063.012,2.126.017,3.189a12.4,12.4,0,0,0-1.363-.005,1.308,1.308,0,0,1-1.273-.539c-.206-.268-.486-.477-.716-.727-.149-.161-.25-.193-.422-.015-.419.434-.795,1.016-1.313,1.222a5.339,5.339,0,0,1-1.838.058l-.152,0c-.11-.118-.056-.264-.057-.394-.006-.847,0-1.694,0-2.541,0-.59.067-.513-.528-.525-.946-.019-1.894.049-2.839-.038a.87.87,0,0,1-.034-.411c0-1.012-.007-2.024,0-3.035,0-.212-.032-.324-.285-.321-1.075.011-2.151.008-3.227,0-.217,0-.281.075-.279.287.008,1.063.01,2.125,0,3.188,0,.232.07.3.3.3,1.177-.013,2.353-.011,3.53-.014,0,1.008.013,2.017-.018,3.025-.011.377.109.457.465.454.993-.009,1.987-.048,2.98.019,0,.582-.016,1.165-.007,1.747a.629.629,0,0,1-.208.5c-.366.35-.714.718-1.082,1.065-.155.146-.17.235,0,.389.353.325.678.68,1.025,1.01a.726.726,0,0,1,.251.6c-.021.48,0,.963-.007,1.444,0,.211.066.289.286.283.507-.012,1.014,0,1.521,0a.486.486,0,0,1,.386.12c.419.437.842.873,1.263,1.309l.064.085c-.717.707-1.424,1.424-2.154,2.116-.221.21-.211.327,0,.535.706.7,1.437,1.373,2.094,2.121a.055.055,0,0,0,0,.04c-.712.8-1.51,1.523-2.254,2.3-.423.44-.449.3,0,.767.745.77,1.541,1.49,2.251,2.294A.049.049,0,0,0,2763.7,57.581Zm-6.848-8.266c-1.2-.007-2.4-.011-3.6-.025-.257,0-.24.158-.239.328,0,1.05.008,2.1,0,3.149,0,.265.078.35.345.347,1.038-.013,2.076-.016,3.114,0,.3.006.392-.092.388-.39-.014-1.138-.005-2.277-.005-3.415,1.014,0,2.028-.009,3.042,0,.26,0,.359-.074.355-.344-.011-.962-.008-1.925,0-2.888,0-.176-.06-.215-.216-.214q-1.464.006-2.928,0c-.182,0-.278.047-.275.256C2756.841,47.188,2756.845,48.252,2756.852,49.315Zm-2.974-6.991a1.831,1.831,0,0,0-.127-.157c-.793-.794-1.589-1.584-2.378-2.382-.114-.116-.188-.082-.28.01q-1.2,1.206-2.407,2.41c-.1.1-.111.165,0,.275q1.2,1.185,2.385,2.386c.117.118.2.108.312-.007q1.187-1.2,2.379-2.383A1.463,1.463,0,0,0,2753.878,42.324Zm9.937-9.861a.907.907,0,0,1,.093-.145c.8-.8,1.6-1.607,2.416-2.4.143-.141.052-.212-.04-.3-.769-.767-1.541-1.532-2.3-2.307-.156-.159-.252-.134-.394.01q-1.132,1.145-2.279,2.275c-.146.143-.158.237,0,.391.777.76,1.541,1.533,2.31,2.3C2763.67,32.333,2763.726,32.38,2763.815,32.463Zm-5.079,9.875a1.877,1.877,0,0,0-.143-.181c-.687-.69-1.378-1.376-2.062-2.069-.142-.144-.236-.121-.37.015q-1.014,1.031-2.044,2.043c-.136.134-.158.212,0,.36q1.047,1.02,2.068,2.069c.156.16.24.1.361-.018q1.016-1.023,2.034-2.042C2758.628,42.463,2758.675,42.4,2758.736,42.338Zm5.054-5.06c.055-.049.1-.088.145-.13.7-.7,1.389-1.4,2.095-2.092.144-.142.106-.215-.013-.333q-1.04-1.028-2.065-2.069c-.129-.13-.206-.128-.335,0q-1.011,1.029-2.042,2.04c-.15.147-.159.237,0,.389.688.671,1.363,1.355,2.043,2.034C2763.668,37.173,2763.726,37.22,2763.79,37.278Z" fill="#fff"/>
    <path id="Path_1482" data-name="Path 1482" d="M2779,42.322a.082.082,0,0,1,.049,0c.622.63,1.237,1.268,1.871,1.886.194.188.2.3-.007.473a2.573,2.573,0,0,0-.482.483,1.749,1.749,0,0,1-1.77.728c-.353-.038-.823-.172-1.054.07-.212.223-.1.685-.052,1.027a1.822,1.822,0,0,1-.773,1.829c-.261.2-.654.435-.649.742,0,.279.382.513.637.71a1.952,1.952,0,0,1,.791,1.863c-.076.962-.018.966-.977.966-.557,0-1.115.012-1.671-.005-.26-.008-.353.063-.347.336.018.772,0,1.545.012,2.316.005.256-.054.358-.333.345a5.337,5.337,0,0,1-1.653-.06c-.478-.195-.818-.729-1.214-1.119-.354-.349-.352-.353-.7-.006-.323.322-.652.638-.962.971a.64.64,0,0,1-.534.213c-.481-.015-.965.02-1.444-.013-.352-.024-.43.108-.412.43.026.467,0,.937.011,1.4a.677.677,0,0,1-.226.569c-.343.318-.679.647-.993.993-.177.195-.283.162-.449-.009-.555-.572-1.125-1.13-1.69-1.694a.5.5,0,0,0-.276-.187.049.049,0,0,1,0-.042.61.61,0,0,0,.166-.082c.818-.813,1.63-1.631,2.451-2.44.147-.145.088-.223-.026-.337-.8-.793-1.6-1.593-2.4-2.387a.862.862,0,0,0-.193-.11.055.055,0,0,1,0-.04.14.14,0,0,0,.036-.013c.841-.71,1.566-1.539,2.359-2.3.123-.118.01-.178-.054-.243-.293-.3-.585-.6-.886-.886a15.8,15.8,0,0,0-1.394-1.332l-.064-.085c.155-.013.236-.135.333-.231.332-.329.669-.654.991-.993a.659.659,0,0,1,.535-.221c.43.011.862-.026,1.289.01.387.033.477-.121.452-.472-.027-.39.01-.784-.012-1.174a.834.834,0,0,1,.292-.7c.4-.385.781-.791,1.169-1.187h.077c.739.746,1.481,1.49,2.214,2.241.129.131.212.13.339,0,.735-.75,1.476-1.494,2.214-2.24a.1.1,0,0,1,.056,0q1.254,1.261,2.5,2.525c.124.126.208.136.338,0C2777.325,44,2778.163,43.164,2779,42.322Zm-6.366,6.972c-.532,0-1.064.008-1.6,0-.213,0-.284.069-.283.284.009,1.075.007,2.151,0,3.226,0,.2.068.265.265.264q1.633-.009,3.267,0c.21,0,.289-.068.287-.285q-.012-1.594,0-3.189c0-.234-.081-.307-.309-.3C2773.721,49.3,2773.176,49.294,2772.632,49.294Zm-3.57-3.417c-.468,0-.938.01-1.406,0-.24-.008-.335.057-.331.316.013.924.011,1.849,0,2.773,0,.234.078.305.307.3q1.407-.013,2.814,0c.228,0,.314-.068.312-.3q-.014-1.406,0-2.812c0-.219-.08-.285-.291-.279C2770,45.885,2769.531,45.876,2769.062,45.877Z" fill="#fff"/>
    <path id="Path_1489" data-name="Path 1489" d="M2758.741,26.042a1.581,1.581,0,0,1-3.161.014,1.581,1.581,0,1,1,3.161-.014Z" fill="#fff"/>
    <path id="Path_1490" data-name="Path 1490" d="M2747.54,37.313a1.536,1.536,0,0,1-1.566-1.547,1.579,1.579,0,0,1,1.554-1.58,1.541,1.541,0,0,1,1.573,1.584A1.507,1.507,0,0,1,2747.54,37.313Z" fill="#fff"/>
    <path id="Path_1491" data-name="Path 1491" d="M2745.9,48.859a1.553,1.553,0,0,1,3.106.056,1.553,1.553,0,1,1-3.106-.056Z" fill="#fff"/>
    <path id="Path_1492" data-name="Path 1492" d="M2768.856,26.027a1.561,1.561,0,1,1,3.122.05,1.561,1.561,0,0,1-3.122-.05Z" fill="#fff"/>
    <path id="Path_1493" data-name="Path 1493" d="M2781.579,35.768a1.508,1.508,0,0,1-1.569,1.538,1.537,1.537,0,0,1-1.542-1.54,1.565,1.565,0,0,1,1.564-1.568A1.527,1.527,0,0,1,2781.579,35.768Z" fill="#fff"/>
    <path id="Path_1494" data-name="Path 1494" d="M2757.2,57.067a1.517,1.517,0,0,1,1.509,1.532,1.551,1.551,0,1,1-3.1-.047A1.526,1.526,0,0,1,2757.2,57.067Z" fill="#fff"/>
    <path id="Path_1495" data-name="Path 1495" d="M2768.862,58.61a1.557,1.557,0,1,1,3.114-.012,1.557,1.557,0,1,1-3.114.012Z" fill="#fff"/>
    <path id="Path_1496" data-name="Path 1496" d="M2781.574,48.9a1.517,1.517,0,0,1-1.533,1.548,1.579,1.579,0,0,1-1.575-1.568,1.562,1.562,0,0,1,1.556-1.539A1.5,1.5,0,0,1,2781.574,48.9Z" fill="#fff"/>
    <path id="Path_1531" data-name="Path 1531" d="M2774.636,31.551q0,1.759.006,3.518c0,.1.032.21-.1.252,0-1.123-.013-2.247.009-3.369.006-.322-.112-.378-.392-.376-1.124.007-2.247,0-3.371-.008a3.4,3.4,0,0,1,.97-.042c.941-.007,1.883,0,2.824.005A.062.062,0,0,1,2774.636,31.551Z" fill="#fff"/>
  </g>
</svg>
