<svg xmlns="http://www.w3.org/2000/svg" width="120.972" height="120.99" viewBox="0 0 120.972 120.99">
  <g id="MMaHUx.tif" transform="translate(-4119.028 -1702)">
    <g id="Group_140" data-name="Group 140">
      <path id="Path_969" data-name="Path 969" d="M4176.813,1702.5h5.387c.24.036.478.092.719.1a56.65,56.65,0,0,1,12.112,1.93,59.352,59.352,0,0,1,33.355,23.2,58.449,58.449,0,0,1,10.763,28.36c.132,1.233.235,2.469.351,3.7v5.387c-.036.239-.092.477-.1.718a58.385,58.385,0,0,1-3.7,17.639,59.975,59.975,0,0,1-51.82,38.781,58.318,58.318,0,0,1-20.291-2,60.038,60.038,0,0,1-43.841-62.928,57.065,57.065,0,0,1,4.012-17.07,59.565,59.565,0,0,1,26.989-30.473,58.07,58.07,0,0,1,22.3-6.993C4174.3,1702.723,4175.557,1702.618,4176.813,1702.5Zm-47.285,59.944a49.979,49.979,0,1,0,50.19-49.928A49.934,49.934,0,0,0,4129.528,1762.444Z" fill="#8e3a8f" stroke="#fff" stroke-miterlimit="10" stroke-width="1"/>
      <path id="Path_970" data-name="Path 970" d="M4139.691,1762.45l9.882-9.883,19.926,19.918,39.894-39.891,9.953,9.892-49.811,49.806Z" fill="#8e3a8f" stroke="#fff" stroke-miterlimit="10" stroke-width="3"/>
    </g>
  </g>
</svg>
