<svg xmlns="http://www.w3.org/2000/svg" width="29.119" height="28.152" viewBox="0 0 29.119 28.152">
  <g id="tel" transform="translate(-483.881 -5601.848)">
    <circle id="Ellipse_47" data-name="Ellipse 47" cx="12" cy="12" r="12" transform="translate(489 5606)" fill="#007580" opacity="0.17"/>
    <g id="FfjMZ8" transform="translate(-1443)">
      <g id="Group_295" data-name="Group 295">
        <path id="Path_1487" data-name="Path 1487" d="M1928.157,5624.278c-1.755-1.7-.95-3.809.635-5.031a17.222,17.222,0,0,1,3.9-1.864,2.5,2.5,0,0,1,2.452.254,5.717,5.717,0,0,1,.933.871c.777.843.776.855,1.779.252a16.581,16.581,0,0,0,5.614-5.471c1.022-1.636.858-1.34-.311-2.425a2.621,2.621,0,0,1-.859-2.954c.377-1.071.875-2.1,1.3-3.152a4.234,4.234,0,0,1,2.429-2.265,2.5,2.5,0,0,1,2.788.38,5.827,5.827,0,0,1,2.293,6.229c-1.347,6-4.232,10.937-9.647,14.169a20.462,20.462,0,0,1-8.648,3.051A5.9,5.9,0,0,1,1928.157,5624.278Zm11.247-1.43c5.6-2.823,8.777-7.511,10.233-13.49.084-.346.123-.7.19-1.051.374-1.972-.594-3.344-2.054-4.451a1.363,1.363,0,0,0-1.054-.1,2.662,2.662,0,0,0-1.836,1.547c-.387.941-.826,1.861-1.206,2.8a1.486,1.486,0,0,0,.482,1.785c1.723,1.57,1.787,2.1.538,4.072a18.121,18.121,0,0,1-6.3,6.084c-1.464.847-2.156.8-3.225-.5a2.025,2.025,0,0,0-2.75-.624c-.878.417-1.772.808-2.619,1.28a1.964,1.964,0,0,0-.436,3.292,3.807,3.807,0,0,0,3.129,1.431A17.42,17.42,0,0,0,1939.4,5622.848Z" fill="#007580"/>
        <path id="Path_1488" data-name="Path 1488" d="M1940.234,5601.848c-.31.087-.47.127-.627.178a18.593,18.593,0,0,0-12.632,12.67c-.158.491-.171.926.405,1.086s.779-.224.936-.711a17.286,17.286,0,0,1,11.667-11.71c.437-.143.868-.3.752-.842C1940.679,5602.259,1940.392,5602.048,1940.234,5601.848Z" fill="#007580"/>
        <path id="Path_1489" data-name="Path 1489" d="M1930.11,5615.264c.1.112.241.434.444.476a1.2,1.2,0,0,0,.806-.234c.147-.1.175-.375.254-.573a14.337,14.337,0,0,1,8.262-8.278c.154-.062.384-.068.454-.18.171-.27.4-.61.35-.875-.034-.18-.525-.43-.764-.386a6.217,6.217,0,0,0-1.528.561,15.615,15.615,0,0,0-8.1,8.776c-.042.111-.091.219-.125.332A3.308,3.308,0,0,0,1930.11,5615.264Z" fill="#007580"/>
        <path id="Path_1490" data-name="Path 1490" d="M1933.413,5615.315c.132.122.321.435.519.441a1.076,1.076,0,0,0,.809-.355c.477-.674.817-1.447,1.3-2.115a10.637,10.637,0,0,1,4.082-3.362c.5-.238.835-.56.552-1.1-.272-.517-.738-.374-1.178-.155a12.633,12.633,0,0,0-5.867,5.894,3.777,3.777,0,0,0-.167.393A2.512,2.512,0,0,0,1933.413,5615.315Z" fill="#007580"/>
      </g>
    </g>
  </g>
</svg>
