<svg xmlns="http://www.w3.org/2000/svg" width="45.282" height="45.281" viewBox="0 0 45.282 45.281">
  <path id="Path_1481" data-name="Path 1481" d="M2549.595,5592.675h0a22.641,22.641,0,1,0,0,45.281h0a22.641,22.641,0,1,0,0-45.281Zm10.311,19.1c.008.2.012.413.012.622,0,6.344-4.708,13.657-13.319,13.657a13.03,13.03,0,0,1-7.177-2.155,9.274,9.274,0,0,0,6.931-1.99,4.7,4.7,0,0,1-4.372-3.332,4.595,4.595,0,0,0,2.114-.084,4.772,4.772,0,0,1-3.756-4.706v-.059a4.59,4.59,0,0,0,2.121.6,4.831,4.831,0,0,1-2.082-3.994,4.885,4.885,0,0,1,.633-2.416,13.183,13.183,0,0,0,9.65,5.017,4.875,4.875,0,0,1-.121-1.094,4.742,4.742,0,0,1,4.68-4.8,4.617,4.617,0,0,1,3.416,1.515,9.208,9.208,0,0,0,2.975-1.164,4.791,4.791,0,0,1-2.059,2.656,9.119,9.119,0,0,0,2.688-.756A9.588,9.588,0,0,1,2559.906,5611.78Z" transform="translate(-2526.954 -5592.675)" fill="#007580"/>
</svg>
