<svg xmlns="http://www.w3.org/2000/svg" width="25.502" height="20.399" viewBox="0 0 25.502 20.399">
  <path id="Path_1513" data-name="Path 1513" d="M2423.539,3613.878a11.172,11.172,0,0,1-3,.816,5.165,5.165,0,0,0,2.31-2.863,10.653,10.653,0,0,1-3.333,1.259,5.255,5.255,0,0,0-9.06,3.512,5.358,5.358,0,0,0,.153,1.176,14.849,14.849,0,0,1-10.788-5.38,5.084,5.084,0,0,0,1.6,6.874,5.064,5.064,0,0,1-2.365-.637v.07a4.889,4.889,0,0,0,.359,1.853,5.219,5.219,0,0,0,3.846,3.181,5.163,5.163,0,0,1-1.383.193,4.667,4.667,0,0,1-.983-.11,5.276,5.276,0,0,0,4.883,3.6,10.586,10.586,0,0,1-6.487,2.2c-.429,0-.829-.028-1.258-.069a15.1,15.1,0,0,0,8.021,2.31,14.557,14.557,0,0,0,14.535-11.534,14.22,14.22,0,0,0,.345-3.112v-.664a10.833,10.833,0,0,0,2.6-2.669Z" transform="translate(-2398.037 -3611.458)" fill="#8e3a8f" fill-rule="evenodd"/>
</svg>
