<svg xmlns="http://www.w3.org/2000/svg" width="74.497" height="49.752" viewBox="0 0 74.497 49.752">
  <g id="iDCRnN.tif" transform="translate(-3852.003 -5882.374)">
    <g id="Group_98" data-name="Group 98">
      <g id="Group_97" data-name="Group 97">
        <path id="Path_663" data-name="Path 663" d="M3890.69,5932.116c-6.114,0-12.227.026-18.34-.008a19.746,19.746,0,0,1-15.9-7.592,19.54,19.54,0,0,1-4.392-14.175,20.216,20.216,0,0,1,13.567-17.474,19.655,19.655,0,0,1,5.987-1.071.707.707,0,0,0,.6-.371,21.6,21.6,0,0,1,10.286-7.819,20.09,20.09,0,0,1,19.017,2.8,21.423,21.423,0,0,1,8.037,11.07.679.679,0,0,0,.728.566,17.051,17.051,0,0,1-1.077,34.076Zm1.689-6.225h.552c5.458,0,10.917.008,16.375-.01a10.62,10.62,0,0,0,2.3-.215,10.879,10.879,0,0,0,5.489-18.317,10.085,10.085,0,0,0-8.8-3.07c-1.073.133-2.146.275-3.2.41-.046-.064-.075-.086-.079-.112-.137-.805-.288-1.609-.4-2.418a15.5,15.5,0,0,0-25.749-9.542,16.944,16.944,0,0,0-3.656,4.854.942.942,0,0,1-1.024.6,23.068,23.068,0,0,0-3.914.02,13.967,13.967,0,0,0,1.893,27.805q6.781,0,13.564,0c.128,0,.256-.017.387-.026v-12.4h-9.2l12.241-12.216,12.3,12.249h-9.08Z" fill="#007580"/>
      </g>
    </g>
  </g>
</svg>
